<svg width="332" height="200" viewBox="0 0 332 200" fill="none" xmlns="http://www.w3.org/2000/svg">
<g clip-path="url(#clip0)">
<rect width="332" height="200" fill="white"/>
<rect width="637" height="637" transform="translate(-153 -218)" fill="#060D26"/>
<rect width="637" height="637" transform="translate(-153 -218)" fill="url(#paint0_radial)"/>
<g style="mix-blend-mode:hard-light" opacity="0.9">
<mask id="mask0" mask-type="alpha" maskUnits="userSpaceOnUse" x="61" y="-4" width="210" height="210">
<circle cx="165.718" cy="100.718" r="50" transform="rotate(-60.0121 165.718 100.718)" stroke="#90BFDA" stroke-width="53" stroke-linecap="round"/>
</mask>
<g mask="url(#mask0)">
<rect x="55.5363" y="36.558" width="93" height="128" transform="rotate(-60.0121 55.5363 36.558)" fill="url(#paint1_linear)"/>
</g>
</g>
<g style="mix-blend-mode:hard-light" opacity="0.9">
<mask id="mask1" mask-type="alpha" maskUnits="userSpaceOnUse" x="72" y="7" width="188" height="188">
<circle cx="165.718" cy="100.718" r="75.5" transform="rotate(104.855 165.718 100.718)" stroke="#90BFDA" stroke-width="2" stroke-linecap="round"/>
</mask>
<g mask="url(#mask1)">
<rect x="288.828" y="133.889" width="93" height="128" transform="rotate(104.855 288.828 133.889)" fill="url(#paint2_linear)"/>
</g>
</g>
<g style="mix-blend-mode:hard-light">
<mask id="mask2" mask-type="alpha" maskUnits="userSpaceOnUse" x="72" y="7" width="187" height="187">
<circle cx="165.718" cy="100.718" r="90.9357" transform="rotate(0.503265 165.718 100.718)" stroke="url(#paint3_linear)" stroke-width="3" stroke-linecap="round"/>
</mask>
<g mask="url(#mask2)">
<rect x="169.162" y="-51.8168" width="109.373" height="151.664" transform="rotate(0.503265 169.162 -51.8168)" fill="url(#paint4_linear)" stroke="url(#paint5_linear)" stroke-width="3" stroke-linecap="round"/>
</g>
</g>
<g style="mix-blend-mode:hard-light" opacity="0.9">
<mask id="mask3" mask-type="alpha" maskUnits="userSpaceOnUse" x="54" y="-11" width="224" height="224">
<circle cx="165.718" cy="100.718" r="83.1288" transform="rotate(71.4549 165.718 100.718)" stroke="url(#paint6_linear)" stroke-width="10" stroke-linecap="round"/>
</mask>
<g mask="url(#mask3)">
<rect x="302.005" y="60.8788" width="97.137" height="137.457" transform="rotate(71.4549 302.005 60.8788)" fill="url(#paint7_linear)" stroke="url(#paint8_linear)" stroke-width="10" stroke-linecap="round"/>
</g>
</g>
<path d="M104 79.496V84.92H90.032V93.512H100.736V98.84H90.032V113H83.312V79.496H104ZM111.453 83.24C110.269 83.24 109.277 82.872 108.477 82.136C107.709 81.368 107.325 80.424 107.325 79.304C107.325 78.184 107.709 77.256 108.477 76.52C109.277 75.752 110.269 75.368 111.453 75.368C112.637 75.368 113.613 75.752 114.381 76.52C115.181 77.256 115.581 78.184 115.581 79.304C115.581 80.424 115.181 81.368 114.381 82.136C113.613 82.872 112.637 83.24 111.453 83.24ZM114.765 86.408V113H108.045V86.408H114.765ZM119.676 99.608C119.676 96.92 120.204 94.536 121.26 92.456C122.348 90.376 123.82 88.776 125.676 87.656C127.532 86.536 129.596 85.976 131.868 85.976C133.596 85.976 135.244 86.36 136.812 87.128C138.38 87.864 139.628 88.856 140.556 90.104V77.48H147.372V113H140.556V109.064C139.725 110.376 138.556 111.432 137.052 112.232C135.548 113.032 133.804 113.432 131.82 113.432C129.58 113.432 127.532 112.856 125.676 111.704C123.82 110.552 122.348 108.936 121.26 106.856C120.204 104.744 119.676 102.328 119.676 99.608ZM140.604 99.704C140.604 98.072 140.284 96.68 139.645 95.528C139.004 94.344 138.14 93.448 137.052 92.84C135.964 92.2 134.797 91.88 133.549 91.88C132.3 91.88 131.148 92.184 130.092 92.792C129.036 93.4 128.172 94.296 127.5 95.48C126.86 96.632 126.54 98.008 126.54 99.608C126.54 101.208 126.86 102.616 127.5 103.832C128.172 105.016 129.036 105.928 130.092 106.568C131.18 107.208 132.332 107.528 133.549 107.528C134.797 107.528 135.964 107.224 137.052 106.616C138.14 105.976 139.004 105.08 139.645 103.928C140.284 102.744 140.604 101.336 140.604 99.704ZM178.656 99.128C178.656 100.088 178.592 100.952 178.464 101.72H159.024C159.184 103.64 159.856 105.144 161.04 106.232C162.224 107.32 163.68 107.864 165.408 107.864C167.904 107.864 169.68 106.792 170.736 104.648H177.984C177.216 107.208 175.744 109.32 173.568 110.984C171.392 112.616 168.72 113.432 165.552 113.432C162.992 113.432 160.688 112.872 158.64 111.752C156.624 110.6 155.04 108.984 153.888 106.904C152.768 104.824 152.208 102.424 152.208 99.704C152.208 96.952 152.768 94.536 153.888 92.456C155.008 90.376 156.576 88.776 158.592 87.656C160.608 86.536 162.928 85.976 165.552 85.976C168.08 85.976 170.336 86.52 172.32 87.608C174.336 88.696 175.888 90.248 176.976 92.264C178.096 94.248 178.656 96.536 178.656 99.128ZM171.696 97.208C171.664 95.48 171.04 94.104 169.824 93.08C168.608 92.024 167.12 91.496 165.36 91.496C163.696 91.496 162.288 92.008 161.136 93.032C160.016 94.024 159.328 95.416 159.072 97.208H171.696ZM190.281 77.48V113H183.561V77.48H190.281ZM200.328 83.24C199.144 83.24 198.152 82.872 197.352 82.136C196.584 81.368 196.2 80.424 196.2 79.304C196.2 78.184 196.584 77.256 197.352 76.52C198.152 75.752 199.144 75.368 200.328 75.368C201.512 75.368 202.488 75.752 203.256 76.52C204.056 77.256 204.456 78.184 204.456 79.304C204.456 80.424 204.056 81.368 203.256 82.136C202.488 82.872 201.512 83.24 200.328 83.24ZM203.64 86.408V113H196.92V86.408H203.64ZM220.455 113.432C218.279 113.432 216.327 113.048 214.599 112.28C212.871 111.48 211.495 110.408 210.471 109.064C209.479 107.72 208.935 106.232 208.839 104.6H215.607C215.735 105.624 216.231 106.472 217.095 107.144C217.991 107.816 219.095 108.152 220.407 108.152C221.687 108.152 222.679 107.896 223.383 107.384C224.119 106.872 224.487 106.216 224.487 105.416C224.487 104.552 224.039 103.912 223.143 103.496C222.279 103.048 220.887 102.568 218.967 102.056C216.983 101.576 215.351 101.08 214.071 100.568C212.823 100.056 211.735 99.272 210.807 98.216C209.911 97.16 209.463 95.736 209.463 93.944C209.463 92.472 209.879 91.128 210.711 89.912C211.575 88.696 212.791 87.736 214.359 87.032C215.959 86.328 217.831 85.976 219.976 85.976C223.143 85.976 225.671 86.776 227.559 88.376C229.448 89.944 230.488 92.072 230.679 94.76H224.247C224.151 93.704 223.703 92.872 222.903 92.264C222.135 91.624 221.095 91.304 219.783 91.304C218.567 91.304 217.623 91.528 216.951 91.976C216.311 92.424 215.991 93.048 215.991 93.848C215.991 94.744 216.439 95.432 217.335 95.912C218.231 96.36 219.623 96.824 221.511 97.304C223.431 97.784 225.015 98.28 226.263 98.792C227.511 99.304 228.583 100.104 229.479 101.192C230.407 102.248 230.887 103.656 230.919 105.416C230.919 106.952 230.487 108.328 229.624 109.544C228.791 110.76 227.575 111.72 225.976 112.424C224.407 113.096 222.567 113.432 220.455 113.432Z" fill="url(#paint9_linear)"/>
<path opacity="0.65" d="M99.504 121.416C100.091 121.416 100.605 121.531 101.048 121.76C101.496 121.989 101.84 122.317 102.08 122.744C102.325 123.165 102.448 123.656 102.448 124.216C102.448 124.776 102.325 125.267 102.08 125.688C101.84 126.104 101.496 126.427 101.048 126.656C100.605 126.885 100.091 127 99.504 127H97.552V121.416H99.504ZM99.464 126.048C100.051 126.048 100.504 125.888 100.824 125.568C101.144 125.248 101.304 124.797 101.304 124.216C101.304 123.635 101.144 123.181 100.824 122.856C100.504 122.525 100.051 122.36 99.464 122.36H98.672V126.048H99.464ZM109.166 121.416V127H108.046V121.416H109.166ZM116.961 127.056C116.572 127.056 116.22 126.989 115.905 126.856C115.596 126.723 115.35 126.531 115.169 126.28C114.988 126.029 114.894 125.733 114.889 125.392H116.089C116.105 125.621 116.185 125.803 116.329 125.936C116.478 126.069 116.681 126.136 116.937 126.136C117.198 126.136 117.404 126.075 117.553 125.952C117.702 125.824 117.777 125.659 117.777 125.456C117.777 125.291 117.726 125.155 117.625 125.048C117.524 124.941 117.396 124.859 117.241 124.8C117.092 124.736 116.884 124.667 116.617 124.592C116.254 124.485 115.958 124.381 115.729 124.28C115.505 124.173 115.31 124.016 115.145 123.808C114.985 123.595 114.905 123.312 114.905 122.96C114.905 122.629 114.988 122.341 115.153 122.096C115.318 121.851 115.55 121.664 115.849 121.536C116.148 121.403 116.489 121.336 116.873 121.336C117.449 121.336 117.916 121.477 118.273 121.76C118.636 122.037 118.836 122.427 118.873 122.928H117.641C117.63 122.736 117.548 122.579 117.393 122.456C117.244 122.328 117.044 122.264 116.793 122.264C116.574 122.264 116.398 122.32 116.265 122.432C116.137 122.544 116.073 122.707 116.073 122.92C116.073 123.069 116.121 123.195 116.217 123.296C116.318 123.392 116.441 123.472 116.585 123.536C116.734 123.595 116.942 123.664 117.209 123.744C117.572 123.851 117.868 123.957 118.097 124.064C118.326 124.171 118.524 124.331 118.689 124.544C118.854 124.757 118.937 125.037 118.937 125.384C118.937 125.683 118.86 125.96 118.705 126.216C118.55 126.472 118.324 126.677 118.025 126.832C117.726 126.981 117.372 127.056 116.961 127.056ZM128.5 121.416V122.32H127.012V127H125.892V122.32H124.404V121.416H128.5ZM136.989 127L135.757 124.824H135.229V127H134.109V121.416H136.205C136.637 121.416 137.005 121.493 137.309 121.648C137.613 121.797 137.84 122.003 137.989 122.264C138.144 122.52 138.221 122.808 138.221 123.128C138.221 123.496 138.114 123.829 137.901 124.128C137.688 124.421 137.37 124.624 136.949 124.736L138.285 127H136.989ZM135.229 123.984H136.165C136.469 123.984 136.696 123.912 136.845 123.768C136.994 123.619 137.069 123.413 137.069 123.152C137.069 122.896 136.994 122.699 136.845 122.56C136.696 122.416 136.469 122.344 136.165 122.344H135.229V123.984ZM145.146 121.416V127H144.026V121.416H145.146ZM154.213 124.136C154.527 124.195 154.786 124.352 154.989 124.608C155.191 124.864 155.293 125.157 155.293 125.488C155.293 125.787 155.218 126.051 155.069 126.28C154.925 126.504 154.714 126.68 154.437 126.808C154.159 126.936 153.831 127 153.453 127H151.045V121.416H153.349C153.727 121.416 154.053 121.477 154.325 121.6C154.602 121.723 154.81 121.893 154.949 122.112C155.093 122.331 155.165 122.579 155.165 122.856C155.165 123.181 155.077 123.453 154.901 123.672C154.73 123.891 154.501 124.045 154.213 124.136ZM152.165 123.72H153.189C153.455 123.72 153.661 123.661 153.805 123.544C153.949 123.421 154.021 123.248 154.021 123.024C154.021 122.8 153.949 122.627 153.805 122.504C153.661 122.381 153.455 122.32 153.189 122.32H152.165V123.72ZM153.293 126.088C153.565 126.088 153.775 126.024 153.925 125.896C154.079 125.768 154.157 125.587 154.157 125.352C154.157 125.112 154.077 124.925 153.917 124.792C153.757 124.653 153.541 124.584 153.269 124.584H152.165V126.088H153.293ZM162.081 121.416V124.872C162.081 125.251 162.18 125.541 162.377 125.744C162.575 125.941 162.852 126.04 163.209 126.04C163.572 126.04 163.852 125.941 164.049 125.744C164.247 125.541 164.345 125.251 164.345 124.872V121.416H165.473V124.864C165.473 125.339 165.369 125.741 165.161 126.072C164.959 126.397 164.684 126.643 164.337 126.808C163.996 126.973 163.615 127.056 163.193 127.056C162.777 127.056 162.399 126.973 162.057 126.808C161.721 126.643 161.455 126.397 161.257 126.072C161.06 125.741 160.961 125.339 160.961 124.864V121.416H162.081ZM175.147 121.416V122.32H173.659V127H172.539V122.32H171.051V121.416H175.147ZM181.877 121.416V127H180.757V121.416H181.877ZM190.367 127.056C189.845 127.056 189.365 126.933 188.927 126.688C188.49 126.443 188.143 126.104 187.887 125.672C187.631 125.235 187.503 124.741 187.503 124.192C187.503 123.648 187.631 123.16 187.887 122.728C188.143 122.291 188.49 121.949 188.927 121.704C189.365 121.459 189.845 121.336 190.367 121.336C190.895 121.336 191.375 121.459 191.807 121.704C192.245 121.949 192.589 122.291 192.839 122.728C193.095 123.16 193.223 123.648 193.223 124.192C193.223 124.741 193.095 125.235 192.839 125.672C192.589 126.104 192.245 126.443 191.807 126.688C191.37 126.933 190.89 127.056 190.367 127.056ZM190.367 126.056C190.703 126.056 190.999 125.981 191.255 125.832C191.511 125.677 191.711 125.459 191.855 125.176C191.999 124.893 192.071 124.565 192.071 124.192C192.071 123.819 191.999 123.493 191.855 123.216C191.711 122.933 191.511 122.717 191.255 122.568C190.999 122.419 190.703 122.344 190.367 122.344C190.031 122.344 189.733 122.419 189.471 122.568C189.215 122.717 189.015 122.933 188.871 123.216C188.727 123.493 188.655 123.819 188.655 124.192C188.655 124.565 188.727 124.893 188.871 125.176C189.015 125.459 189.215 125.677 189.471 125.832C189.733 125.981 190.031 126.056 190.367 126.056ZM203.624 127H202.504L199.968 123.168V127H198.848V121.408H199.968L202.504 125.248V121.408H203.624V127ZM109.351 135.112H111.191V136H108.231V130.416H109.351V135.112ZM117.063 135.112H118.903V136H115.943V130.416H117.063V135.112ZM123.383 133.2C123.383 132.651 123.505 132.16 123.751 131.728C124.001 131.291 124.34 130.952 124.767 130.712C125.199 130.467 125.681 130.344 126.215 130.344C126.839 130.344 127.385 130.504 127.855 130.824C128.324 131.144 128.652 131.587 128.839 132.152H127.551C127.423 131.885 127.241 131.685 127.007 131.552C126.777 131.419 126.511 131.352 126.207 131.352C125.881 131.352 125.591 131.429 125.335 131.584C125.084 131.733 124.887 131.947 124.743 132.224C124.604 132.501 124.535 132.827 124.535 133.2C124.535 133.568 124.604 133.893 124.743 134.176C124.887 134.453 125.084 134.669 125.335 134.824C125.591 134.973 125.881 135.048 126.207 135.048C126.511 135.048 126.777 134.981 127.007 134.848C127.241 134.709 127.423 134.507 127.551 134.24H128.839C128.652 134.811 128.324 135.256 127.855 135.576C127.391 135.891 126.844 136.048 126.215 136.048C125.681 136.048 125.199 135.928 124.767 135.688C124.34 135.443 124.001 135.104 123.751 134.672C123.505 134.24 123.383 133.749 123.383 133.2Z" fill="url(#paint10_linear)"/>
</g>
<defs>
<radialGradient id="paint0_radial" cx="0" cy="0" r="1" gradientUnits="userSpaceOnUse" gradientTransform="translate(272 308) rotate(81.9215) scale(330.892)">
<stop stop-color="#727A8D" stop-opacity="0.38"/>
<stop offset="0.279167" stop-color="#0E0B85" stop-opacity="0"/>
</radialGradient>
<linearGradient id="paint1_linear" x1="102.036" y1="36.558" x2="102.036" y2="164.558" gradientUnits="userSpaceOnUse">
<stop stop-color="#E6EBFF"/>
<stop offset="0.753125" stop-color="#474860"/>
</linearGradient>
<linearGradient id="paint2_linear" x1="335.329" y1="133.889" x2="335.329" y2="261.889" gradientUnits="userSpaceOnUse">
<stop stop-color="#E6EBFF"/>
<stop offset="0.753125" stop-color="#474860"/>
</linearGradient>
<linearGradient id="paint3_linear" x1="165.718" y1="8.28246" x2="165.718" y2="193.154" gradientUnits="userSpaceOnUse">
<stop stop-color="#E6EBFF"/>
<stop offset="0.753125" stop-color="#474860"/>
</linearGradient>
<linearGradient id="paint4_linear" x1="223.861" y1="-53.33" x2="223.861" y2="101.334" gradientUnits="userSpaceOnUse">
<stop stop-color="#E6EBFF"/>
<stop offset="0.753125" stop-color="#474860"/>
</linearGradient>
<linearGradient id="paint5_linear" x1="223.861" y1="-53.33" x2="223.861" y2="101.334" gradientUnits="userSpaceOnUse">
<stop stop-color="#E6EBFF"/>
<stop offset="0.753125" stop-color="#474860"/>
</linearGradient>
<linearGradient id="paint6_linear" x1="165.718" y1="12.5891" x2="165.718" y2="188.847" gradientUnits="userSpaceOnUse">
<stop stop-color="#E6EBFF"/>
<stop offset="0.753125" stop-color="#474860"/>
</linearGradient>
<linearGradient id="paint7_linear" x1="358.724" y1="54.5482" x2="358.724" y2="202.006" gradientUnits="userSpaceOnUse">
<stop stop-color="#E6EBFF"/>
<stop offset="0.753125" stop-color="#474860"/>
</linearGradient>
<linearGradient id="paint8_linear" x1="358.724" y1="54.5482" x2="358.724" y2="202.006" gradientUnits="userSpaceOnUse">
<stop stop-color="#E6EBFF"/>
<stop offset="0.753125" stop-color="#474860"/>
</linearGradient>
<linearGradient id="paint9_linear" x1="157" y1="72" x2="157" y2="120" gradientUnits="userSpaceOnUse">
<stop stop-color="#E6EBFF"/>
<stop offset="0.753125" stop-color="#474860"/>
</linearGradient>
<linearGradient id="paint10_linear" x1="151" y1="120" x2="151" y2="138" gradientUnits="userSpaceOnUse">
<stop stop-color="#E6EBFF"/>
<stop offset="0.753125" stop-color="#474860"/>
</linearGradient>
<clipPath id="clip0">
<rect width="332" height="200" fill="white"/>
</clipPath>
</defs>
</svg>
