<svg width="332" height="200" viewBox="0 0 332 200" fill="none" xmlns="http://www.w3.org/2000/svg">
<g clip-path="url(#clip0)">
<rect width="332" height="200" fill="white"/>
<rect width="637" height="637" transform="translate(-153 -218)" fill="#0E0223"/>
<rect width="637" height="637" transform="translate(-153 -218)" fill="url(#paint0_radial)"/>
<g style="mix-blend-mode:luminosity" opacity="0.2">
<mask id="mask0" mask-type="alpha" maskUnits="userSpaceOnUse" x="61" y="-4" width="210" height="210">
<circle cx="165.718" cy="100.718" r="50" transform="rotate(-60.0121 165.718 100.718)" stroke="#90BFDA" stroke-width="53" stroke-linecap="round"/>
</mask>
<g mask="url(#mask0)">
<rect x="55.5363" y="36.558" width="93" height="128" transform="rotate(-60.0121 55.5363 36.558)" fill="url(#paint1_linear)"/>
</g>
</g>
<g style="mix-blend-mode:luminosity" opacity="0.4">
<mask id="mask1" mask-type="alpha" maskUnits="userSpaceOnUse" x="72" y="7" width="188" height="188">
<circle cx="165.718" cy="100.718" r="75.5" transform="rotate(104.855 165.718 100.718)" stroke="#90BFDA" stroke-width="2" stroke-linecap="round"/>
</mask>
<g mask="url(#mask1)">
<rect x="288.828" y="133.889" width="93" height="128" transform="rotate(104.855 288.828 133.889)" fill="url(#paint2_linear)"/>
</g>
</g>
<g style="mix-blend-mode:luminosity" opacity="0.5">
<mask id="mask2" mask-type="alpha" maskUnits="userSpaceOnUse" x="72" y="7" width="187" height="187">
<circle cx="165.718" cy="100.718" r="90.9357" transform="rotate(0.503265 165.718 100.718)" stroke="url(#paint3_linear)" stroke-width="3" stroke-linecap="round"/>
</mask>
<g mask="url(#mask2)">
<rect x="169.162" y="-51.8168" width="109.373" height="151.664" transform="rotate(0.503265 169.162 -51.8168)" fill="url(#paint4_linear)" stroke="url(#paint5_linear)" stroke-width="3" stroke-linecap="round"/>
</g>
</g>
<g style="mix-blend-mode:luminosity" opacity="0.4">
<mask id="mask3" mask-type="alpha" maskUnits="userSpaceOnUse" x="54" y="-11" width="224" height="224">
<circle cx="165.718" cy="100.718" r="84.1288" transform="rotate(71.4549 165.718 100.718)" stroke="url(#paint6_linear)" stroke-width="8" stroke-linecap="round"/>
</mask>
<g mask="url(#mask3)">
<rect x="302.635" y="59.6127" width="99.137" height="139.457" transform="rotate(71.4549 302.635 59.6127)" fill="url(#paint7_linear)" stroke="url(#paint8_linear)" stroke-width="8" stroke-linecap="round"/>
</g>
</g>
<path d="M104 79.496V84.92H90.032V93.512H100.736V98.84H90.032V113H83.312V79.496H104ZM111.453 83.24C110.269 83.24 109.277 82.872 108.477 82.136C107.709 81.368 107.325 80.424 107.325 79.304C107.325 78.184 107.709 77.256 108.477 76.52C109.277 75.752 110.269 75.368 111.453 75.368C112.637 75.368 113.613 75.752 114.381 76.52C115.181 77.256 115.581 78.184 115.581 79.304C115.581 80.424 115.181 81.368 114.381 82.136C113.613 82.872 112.637 83.24 111.453 83.24ZM114.765 86.408V113H108.045V86.408H114.765ZM119.676 99.608C119.676 96.92 120.204 94.536 121.26 92.456C122.348 90.376 123.82 88.776 125.676 87.656C127.532 86.536 129.596 85.976 131.868 85.976C133.596 85.976 135.244 86.36 136.812 87.128C138.38 87.864 139.628 88.856 140.556 90.104V77.48H147.372V113H140.556V109.064C139.725 110.376 138.556 111.432 137.052 112.232C135.548 113.032 133.804 113.432 131.82 113.432C129.58 113.432 127.532 112.856 125.676 111.704C123.82 110.552 122.348 108.936 121.26 106.856C120.204 104.744 119.676 102.328 119.676 99.608ZM140.604 99.704C140.604 98.072 140.284 96.68 139.645 95.528C139.004 94.344 138.14 93.448 137.052 92.84C135.964 92.2 134.797 91.88 133.549 91.88C132.3 91.88 131.148 92.184 130.092 92.792C129.036 93.4 128.172 94.296 127.5 95.48C126.86 96.632 126.54 98.008 126.54 99.608C126.54 101.208 126.86 102.616 127.5 103.832C128.172 105.016 129.036 105.928 130.092 106.568C131.18 107.208 132.332 107.528 133.549 107.528C134.797 107.528 135.964 107.224 137.052 106.616C138.14 105.976 139.004 105.08 139.645 103.928C140.284 102.744 140.604 101.336 140.604 99.704ZM178.656 99.128C178.656 100.088 178.592 100.952 178.464 101.72H159.024C159.184 103.64 159.856 105.144 161.04 106.232C162.224 107.32 163.68 107.864 165.408 107.864C167.904 107.864 169.68 106.792 170.736 104.648H177.984C177.216 107.208 175.744 109.32 173.568 110.984C171.392 112.616 168.72 113.432 165.552 113.432C162.992 113.432 160.688 112.872 158.64 111.752C156.624 110.6 155.04 108.984 153.888 106.904C152.768 104.824 152.208 102.424 152.208 99.704C152.208 96.952 152.768 94.536 153.888 92.456C155.008 90.376 156.576 88.776 158.592 87.656C160.608 86.536 162.928 85.976 165.552 85.976C168.08 85.976 170.336 86.52 172.32 87.608C174.336 88.696 175.888 90.248 176.976 92.264C178.096 94.248 178.656 96.536 178.656 99.128ZM171.696 97.208C171.664 95.48 171.04 94.104 169.824 93.08C168.608 92.024 167.12 91.496 165.36 91.496C163.696 91.496 162.288 92.008 161.136 93.032C160.016 94.024 159.328 95.416 159.072 97.208H171.696ZM190.281 77.48V113H183.561V77.48H190.281ZM200.328 83.24C199.144 83.24 198.152 82.872 197.352 82.136C196.584 81.368 196.2 80.424 196.2 79.304C196.2 78.184 196.584 77.256 197.352 76.52C198.152 75.752 199.144 75.368 200.328 75.368C201.512 75.368 202.488 75.752 203.256 76.52C204.056 77.256 204.456 78.184 204.456 79.304C204.456 80.424 204.056 81.368 203.256 82.136C202.488 82.872 201.512 83.24 200.328 83.24ZM203.64 86.408V113H196.92V86.408H203.64ZM220.455 113.432C218.279 113.432 216.327 113.048 214.599 112.28C212.871 111.48 211.495 110.408 210.471 109.064C209.479 107.72 208.935 106.232 208.839 104.6H215.607C215.735 105.624 216.231 106.472 217.095 107.144C217.991 107.816 219.095 108.152 220.407 108.152C221.687 108.152 222.679 107.896 223.383 107.384C224.119 106.872 224.487 106.216 224.487 105.416C224.487 104.552 224.039 103.912 223.143 103.496C222.279 103.048 220.887 102.568 218.967 102.056C216.983 101.576 215.351 101.08 214.071 100.568C212.823 100.056 211.735 99.272 210.807 98.216C209.911 97.16 209.463 95.736 209.463 93.944C209.463 92.472 209.879 91.128 210.711 89.912C211.575 88.696 212.791 87.736 214.359 87.032C215.959 86.328 217.831 85.976 219.976 85.976C223.143 85.976 225.671 86.776 227.559 88.376C229.448 89.944 230.488 92.072 230.679 94.76H224.247C224.151 93.704 223.703 92.872 222.903 92.264C222.135 91.624 221.095 91.304 219.783 91.304C218.567 91.304 217.623 91.528 216.951 91.976C216.311 92.424 215.991 93.048 215.991 93.848C215.991 94.744 216.439 95.432 217.335 95.912C218.231 96.36 219.623 96.824 221.511 97.304C223.431 97.784 225.015 98.28 226.263 98.792C227.511 99.304 228.583 100.104 229.479 101.192C230.407 102.248 230.887 103.656 230.919 105.416C230.919 106.952 230.487 108.328 229.624 109.544C228.791 110.76 227.575 111.72 225.976 112.424C224.407 113.096 222.567 113.432 220.455 113.432Z" fill="url(#paint9_linear)"/>
<path opacity="0.65" d="M99.504 122.416C100.091 122.416 100.605 122.531 101.048 122.76C101.496 122.989 101.84 123.317 102.08 123.744C102.325 124.165 102.448 124.656 102.448 125.216C102.448 125.776 102.325 126.267 102.08 126.688C101.84 127.104 101.496 127.427 101.048 127.656C100.605 127.885 100.091 128 99.504 128H97.552V122.416H99.504ZM99.464 127.048C100.051 127.048 100.504 126.888 100.824 126.568C101.144 126.248 101.304 125.797 101.304 125.216C101.304 124.635 101.144 124.181 100.824 123.856C100.504 123.525 100.051 123.36 99.464 123.36H98.672V127.048H99.464ZM109.166 122.416V128H108.046V122.416H109.166ZM116.961 128.056C116.572 128.056 116.22 127.989 115.905 127.856C115.596 127.723 115.35 127.531 115.169 127.28C114.988 127.029 114.894 126.733 114.889 126.392H116.089C116.105 126.621 116.185 126.803 116.329 126.936C116.478 127.069 116.681 127.136 116.937 127.136C117.198 127.136 117.404 127.075 117.553 126.952C117.702 126.824 117.777 126.659 117.777 126.456C117.777 126.291 117.726 126.155 117.625 126.048C117.524 125.941 117.396 125.859 117.241 125.8C117.092 125.736 116.884 125.667 116.617 125.592C116.254 125.485 115.958 125.381 115.729 125.28C115.505 125.173 115.31 125.016 115.145 124.808C114.985 124.595 114.905 124.312 114.905 123.96C114.905 123.629 114.988 123.341 115.153 123.096C115.318 122.851 115.55 122.664 115.849 122.536C116.148 122.403 116.489 122.336 116.873 122.336C117.449 122.336 117.916 122.477 118.273 122.76C118.636 123.037 118.836 123.427 118.873 123.928H117.641C117.63 123.736 117.548 123.579 117.393 123.456C117.244 123.328 117.044 123.264 116.793 123.264C116.574 123.264 116.398 123.32 116.265 123.432C116.137 123.544 116.073 123.707 116.073 123.92C116.073 124.069 116.121 124.195 116.217 124.296C116.318 124.392 116.441 124.472 116.585 124.536C116.734 124.595 116.942 124.664 117.209 124.744C117.572 124.851 117.868 124.957 118.097 125.064C118.326 125.171 118.524 125.331 118.689 125.544C118.854 125.757 118.937 126.037 118.937 126.384C118.937 126.683 118.86 126.96 118.705 127.216C118.55 127.472 118.324 127.677 118.025 127.832C117.726 127.981 117.372 128.056 116.961 128.056ZM128.5 122.416V123.32H127.012V128H125.892V123.32H124.404V122.416H128.5ZM136.989 128L135.757 125.824H135.229V128H134.109V122.416H136.205C136.637 122.416 137.005 122.493 137.309 122.648C137.613 122.797 137.84 123.003 137.989 123.264C138.144 123.52 138.221 123.808 138.221 124.128C138.221 124.496 138.114 124.829 137.901 125.128C137.688 125.421 137.37 125.624 136.949 125.736L138.285 128H136.989ZM135.229 124.984H136.165C136.469 124.984 136.696 124.912 136.845 124.768C136.994 124.619 137.069 124.413 137.069 124.152C137.069 123.896 136.994 123.699 136.845 123.56C136.696 123.416 136.469 123.344 136.165 123.344H135.229V124.984ZM145.146 122.416V128H144.026V122.416H145.146ZM154.213 125.136C154.527 125.195 154.786 125.352 154.989 125.608C155.191 125.864 155.293 126.157 155.293 126.488C155.293 126.787 155.218 127.051 155.069 127.28C154.925 127.504 154.714 127.68 154.437 127.808C154.159 127.936 153.831 128 153.453 128H151.045V122.416H153.349C153.727 122.416 154.053 122.477 154.325 122.6C154.602 122.723 154.81 122.893 154.949 123.112C155.093 123.331 155.165 123.579 155.165 123.856C155.165 124.181 155.077 124.453 154.901 124.672C154.73 124.891 154.501 125.045 154.213 125.136ZM152.165 124.72H153.189C153.455 124.72 153.661 124.661 153.805 124.544C153.949 124.421 154.021 124.248 154.021 124.024C154.021 123.8 153.949 123.627 153.805 123.504C153.661 123.381 153.455 123.32 153.189 123.32H152.165V124.72ZM153.293 127.088C153.565 127.088 153.775 127.024 153.925 126.896C154.079 126.768 154.157 126.587 154.157 126.352C154.157 126.112 154.077 125.925 153.917 125.792C153.757 125.653 153.541 125.584 153.269 125.584H152.165V127.088H153.293ZM162.081 122.416V125.872C162.081 126.251 162.18 126.541 162.377 126.744C162.575 126.941 162.852 127.04 163.209 127.04C163.572 127.04 163.852 126.941 164.049 126.744C164.247 126.541 164.345 126.251 164.345 125.872V122.416H165.473V125.864C165.473 126.339 165.369 126.741 165.161 127.072C164.959 127.397 164.684 127.643 164.337 127.808C163.996 127.973 163.615 128.056 163.193 128.056C162.777 128.056 162.399 127.973 162.057 127.808C161.721 127.643 161.455 127.397 161.257 127.072C161.06 126.741 160.961 126.339 160.961 125.864V122.416H162.081ZM175.147 122.416V123.32H173.659V128H172.539V123.32H171.051V122.416H175.147ZM181.877 122.416V128H180.757V122.416H181.877ZM190.367 128.056C189.845 128.056 189.365 127.933 188.927 127.688C188.49 127.443 188.143 127.104 187.887 126.672C187.631 126.235 187.503 125.741 187.503 125.192C187.503 124.648 187.631 124.16 187.887 123.728C188.143 123.291 188.49 122.949 188.927 122.704C189.365 122.459 189.845 122.336 190.367 122.336C190.895 122.336 191.375 122.459 191.807 122.704C192.245 122.949 192.589 123.291 192.839 123.728C193.095 124.16 193.223 124.648 193.223 125.192C193.223 125.741 193.095 126.235 192.839 126.672C192.589 127.104 192.245 127.443 191.807 127.688C191.37 127.933 190.89 128.056 190.367 128.056ZM190.367 127.056C190.703 127.056 190.999 126.981 191.255 126.832C191.511 126.677 191.711 126.459 191.855 126.176C191.999 125.893 192.071 125.565 192.071 125.192C192.071 124.819 191.999 124.493 191.855 124.216C191.711 123.933 191.511 123.717 191.255 123.568C190.999 123.419 190.703 123.344 190.367 123.344C190.031 123.344 189.733 123.419 189.471 123.568C189.215 123.717 189.015 123.933 188.871 124.216C188.727 124.493 188.655 124.819 188.655 125.192C188.655 125.565 188.727 125.893 188.871 126.176C189.015 126.459 189.215 126.677 189.471 126.832C189.733 126.981 190.031 127.056 190.367 127.056ZM203.624 128H202.504L199.968 124.168V128H198.848V122.408H199.968L202.504 126.248V122.408H203.624V128ZM109.351 137.112H111.191V138H108.231V132.416H109.351V137.112ZM117.263 137.112H119.103V138H116.143V132.416H117.263V137.112ZM123.783 135.2C123.783 134.651 123.905 134.16 124.151 133.728C124.401 133.291 124.74 132.952 125.167 132.712C125.599 132.467 126.081 132.344 126.615 132.344C127.239 132.344 127.785 132.504 128.255 132.824C128.724 133.144 129.052 133.587 129.239 134.152H127.951C127.823 133.885 127.641 133.685 127.407 133.552C127.177 133.419 126.911 133.352 126.607 133.352C126.281 133.352 125.991 133.429 125.735 133.584C125.484 133.733 125.287 133.947 125.143 134.224C125.004 134.501 124.935 134.827 124.935 135.2C124.935 135.568 125.004 135.893 125.143 136.176C125.287 136.453 125.484 136.669 125.735 136.824C125.991 136.973 126.281 137.048 126.607 137.048C126.911 137.048 127.177 136.981 127.407 136.848C127.641 136.709 127.823 136.507 127.951 136.24H129.239C129.052 136.811 128.724 137.256 128.255 137.576C127.791 137.891 127.244 138.048 126.615 138.048C126.081 138.048 125.599 137.928 125.167 137.688C124.74 137.443 124.401 137.104 124.151 136.672C123.905 136.24 123.783 135.749 123.783 135.2Z" fill="url(#paint10_linear)"/>
</g>
<defs>
<radialGradient id="paint0_radial" cx="0" cy="0" r="1" gradientUnits="userSpaceOnUse" gradientTransform="translate(272 308) rotate(81.9215) scale(330.892)">
<stop stop-color="#727A8D" stop-opacity="0.38"/>
<stop offset="0.279167" stop-color="#0E0B85" stop-opacity="0"/>
</radialGradient>
<linearGradient id="paint1_linear" x1="102.036" y1="36.558" x2="102.036" y2="164.558" gradientUnits="userSpaceOnUse">
<stop stop-color="#EBD7FE"/>
<stop offset="1" stop-color="#1E2175"/>
</linearGradient>
<linearGradient id="paint2_linear" x1="335.329" y1="133.889" x2="335.329" y2="261.889" gradientUnits="userSpaceOnUse">
<stop stop-color="#EBD7FE"/>
<stop offset="1" stop-color="#1E2175"/>
</linearGradient>
<linearGradient id="paint3_linear" x1="165.718" y1="8.28246" x2="165.718" y2="193.154" gradientUnits="userSpaceOnUse">
<stop stop-color="#EBD7FE"/>
<stop offset="1" stop-color="#1E2175"/>
</linearGradient>
<linearGradient id="paint4_linear" x1="223.861" y1="-53.33" x2="223.861" y2="101.334" gradientUnits="userSpaceOnUse">
<stop stop-color="#EBD7FE"/>
<stop offset="1" stop-color="#1E2175"/>
</linearGradient>
<linearGradient id="paint5_linear" x1="223.861" y1="-53.33" x2="223.861" y2="101.334" gradientUnits="userSpaceOnUse">
<stop stop-color="#EBD7FE"/>
<stop offset="1" stop-color="#1E2175"/>
</linearGradient>
<linearGradient id="paint6_linear" x1="165.718" y1="12.5891" x2="165.718" y2="188.847" gradientUnits="userSpaceOnUse">
<stop stop-color="#EBD7FE"/>
<stop offset="1" stop-color="#1E2175"/>
</linearGradient>
<linearGradient id="paint7_linear" x1="358.724" y1="54.5482" x2="358.724" y2="202.006" gradientUnits="userSpaceOnUse">
<stop stop-color="#EBD7FE"/>
<stop offset="1" stop-color="#1E2175"/>
</linearGradient>
<linearGradient id="paint8_linear" x1="358.724" y1="54.5482" x2="358.724" y2="202.006" gradientUnits="userSpaceOnUse">
<stop stop-color="#EBD7FE"/>
<stop offset="1" stop-color="#1E2175"/>
</linearGradient>
<linearGradient id="paint9_linear" x1="157" y1="72" x2="157" y2="120" gradientUnits="userSpaceOnUse">
<stop stop-color="#EBD7FE"/>
<stop offset="1" stop-color="#1E2175"/>
</linearGradient>
<linearGradient id="paint10_linear" x1="151" y1="120" x2="151" y2="140" gradientUnits="userSpaceOnUse">
<stop stop-color="#EBD7FE"/>
<stop offset="1" stop-color="#1E2175"/>
</linearGradient>
<clipPath id="clip0">
<rect width="332" height="200" fill="white"/>
</clipPath>
</defs>
</svg>
