<svg width="320" height="288" viewBox="0 0 320 288" fill="none" xmlns="http://www.w3.org/2000/svg">
<g clip-path="url(#clip0_609_377)">
<g clip-path="url(#clip1_609_377)">
<g opacity="0.3">
<mask id="mask0_609_377" style="mask-type:alpha" maskUnits="userSpaceOnUse" x="42" y="28" width="235" height="235">
<circle cx="159.76" cy="145.225" r="76.5633" transform="rotate(-60.0121 159.76 145.225)" stroke="#F8F8EC" stroke-width="81.1571" stroke-linecap="round"/>
</mask>
<g mask="url(#mask0_609_377)">
<rect x="-8.95703" y="46.9795" width="142.408" height="196.002" transform="rotate(-60.0121 -8.95703 46.9795)" fill="url(#paint0_linear_609_377)"/>
</g>
</g>
<g style="mix-blend-mode:screen" opacity="0.6">
<mask id="mask1_609_377" style="mask-type:alpha" maskUnits="userSpaceOnUse" x="42" y="28" width="235" height="235">
<circle cx="159.759" cy="145.225" r="116.568" transform="rotate(104.855 159.759 145.225)" stroke="url(#paint1_linear_609_377)" stroke-width="1.14845" stroke-linecap="round"/>
</mask>
<g mask="url(#mask1_609_377)">
<rect x="347.571" y="196.426" width="141.259" height="194.854" transform="rotate(104.855 347.571 196.426)" fill="#F8F8EC" stroke="#F8F8EC" stroke-width="1.14845" stroke-linecap="round"/>
</g>
</g>
<g style="mix-blend-mode:screen" opacity="0.7">
<mask id="mask2_609_377" style="mask-type:alpha" maskUnits="userSpaceOnUse" x="18" y="3" width="284" height="284">
<circle cx="159.758" cy="145.226" r="140.012" transform="rotate(0.503265 159.758 145.226)" stroke="url(#paint2_linear_609_377)" stroke-width="3.06253" stroke-linecap="round"/>
</mask>
<g mask="url(#mask2_609_377)">
<rect x="164.272" y="-89.1184" width="169.01" height="233.769" transform="rotate(0.503265 164.272 -89.1184)" fill="#F8F8EC" stroke="#F8F8EC" stroke-width="3.06253" stroke-linecap="round"/>
</g>
</g>
<g opacity="0.3">
<mask id="mask3_609_377" style="mask-type:alpha" maskUnits="userSpaceOnUse" x="24" y="10" width="271" height="271">
<circle cx="159.757" cy="145.225" r="128.824" transform="rotate(71.4549 159.757 145.225)" stroke="url(#paint3_linear_609_377)" stroke-width="12.2501" stroke-linecap="round"/>
</mask>
<g mask="url(#mask3_609_377)">
<rect x="369.415" y="82.2815" width="151.805" height="213.546" transform="rotate(71.4549 369.415 82.2815)" fill="#F8F8EC" stroke="#F8F8EC" stroke-width="12.2501" stroke-linecap="round"/>
</g>
</g>
<path d="M65.2484 111.946V120.252H43.8597V133.409H60.2504V141.567H43.8597V163.25H33.5696V111.946H65.2484ZM76.6611 117.68C74.8481 117.68 73.3291 117.116 72.1041 115.989C70.9281 114.813 70.3401 113.367 70.3401 111.652C70.3401 109.937 70.9281 108.516 72.1041 107.389C73.3291 106.213 74.8481 105.625 76.6611 105.625C78.4742 105.625 79.9687 106.213 81.1447 107.389C82.3697 108.516 82.9822 109.937 82.9822 111.652C82.9822 113.367 82.3697 114.813 81.1447 115.989C79.9687 117.116 78.4742 117.68 76.6611 117.68ZM81.7327 122.531V163.25H71.4426V122.531H81.7327ZM89.2533 142.743C89.2533 138.627 90.0618 134.977 91.6788 131.792C93.3449 128.607 95.5989 126.157 98.4409 124.442C101.283 122.727 104.443 121.869 107.923 121.869C110.569 121.869 113.092 122.457 115.493 123.633C117.894 124.76 119.805 126.279 121.226 128.19V108.859H131.663V163.25H121.226V157.223C119.952 159.232 118.164 160.849 115.861 162.074C113.558 163.299 110.887 163.912 107.849 163.912C104.419 163.912 101.283 163.029 98.4409 161.265C95.5989 159.501 93.3449 157.027 91.6788 153.842C90.0618 150.608 89.2533 146.908 89.2533 142.743ZM121.3 142.89C121.3 140.391 120.81 138.26 119.83 136.496C118.85 134.683 117.527 133.311 115.861 132.38C114.195 131.4 112.406 130.91 110.495 130.91C108.584 130.91 106.82 131.375 105.203 132.306C103.586 133.237 102.263 134.609 101.234 136.422C100.254 138.186 99.7639 140.293 99.7639 142.743C99.7639 145.193 100.254 147.349 101.234 149.211C102.263 151.024 103.586 152.421 105.203 153.401C106.869 154.381 108.633 154.871 110.495 154.871C112.406 154.871 114.195 154.405 115.861 153.474C117.527 152.494 118.85 151.122 119.83 149.358C120.81 147.545 121.3 145.389 121.3 142.89ZM179.566 142.008C179.566 143.478 179.468 144.801 179.272 145.977H149.504C149.749 148.917 150.778 151.22 152.591 152.886C154.404 154.552 156.634 155.385 159.28 155.385C163.102 155.385 165.822 153.744 167.439 150.461H178.537C177.361 154.381 175.107 157.615 171.775 160.163C168.443 162.662 164.352 163.912 159.501 163.912C155.58 163.912 152.052 163.054 148.916 161.339C145.829 159.575 143.404 157.1 141.64 153.915C139.925 150.73 139.067 147.055 139.067 142.89C139.067 138.676 139.925 134.977 141.64 131.792C143.355 128.607 145.756 126.157 148.843 124.442C151.93 122.727 155.482 121.869 159.501 121.869C163.372 121.869 166.826 122.702 169.864 124.368C172.951 126.034 175.328 128.411 176.994 131.498C178.709 134.536 179.566 138.039 179.566 142.008ZM168.909 139.068C168.86 136.422 167.904 134.315 166.042 132.747C164.18 131.13 161.902 130.322 159.207 130.322C156.659 130.322 154.502 131.106 152.738 132.674C151.023 134.193 149.97 136.324 149.578 139.068H168.909ZM197.367 108.859V163.25H187.077V108.859H197.367ZM212.752 117.68C210.939 117.68 209.42 117.116 208.195 115.989C207.019 114.813 206.431 113.367 206.431 111.652C206.431 109.937 207.019 108.516 208.195 107.389C209.42 106.213 210.939 105.625 212.752 105.625C214.565 105.625 216.06 106.213 217.236 107.389C218.461 108.516 219.073 109.937 219.073 111.652C219.073 113.367 218.461 114.813 217.236 115.989C216.06 117.116 214.565 117.68 212.752 117.68ZM217.824 122.531V163.25H207.534V122.531H217.824ZM243.573 163.912C240.241 163.912 237.252 163.324 234.606 162.147C231.96 160.922 229.853 159.281 228.285 157.223C226.766 155.165 225.933 152.886 225.786 150.387H236.149C236.345 151.955 237.105 153.254 238.428 154.283C239.8 155.312 241.49 155.826 243.499 155.826C245.459 155.826 246.978 155.434 248.056 154.65C249.183 153.866 249.747 152.862 249.747 151.637C249.747 150.314 249.061 149.334 247.689 148.697C246.366 148.011 244.234 147.276 241.294 146.492C238.256 145.757 235.757 144.997 233.797 144.213C231.886 143.429 230.22 142.229 228.799 140.612C227.427 138.995 226.741 136.814 226.741 134.07C226.741 131.816 227.378 129.758 228.652 127.896C229.975 126.034 231.837 124.564 234.238 123.486C236.688 122.408 239.555 121.869 242.838 121.869C247.689 121.869 251.56 123.094 254.451 125.544C257.342 127.945 258.934 131.204 259.228 135.32H249.379C249.232 133.703 248.546 132.429 247.321 131.498C246.145 130.518 244.553 130.028 242.544 130.028C240.682 130.028 239.236 130.371 238.207 131.057C237.227 131.743 236.737 132.698 236.737 133.923C236.737 135.295 237.423 136.349 238.795 137.084C240.167 137.77 242.299 138.48 245.19 139.215C248.13 139.95 250.555 140.71 252.466 141.494C254.377 142.278 256.019 143.503 257.391 145.169C258.812 146.786 259.547 148.942 259.596 151.637C259.596 153.989 258.934 156.096 257.611 157.958C256.337 159.82 254.475 161.29 252.025 162.368C249.624 163.397 246.807 163.912 243.573 163.912Z" fill="#F8F8EC"/>
<path opacity="0.85" d="M42.3922 188.584C42.3922 187.37 42.6409 186.294 43.1384 185.358C43.6505 184.421 44.3382 183.697 45.2015 183.185C46.0794 182.658 47.0525 182.395 48.1206 182.395C48.9107 182.395 49.6862 182.57 50.4471 182.921C51.2226 183.258 51.8371 183.712 52.2907 184.282V178.444H54.8148V194.686H52.2907V192.864C51.881 193.449 51.3104 193.932 50.5788 194.312C49.8618 194.693 49.0351 194.883 48.0987 194.883C47.0451 194.883 46.0794 194.62 45.2015 194.093C44.3382 193.552 43.6505 192.805 43.1384 191.854C42.6409 190.889 42.3922 189.798 42.3922 188.584ZM52.2907 188.628C52.2907 187.794 52.1152 187.07 51.764 186.455C51.4274 185.84 50.9812 185.372 50.4252 185.05C49.8691 184.728 49.2692 184.567 48.6254 184.567C47.9816 184.567 47.3817 184.728 46.8257 185.05C46.2697 185.358 45.8161 185.819 45.4649 186.433C45.1284 187.033 44.9601 187.75 44.9601 188.584C44.9601 189.418 45.1284 190.15 45.4649 190.779C45.8161 191.408 46.2697 191.891 46.8257 192.227C47.3963 192.549 47.9962 192.71 48.6254 192.71C49.2692 192.71 49.8691 192.549 50.4252 192.227C50.9812 191.905 51.4274 191.437 51.764 190.823C52.1152 190.194 52.2907 189.462 52.2907 188.628ZM62.4469 180.99C61.9933 180.99 61.6128 180.836 61.3056 180.529C60.9983 180.222 60.8447 179.841 60.8447 179.388C60.8447 178.934 60.9983 178.554 61.3056 178.246C61.6128 177.939 61.9933 177.786 62.4469 177.786C62.8858 177.786 63.2589 177.939 63.5662 178.246C63.8735 178.554 64.0271 178.934 64.0271 179.388C64.0271 179.841 63.8735 180.222 63.5662 180.529C63.2589 180.836 62.8858 180.99 62.4469 180.99ZM63.676 182.592V194.686H61.1739V182.592H63.676ZM74.4233 194.883C73.4722 194.883 72.6163 194.715 71.8554 194.378C71.1092 194.027 70.5166 193.559 70.0776 192.974C69.6386 192.374 69.4045 191.708 69.3753 190.976H71.9651C72.009 191.488 72.2505 191.92 72.6894 192.271C73.143 192.608 73.7063 192.776 74.3794 192.776C75.0818 192.776 75.6231 192.644 76.0036 192.381C76.3986 192.103 76.5962 191.752 76.5962 191.327C76.5962 190.874 76.3767 190.537 75.9377 190.318C75.5134 190.098 74.833 189.857 73.8966 189.594C72.9894 189.345 72.2505 189.103 71.6798 188.869C71.1092 188.635 70.6117 188.277 70.1873 187.794C69.7776 187.311 69.5728 186.674 69.5728 185.884C69.5728 185.241 69.763 184.655 70.1434 184.129C70.5239 183.587 71.0653 183.163 71.7676 182.856C72.4846 182.548 73.304 182.395 74.2258 182.395C75.6012 182.395 76.7059 182.746 77.5399 183.448C78.3886 184.136 78.8422 185.08 78.9007 186.279H76.3986C76.3548 185.738 76.1353 185.306 75.7402 184.984C75.3451 184.663 74.8111 184.502 74.138 184.502C73.4796 184.502 72.9747 184.626 72.6236 184.875C72.2724 185.124 72.0968 185.453 72.0968 185.862C72.0968 186.184 72.2139 186.455 72.448 186.674C72.6821 186.894 72.9674 187.07 73.304 187.201C73.6405 187.318 74.138 187.472 74.7964 187.662C75.6744 187.896 76.3913 188.138 76.9473 188.386C77.518 188.621 78.0082 188.972 78.4179 189.44C78.8276 189.908 79.0397 190.53 79.0544 191.306C79.0544 191.993 78.8641 192.608 78.4837 193.149C78.1033 193.691 77.5619 194.115 76.8596 194.422C76.1719 194.729 75.3598 194.883 74.4233 194.883ZM87.7497 184.633V191.327C87.7497 191.781 87.8522 192.11 88.057 192.315C88.2765 192.505 88.6423 192.6 89.1544 192.6H90.6908V194.686H88.7155C87.5888 194.686 86.7255 194.422 86.1256 193.895C85.5257 193.369 85.2257 192.513 85.2257 191.327V184.633H83.7991V182.592H85.2257V179.585H87.7497V182.592H90.6908V184.633H87.7497ZM98.5717 184.348C98.9375 183.733 99.4204 183.258 100.02 182.921C100.635 182.57 101.359 182.395 102.193 182.395V184.984H101.557C100.576 184.984 99.83 185.233 99.3179 185.731C98.8204 186.228 98.5717 187.092 98.5717 188.321V194.686H96.0696V182.592H98.5717V184.348ZM108.839 180.99C108.385 180.99 108.005 180.836 107.697 180.529C107.39 180.222 107.237 179.841 107.237 179.388C107.237 178.934 107.39 178.554 107.697 178.246C108.005 177.939 108.385 177.786 108.839 177.786C109.278 177.786 109.651 177.939 109.958 178.246C110.265 178.554 110.419 178.934 110.419 179.388C110.419 179.841 110.265 180.222 109.958 180.529C109.651 180.836 109.278 180.99 108.839 180.99ZM110.068 182.592V194.686H107.566V182.592H110.068ZM118.928 184.392C119.352 183.807 119.93 183.331 120.662 182.965C121.408 182.585 122.235 182.395 123.142 182.395C124.21 182.395 125.176 182.651 126.039 183.163C126.902 183.675 127.583 184.407 128.08 185.358C128.578 186.294 128.826 187.37 128.826 188.584C128.826 189.798 128.578 190.889 128.08 191.854C127.583 192.805 126.895 193.552 126.017 194.093C125.154 194.62 124.195 194.883 123.142 194.883C122.205 194.883 121.371 194.7 120.64 194.334C119.923 193.969 119.352 193.5 118.928 192.93V194.686H116.426V178.444H118.928V184.392ZM126.28 188.584C126.28 187.75 126.105 187.033 125.754 186.433C125.417 185.819 124.963 185.358 124.393 185.05C123.837 184.728 123.237 184.567 122.593 184.567C121.964 184.567 121.364 184.728 120.793 185.05C120.237 185.372 119.784 185.84 119.432 186.455C119.096 187.07 118.928 187.794 118.928 188.628C118.928 189.462 119.096 190.194 119.432 190.823C119.784 191.437 120.237 191.905 120.793 192.227C121.364 192.549 121.964 192.71 122.593 192.71C123.237 192.71 123.837 192.549 124.393 192.227C124.963 191.891 125.417 191.408 125.754 190.779C126.105 190.15 126.28 189.418 126.28 188.584ZM145.325 182.592V194.686H142.823V193.259C142.428 193.756 141.909 194.151 141.265 194.444C140.636 194.722 139.963 194.861 139.246 194.861C138.295 194.861 137.439 194.664 136.678 194.269C135.932 193.873 135.339 193.288 134.9 192.513C134.476 191.737 134.264 190.801 134.264 189.703V182.592H136.744V189.33C136.744 190.413 137.014 191.247 137.556 191.832C138.097 192.403 138.836 192.688 139.773 192.688C140.709 192.688 141.448 192.403 141.989 191.832C142.545 191.247 142.823 190.413 142.823 189.33V182.592H145.325ZM154.619 184.633V191.327C154.619 191.781 154.721 192.11 154.926 192.315C155.145 192.505 155.511 192.6 156.023 192.6H157.56V194.686H155.584C154.458 194.686 153.594 194.422 152.994 193.895C152.394 193.369 152.094 192.513 152.094 191.327V184.633H150.668V182.592H152.094V179.585H154.619V182.592H157.56V184.633H154.619ZM164.211 180.99C163.758 180.99 163.377 180.836 163.07 180.529C162.763 180.222 162.609 179.841 162.609 179.388C162.609 178.934 162.763 178.554 163.07 178.246C163.377 177.939 163.758 177.786 164.211 177.786C164.65 177.786 165.023 177.939 165.331 178.246C165.638 178.554 165.792 178.934 165.792 179.388C165.792 179.841 165.638 180.222 165.331 180.529C165.023 180.836 164.65 180.99 164.211 180.99ZM165.44 182.592V194.686H162.938V182.592H165.44ZM177.044 194.883C175.902 194.883 174.871 194.627 173.949 194.115C173.027 193.588 172.303 192.857 171.776 191.92C171.249 190.969 170.986 189.872 170.986 188.628C170.986 187.399 171.257 186.309 171.798 185.358C172.34 184.407 173.078 183.675 174.015 183.163C174.951 182.651 175.998 182.395 177.154 182.395C178.309 182.395 179.356 182.651 180.292 183.163C181.229 183.675 181.967 184.407 182.509 185.358C183.05 186.309 183.321 187.399 183.321 188.628C183.321 189.857 183.043 190.947 182.487 191.898C181.931 192.849 181.17 193.588 180.204 194.115C179.253 194.627 178.2 194.883 177.044 194.883ZM177.044 192.71C177.688 192.71 178.288 192.557 178.844 192.249C179.414 191.942 179.875 191.481 180.226 190.867C180.577 190.252 180.753 189.506 180.753 188.628C180.753 187.75 180.585 187.011 180.248 186.411C179.912 185.797 179.465 185.336 178.909 185.028C178.353 184.721 177.753 184.567 177.11 184.567C176.466 184.567 175.866 184.721 175.31 185.028C174.768 185.336 174.337 185.797 174.015 186.411C173.693 187.011 173.532 187.75 173.532 188.628C173.532 189.93 173.861 190.94 174.52 191.657C175.193 192.359 176.034 192.71 177.044 192.71ZM194.969 182.395C195.92 182.395 196.768 182.592 197.515 182.987C198.276 183.382 198.868 183.968 199.292 184.743C199.717 185.519 199.929 186.455 199.929 187.552V194.686H197.449V187.926C197.449 186.843 197.178 186.016 196.637 185.445C196.095 184.86 195.356 184.567 194.42 184.567C193.484 184.567 192.737 184.86 192.181 185.445C191.64 186.016 191.369 186.843 191.369 187.926V194.686H188.867V182.592H191.369V183.975C191.779 183.477 192.298 183.09 192.928 182.812C193.571 182.534 194.252 182.395 194.969 182.395ZM207.4 191.679L204.745 197.736H203.12L204.679 191.679H207.4ZM219.765 178.444V194.686H217.263V178.444H219.765ZM228.186 178.444V194.686H225.684V178.444H228.186ZM233.052 188.628C233.052 187.384 233.3 186.294 233.798 185.358C234.31 184.407 235.012 183.675 235.905 183.163C236.797 182.651 237.822 182.395 238.977 182.395C240.441 182.395 241.648 182.746 242.599 183.448C243.565 184.136 244.216 185.124 244.552 186.411H241.853C241.633 185.811 241.282 185.343 240.799 185.006C240.316 184.67 239.709 184.502 238.977 184.502C237.953 184.502 237.134 184.867 236.519 185.599C235.919 186.316 235.619 187.326 235.619 188.628C235.619 189.93 235.919 190.947 236.519 191.679C237.134 192.41 237.953 192.776 238.977 192.776C240.426 192.776 241.384 192.14 241.853 190.867H244.552C244.201 192.096 243.543 193.076 242.577 193.808C241.611 194.525 240.411 194.883 238.977 194.883C237.822 194.883 236.797 194.627 235.905 194.115C235.012 193.588 234.31 192.857 233.798 191.92C233.3 190.969 233.052 189.872 233.052 188.628Z" fill="#F8F8EC"/>
</g>
</g>
<defs>
<linearGradient id="paint0_linear_609_377" x1="62.2468" y1="46.9795" x2="62.2468" y2="242.982" gradientUnits="userSpaceOnUse">
<stop offset="0.556318" stop-color="#F8F8EC" stop-opacity="0"/>
<stop offset="1" stop-color="#F8F8EC" stop-opacity="0.6"/>
</linearGradient>
<linearGradient id="paint1_linear_609_377" x1="159.759" y1="28.0831" x2="159.759" y2="262.367" gradientUnits="userSpaceOnUse">
<stop stop-color="#F8F8EC" stop-opacity="0"/>
<stop offset="0.505208" stop-color="#F8F8EC"/>
</linearGradient>
<linearGradient id="paint2_linear_609_377" x1="159.758" y1="3.68213" x2="159.758" y2="286.769" gradientUnits="userSpaceOnUse">
<stop stop-color="#F8F8EC" stop-opacity="0"/>
<stop offset="1" stop-color="#F8F8EC"/>
</linearGradient>
<linearGradient id="paint3_linear_609_377" x1="159.757" y1="10.2765" x2="159.757" y2="280.174" gradientUnits="userSpaceOnUse">
<stop stop-color="#F8F8EC" stop-opacity="0"/>
<stop offset="0.46875" stop-color="#F8F8EC"/>
</linearGradient>
<clipPath id="clip0_609_377">
<rect width="320" height="288" fill="white"/>
</clipPath>
<clipPath id="clip1_609_377">
<rect width="508.38" height="306.253" fill="white" transform="translate(-94 -9)"/>
</clipPath>
</defs>
</svg>
