<svg width="244" height="244" viewBox="0 0 244 244" fill="none" xmlns="http://www.w3.org/2000/svg">
<g clip-path="url(#clip0)">
<rect width="244" height="244" fill="white"/>
<rect width="637" height="637" transform="translate(-197 -196)" fill="#090F27"/>
<rect width="637" height="637" transform="translate(-197 -196)" fill="url(#paint0_radial)"/>
<g style="mix-blend-mode:hard-light" opacity="0.9">
<mask id="mask0" mask-type="alpha" maskUnits="userSpaceOnUse" x="17" y="18" width="210" height="210">
<circle cx="121.718" cy="122.718" r="50" transform="rotate(-60.0121 121.718 122.718)" stroke="#90BFDA" stroke-width="53" stroke-linecap="round"/>
</mask>
<g mask="url(#mask0)">
<rect x="11.5363" y="58.558" width="93" height="128" transform="rotate(-60.0121 11.5363 58.558)" fill="url(#paint1_linear)"/>
</g>
</g>
<g style="mix-blend-mode:hard-light" opacity="0.9">
<mask id="mask1" mask-type="alpha" maskUnits="userSpaceOnUse" x="28" y="29" width="188" height="188">
<circle cx="121.718" cy="122.718" r="75.5" transform="rotate(104.855 121.718 122.718)" stroke="#90BFDA" stroke-width="2" stroke-linecap="round"/>
</mask>
<g mask="url(#mask1)">
<rect x="244.828" y="155.889" width="93" height="128" transform="rotate(104.855 244.828 155.889)" fill="url(#paint2_linear)"/>
</g>
</g>
<g style="mix-blend-mode:hard-light">
<mask id="mask2" mask-type="alpha" maskUnits="userSpaceOnUse" x="28" y="29" width="187" height="187">
<circle cx="121.718" cy="122.718" r="90.9357" transform="rotate(0.503265 121.718 122.718)" stroke="url(#paint3_linear)" stroke-width="3" stroke-linecap="round"/>
</mask>
<g mask="url(#mask2)">
<rect x="125.162" y="-29.8168" width="109.373" height="151.664" transform="rotate(0.503265 125.162 -29.8168)" fill="url(#paint4_linear)" stroke="url(#paint5_linear)" stroke-width="3" stroke-linecap="round"/>
</g>
</g>
<g style="mix-blend-mode:hard-light" opacity="0.9">
<mask id="mask3" mask-type="alpha" maskUnits="userSpaceOnUse" x="10" y="11" width="224" height="224">
<circle cx="121.718" cy="122.718" r="83.1288" transform="rotate(71.4549 121.718 122.718)" stroke="url(#paint6_linear)" stroke-width="10" stroke-linecap="round"/>
</mask>
<g mask="url(#mask3)">
<rect x="258.005" y="82.8788" width="97.137" height="137.457" transform="rotate(71.4549 258.005 82.8788)" fill="url(#paint7_linear)" stroke="url(#paint8_linear)" stroke-width="10" stroke-linecap="round"/>
</g>
</g>
<path d="M60.4381 101.496V106.92H46.4701V115.512H57.1741V120.84H46.4701V135H39.7501V101.496H60.4381ZM67.8913 105.24C66.7073 105.24 65.7153 104.872 64.9153 104.136C64.1473 103.368 63.7633 102.424 63.7633 101.304C63.7633 100.184 64.1473 99.256 64.9153 98.52C65.7153 97.752 66.7073 97.368 67.8913 97.368C69.0753 97.368 70.0513 97.752 70.8193 98.52C71.6193 99.256 72.0193 100.184 72.0193 101.304C72.0193 102.424 71.6193 103.368 70.8193 104.136C70.0513 104.872 69.0753 105.24 67.8913 105.24ZM71.2033 108.408V135H64.4833V108.408H71.2033ZM76.1146 121.608C76.1146 118.92 76.6426 116.536 77.6986 114.456C78.7866 112.376 80.2586 110.776 82.1146 109.656C83.9706 108.536 86.0346 107.976 88.3066 107.976C90.0346 107.976 91.6826 108.36 93.2506 109.128C94.8186 109.864 96.0666 110.856 96.9946 112.104V99.48H103.811V135H96.9946V131.064C96.1626 132.376 94.9946 133.432 93.4906 134.232C91.9866 135.032 90.2426 135.432 88.2586 135.432C86.0186 135.432 83.9706 134.856 82.1146 133.704C80.2586 132.552 78.7866 130.936 77.6986 128.856C76.6426 126.744 76.1146 124.328 76.1146 121.608ZM97.0426 121.704C97.0426 120.072 96.7226 118.68 96.0826 117.528C95.4426 116.344 94.5786 115.448 93.4906 114.84C92.4026 114.2 91.2346 113.88 89.9866 113.88C88.7386 113.88 87.5866 114.184 86.5306 114.792C85.4746 115.4 84.6106 116.296 83.9386 117.48C83.2986 118.632 82.9786 120.008 82.9786 121.608C82.9786 123.208 83.2986 124.616 83.9386 125.832C84.6106 127.016 85.4746 127.928 86.5306 128.568C87.6186 129.208 88.7706 129.528 89.9866 129.528C91.2346 129.528 92.4026 129.224 93.4906 128.616C94.5786 127.976 95.4426 127.08 96.0826 125.928C96.7226 124.744 97.0426 123.336 97.0426 121.704ZM135.094 121.128C135.094 122.088 135.03 122.952 134.902 123.72H115.462C115.622 125.64 116.294 127.144 117.478 128.232C118.662 129.32 120.118 129.864 121.846 129.864C124.342 129.864 126.118 128.792 127.174 126.648H134.422C133.654 129.208 132.182 131.32 130.006 132.984C127.83 134.616 125.158 135.432 121.99 135.432C119.43 135.432 117.126 134.872 115.078 133.752C113.062 132.6 111.478 130.984 110.326 128.904C109.206 126.824 108.646 124.424 108.646 121.704C108.646 118.952 109.206 116.536 110.326 114.456C111.446 112.376 113.014 110.776 115.03 109.656C117.046 108.536 119.366 107.976 121.99 107.976C124.518 107.976 126.774 108.52 128.758 109.608C130.774 110.696 132.326 112.248 133.414 114.264C134.534 116.248 135.094 118.536 135.094 121.128ZM128.134 119.208C128.102 117.48 127.478 116.104 126.262 115.08C125.046 114.024 123.558 113.496 121.798 113.496C120.134 113.496 118.726 114.008 117.574 115.032C116.454 116.024 115.766 117.416 115.51 119.208H128.134ZM146.719 99.48V135H139.999V99.48H146.719ZM156.766 105.24C155.582 105.24 154.59 104.872 153.79 104.136C153.022 103.368 152.638 102.424 152.638 101.304C152.638 100.184 153.022 99.256 153.79 98.52C154.59 97.752 155.582 97.368 156.766 97.368C157.95 97.368 158.926 97.752 159.694 98.52C160.494 99.256 160.894 100.184 160.894 101.304C160.894 102.424 160.494 103.368 159.694 104.136C158.926 104.872 157.95 105.24 156.766 105.24ZM160.078 108.408V135H153.358V108.408H160.078ZM176.894 135.432C174.718 135.432 172.766 135.048 171.038 134.28C169.31 133.48 167.934 132.408 166.91 131.064C165.918 129.72 165.374 128.232 165.278 126.6H172.046C172.174 127.624 172.67 128.472 173.534 129.144C174.43 129.816 175.534 130.152 176.846 130.152C178.126 130.152 179.118 129.896 179.822 129.384C180.558 128.872 180.926 128.216 180.926 127.416C180.926 126.552 180.478 125.912 179.582 125.496C178.718 125.048 177.326 124.568 175.406 124.056C173.422 123.576 171.79 123.08 170.51 122.568C169.262 122.056 168.174 121.272 167.246 120.216C166.35 119.16 165.902 117.736 165.902 115.944C165.902 114.472 166.318 113.128 167.15 111.912C168.014 110.696 169.23 109.736 170.798 109.032C172.398 108.328 174.27 107.976 176.414 107.976C179.582 107.976 182.11 108.776 183.998 110.376C185.886 111.944 186.926 114.072 187.118 116.76H180.686C180.59 115.704 180.142 114.872 179.342 114.264C178.574 113.624 177.534 113.304 176.222 113.304C175.006 113.304 174.062 113.528 173.39 113.976C172.75 114.424 172.43 115.048 172.43 115.848C172.43 116.744 172.878 117.432 173.774 117.912C174.67 118.36 176.062 118.824 177.95 119.304C179.87 119.784 181.454 120.28 182.702 120.792C183.95 121.304 185.022 122.104 185.918 123.192C186.846 124.248 187.326 125.656 187.358 127.416C187.358 128.952 186.926 130.328 186.062 131.544C185.23 132.76 184.014 133.72 182.414 134.424C180.846 135.096 179.006 135.432 176.894 135.432Z" fill="url(#paint9_linear)"/>
<path opacity="0.82" d="M55.504 145.416C56.0907 145.416 56.6053 145.531 57.048 145.76C57.496 145.989 57.84 146.317 58.08 146.744C58.3253 147.165 58.448 147.656 58.448 148.216C58.448 148.776 58.3253 149.267 58.08 149.688C57.84 150.104 57.496 150.427 57.048 150.656C56.6053 150.885 56.0907 151 55.504 151H53.552V145.416H55.504ZM55.464 150.048C56.0507 150.048 56.504 149.888 56.824 149.568C57.144 149.248 57.304 148.797 57.304 148.216C57.304 147.635 57.144 147.181 56.824 146.856C56.504 146.525 56.0507 146.36 55.464 146.36H54.672V150.048H55.464ZM65.1664 145.416V151H64.0464V145.416H65.1664ZM72.9609 151.056C72.5716 151.056 72.2196 150.989 71.9049 150.856C71.5956 150.723 71.3503 150.531 71.1689 150.28C70.9876 150.029 70.8943 149.733 70.8889 149.392H72.0889C72.1049 149.621 72.1849 149.803 72.3289 149.936C72.4783 150.069 72.6809 150.136 72.9369 150.136C73.1983 150.136 73.4036 150.075 73.5529 149.952C73.7023 149.824 73.7769 149.659 73.7769 149.456C73.7769 149.291 73.7263 149.155 73.6249 149.048C73.5236 148.941 73.3956 148.859 73.2409 148.8C73.0916 148.736 72.8836 148.667 72.6169 148.592C72.2543 148.485 71.9583 148.381 71.7289 148.28C71.5049 148.173 71.3103 148.016 71.1449 147.808C70.9849 147.595 70.9049 147.312 70.9049 146.96C70.9049 146.629 70.9876 146.341 71.1529 146.096C71.3183 145.851 71.5503 145.664 71.8489 145.536C72.1476 145.403 72.4889 145.336 72.8729 145.336C73.4489 145.336 73.9156 145.477 74.2729 145.76C74.6356 146.037 74.8356 146.427 74.8729 146.928H73.6409C73.6303 146.736 73.5476 146.579 73.3929 146.456C73.2436 146.328 73.0436 146.264 72.7929 146.264C72.5743 146.264 72.3983 146.32 72.2649 146.432C72.1369 146.544 72.0729 146.707 72.0729 146.92C72.0729 147.069 72.1209 147.195 72.2169 147.296C72.3183 147.392 72.4409 147.472 72.5849 147.536C72.7343 147.595 72.9423 147.664 73.2089 147.744C73.5716 147.851 73.8676 147.957 74.0969 148.064C74.3263 148.171 74.5236 148.331 74.6889 148.544C74.8543 148.757 74.9369 149.037 74.9369 149.384C74.9369 149.683 74.8596 149.96 74.7049 150.216C74.5503 150.472 74.3236 150.677 74.0249 150.832C73.7263 150.981 73.3716 151.056 72.9609 151.056ZM84.4679 145.416V146.32H82.9799V151H81.8599V146.32H80.3719V145.416H84.4679ZM92.9251 151L91.6931 148.824H91.1651V151H90.0451V145.416H92.1411C92.5731 145.416 92.9411 145.493 93.2451 145.648C93.5491 145.797 93.7758 146.003 93.9251 146.264C94.0798 146.52 94.1571 146.808 94.1571 147.128C94.1571 147.496 94.0505 147.829 93.8371 148.128C93.6238 148.421 93.3065 148.624 92.8851 148.736L94.2211 151H92.9251ZM91.1651 147.984H92.1011C92.4051 147.984 92.6318 147.912 92.7811 147.768C92.9305 147.619 93.0051 147.413 93.0051 147.152C93.0051 146.896 92.9305 146.699 92.7811 146.56C92.6318 146.416 92.4051 146.344 92.1011 146.344H91.1651V147.984ZM101.05 145.416V151H99.9301V145.416H101.05ZM110.085 148.136C110.399 148.195 110.658 148.352 110.861 148.608C111.063 148.864 111.165 149.157 111.165 149.488C111.165 149.787 111.09 150.051 110.941 150.28C110.797 150.504 110.586 150.68 110.309 150.808C110.031 150.936 109.703 151 109.325 151H106.917V145.416H109.221C109.599 145.416 109.925 145.477 110.197 145.6C110.474 145.723 110.682 145.893 110.821 146.112C110.965 146.331 111.037 146.579 111.037 146.856C111.037 147.181 110.949 147.453 110.773 147.672C110.602 147.891 110.373 148.045 110.085 148.136ZM108.037 147.72H109.061C109.327 147.72 109.533 147.661 109.677 147.544C109.821 147.421 109.893 147.248 109.893 147.024C109.893 146.8 109.821 146.627 109.677 146.504C109.533 146.381 109.327 146.32 109.061 146.32H108.037V147.72ZM109.165 150.088C109.437 150.088 109.647 150.024 109.797 149.896C109.951 149.768 110.029 149.587 110.029 149.352C110.029 149.112 109.949 148.925 109.789 148.792C109.629 148.653 109.413 148.584 109.141 148.584H108.037V150.088H109.165ZM117.921 145.416V148.872C117.921 149.251 118.02 149.541 118.217 149.744C118.415 149.941 118.692 150.04 119.049 150.04C119.412 150.04 119.692 149.941 119.889 149.744C120.087 149.541 120.185 149.251 120.185 148.872V145.416H121.313V148.864C121.313 149.339 121.209 149.741 121.001 150.072C120.799 150.397 120.524 150.643 120.177 150.808C119.836 150.973 119.455 151.056 119.033 151.056C118.617 151.056 118.239 150.973 117.897 150.808C117.561 150.643 117.295 150.397 117.097 150.072C116.9 149.741 116.801 149.339 116.801 148.864V145.416H117.921ZM130.955 145.416V146.32H129.467V151H128.347V146.32H126.859V145.416H130.955ZM137.653 145.416V151H136.533V145.416H137.653ZM146.111 151.056C145.589 151.056 145.109 150.933 144.671 150.688C144.234 150.443 143.887 150.104 143.631 149.672C143.375 149.235 143.247 148.741 143.247 148.192C143.247 147.648 143.375 147.16 143.631 146.728C143.887 146.291 144.234 145.949 144.671 145.704C145.109 145.459 145.589 145.336 146.111 145.336C146.639 145.336 147.119 145.459 147.551 145.704C147.989 145.949 148.333 146.291 148.583 146.728C148.839 147.16 148.967 147.648 148.967 148.192C148.967 148.741 148.839 149.235 148.583 149.672C148.333 150.104 147.989 150.443 147.551 150.688C147.114 150.933 146.634 151.056 146.111 151.056ZM146.111 150.056C146.447 150.056 146.743 149.981 146.999 149.832C147.255 149.677 147.455 149.459 147.599 149.176C147.743 148.893 147.815 148.565 147.815 148.192C147.815 147.819 147.743 147.493 147.599 147.216C147.455 146.933 147.255 146.717 146.999 146.568C146.743 146.419 146.447 146.344 146.111 146.344C145.775 146.344 145.477 146.419 145.215 146.568C144.959 146.717 144.759 146.933 144.615 147.216C144.471 147.493 144.399 147.819 144.399 148.192C144.399 148.565 144.471 148.893 144.615 149.176C144.759 149.459 144.959 149.677 145.215 149.832C145.477 149.981 145.775 150.056 146.111 150.056ZM159.336 151H158.216L155.68 147.168V151H154.56V145.408H155.68L158.216 149.248V145.408H159.336V151ZM65.3508 162.112H67.1908V163H64.2308V157.416H65.3508V162.112ZM73.0626 162.112H74.9026V163H71.9426V157.416H73.0626V162.112ZM79.3825 160.2C79.3825 159.651 79.5052 159.16 79.7505 158.728C80.0012 158.291 80.3398 157.952 80.7665 157.712C81.1985 157.467 81.6812 157.344 82.2145 157.344C82.8385 157.344 83.3852 157.504 83.8545 157.824C84.3238 158.144 84.6518 158.587 84.8385 159.152H83.5505C83.4225 158.885 83.2412 158.685 83.0065 158.552C82.7772 158.419 82.5105 158.352 82.2065 158.352C81.8812 158.352 81.5905 158.429 81.3345 158.584C81.0838 158.733 80.8865 158.947 80.7425 159.224C80.6038 159.501 80.5345 159.827 80.5345 160.2C80.5345 160.568 80.6038 160.893 80.7425 161.176C80.8865 161.453 81.0838 161.669 81.3345 161.824C81.5905 161.973 81.8812 162.048 82.2065 162.048C82.5105 162.048 82.7772 161.981 83.0065 161.848C83.2412 161.709 83.4225 161.507 83.5505 161.24H84.8385C84.6518 161.811 84.3238 162.256 83.8545 162.576C83.3905 162.891 82.8438 163.048 82.2145 163.048C81.6812 163.048 81.1985 162.928 80.7665 162.688C80.3398 162.443 80.0012 162.104 79.7505 161.672C79.5052 161.24 79.3825 160.749 79.3825 160.2Z" fill="url(#paint10_linear)"/>
</g>
<defs>
<radialGradient id="paint0_radial" cx="0" cy="0" r="1" gradientUnits="userSpaceOnUse" gradientTransform="translate(318.5 318.5) rotate(90) scale(317.108)">
<stop stop-color="#07287C"/>
<stop offset="0.398958" stop-color="#03015A"/>
</radialGradient>
<linearGradient id="paint1_linear" x1="58.0363" y1="58.558" x2="58.0363" y2="186.558" gradientUnits="userSpaceOnUse">
<stop stop-color="#E6EBFF"/>
<stop offset="0.753125" stop-color="#767791"/>
</linearGradient>
<linearGradient id="paint2_linear" x1="291.329" y1="155.889" x2="291.329" y2="283.889" gradientUnits="userSpaceOnUse">
<stop stop-color="#E6EBFF"/>
<stop offset="0.753125" stop-color="#767791"/>
</linearGradient>
<linearGradient id="paint3_linear" x1="121.718" y1="30.2825" x2="121.718" y2="215.154" gradientUnits="userSpaceOnUse">
<stop stop-color="#E6EBFF"/>
<stop offset="0.753125" stop-color="#767791"/>
</linearGradient>
<linearGradient id="paint4_linear" x1="179.861" y1="-31.33" x2="179.861" y2="123.334" gradientUnits="userSpaceOnUse">
<stop stop-color="#E6EBFF"/>
<stop offset="0.753125" stop-color="#767791"/>
</linearGradient>
<linearGradient id="paint5_linear" x1="179.861" y1="-31.33" x2="179.861" y2="123.334" gradientUnits="userSpaceOnUse">
<stop stop-color="#E6EBFF"/>
<stop offset="0.753125" stop-color="#767791"/>
</linearGradient>
<linearGradient id="paint6_linear" x1="121.718" y1="34.5891" x2="121.718" y2="210.847" gradientUnits="userSpaceOnUse">
<stop stop-color="#E6EBFF"/>
<stop offset="0.753125" stop-color="#767791"/>
</linearGradient>
<linearGradient id="paint7_linear" x1="314.724" y1="76.5482" x2="314.724" y2="224.006" gradientUnits="userSpaceOnUse">
<stop stop-color="#E6EBFF"/>
<stop offset="0.753125" stop-color="#767791"/>
</linearGradient>
<linearGradient id="paint8_linear" x1="314.724" y1="76.5482" x2="314.724" y2="224.006" gradientUnits="userSpaceOnUse">
<stop stop-color="#E6EBFF"/>
<stop offset="0.753125" stop-color="#767791"/>
</linearGradient>
<linearGradient id="paint9_linear" x1="113" y1="94" x2="113" y2="142" gradientUnits="userSpaceOnUse">
<stop stop-color="#E6EBFF"/>
<stop offset="0.753125" stop-color="#767791"/>
</linearGradient>
<linearGradient id="paint10_linear" x1="106.5" y1="142" x2="106.5" y2="166" gradientUnits="userSpaceOnUse">
<stop stop-color="#E6EBFF"/>
<stop offset="0.753125" stop-color="#767791"/>
</linearGradient>
<clipPath id="clip0">
<rect width="244" height="244" fill="white"/>
</clipPath>
</defs>
</svg>
