<svg width="244" height="244" viewBox="0 0 244 244" fill="none" xmlns="http://www.w3.org/2000/svg">
<g clip-path="url(#clip0)">
<rect width="244" height="244" fill="white"/>
<rect width="637" height="637" transform="translate(-197 -196)" fill="#090F27"/>
<rect width="637" height="637" transform="translate(-197 -196)" fill="url(#paint0_radial)"/>
<g style="mix-blend-mode:hard-light" opacity="0.9">
<mask id="mask0" mask-type="alpha" maskUnits="userSpaceOnUse" x="17" y="18" width="210" height="210">
<circle cx="121.718" cy="122.718" r="50" transform="rotate(-60.0121 121.718 122.718)" stroke="#90BFDA" stroke-width="53" stroke-linecap="round"/>
</mask>
<g mask="url(#mask0)">
<rect x="11.5363" y="58.558" width="93" height="128" transform="rotate(-60.0121 11.5363 58.558)" fill="url(#paint1_linear)"/>
</g>
</g>
<g style="mix-blend-mode:hard-light" opacity="0.9">
<mask id="mask1" mask-type="alpha" maskUnits="userSpaceOnUse" x="28" y="29" width="188" height="188">
<circle cx="121.718" cy="122.718" r="75.5" transform="rotate(104.855 121.718 122.718)" stroke="#90BFDA" stroke-width="2" stroke-linecap="round"/>
</mask>
<g mask="url(#mask1)">
<rect x="244.828" y="155.889" width="93" height="128" transform="rotate(104.855 244.828 155.889)" fill="url(#paint2_linear)"/>
</g>
</g>
<g style="mix-blend-mode:hard-light">
<mask id="mask2" mask-type="alpha" maskUnits="userSpaceOnUse" x="28" y="29" width="187" height="187">
<circle cx="121.718" cy="122.718" r="90.9357" transform="rotate(0.503265 121.718 122.718)" stroke="url(#paint3_linear)" stroke-width="3" stroke-linecap="round"/>
</mask>
<g mask="url(#mask2)">
<rect x="125.162" y="-29.8168" width="109.373" height="151.664" transform="rotate(0.503265 125.162 -29.8168)" fill="url(#paint4_linear)" stroke="url(#paint5_linear)" stroke-width="3" stroke-linecap="round"/>
</g>
</g>
<g style="mix-blend-mode:hard-light" opacity="0.9">
<mask id="mask3" mask-type="alpha" maskUnits="userSpaceOnUse" x="10" y="11" width="224" height="224">
<circle cx="121.718" cy="122.718" r="83.1288" transform="rotate(71.4549 121.718 122.718)" stroke="url(#paint6_linear)" stroke-width="10" stroke-linecap="round"/>
</mask>
<g mask="url(#mask3)">
<rect x="258.005" y="82.8788" width="97.137" height="137.457" transform="rotate(71.4549 258.005 82.8788)" fill="url(#paint7_linear)" stroke="url(#paint8_linear)" stroke-width="10" stroke-linecap="round"/>
</g>
</g>
<path d="M60.4381 101.496V106.92H46.4701V115.512H57.1741V120.84H46.4701V135H39.7501V101.496H60.4381ZM67.8913 105.24C66.7073 105.24 65.7153 104.872 64.9153 104.136C64.1473 103.368 63.7633 102.424 63.7633 101.304C63.7633 100.184 64.1473 99.256 64.9153 98.52C65.7153 97.752 66.7073 97.368 67.8913 97.368C69.0753 97.368 70.0513 97.752 70.8193 98.52C71.6193 99.256 72.0193 100.184 72.0193 101.304C72.0193 102.424 71.6193 103.368 70.8193 104.136C70.0513 104.872 69.0753 105.24 67.8913 105.24ZM71.2033 108.408V135H64.4833V108.408H71.2033ZM76.1146 121.608C76.1146 118.92 76.6426 116.536 77.6986 114.456C78.7866 112.376 80.2586 110.776 82.1146 109.656C83.9706 108.536 86.0346 107.976 88.3066 107.976C90.0346 107.976 91.6826 108.36 93.2506 109.128C94.8186 109.864 96.0666 110.856 96.9946 112.104V99.48H103.811V135H96.9946V131.064C96.1626 132.376 94.9946 133.432 93.4906 134.232C91.9866 135.032 90.2426 135.432 88.2586 135.432C86.0186 135.432 83.9706 134.856 82.1146 133.704C80.2586 132.552 78.7866 130.936 77.6986 128.856C76.6426 126.744 76.1146 124.328 76.1146 121.608ZM97.0426 121.704C97.0426 120.072 96.7226 118.68 96.0826 117.528C95.4426 116.344 94.5786 115.448 93.4906 114.84C92.4026 114.2 91.2346 113.88 89.9866 113.88C88.7386 113.88 87.5866 114.184 86.5306 114.792C85.4746 115.4 84.6106 116.296 83.9386 117.48C83.2986 118.632 82.9786 120.008 82.9786 121.608C82.9786 123.208 83.2986 124.616 83.9386 125.832C84.6106 127.016 85.4746 127.928 86.5306 128.568C87.6186 129.208 88.7706 129.528 89.9866 129.528C91.2346 129.528 92.4026 129.224 93.4906 128.616C94.5786 127.976 95.4426 127.08 96.0826 125.928C96.7226 124.744 97.0426 123.336 97.0426 121.704ZM135.094 121.128C135.094 122.088 135.03 122.952 134.902 123.72H115.462C115.622 125.64 116.294 127.144 117.478 128.232C118.662 129.32 120.118 129.864 121.846 129.864C124.342 129.864 126.118 128.792 127.174 126.648H134.422C133.654 129.208 132.182 131.32 130.006 132.984C127.83 134.616 125.158 135.432 121.99 135.432C119.43 135.432 117.126 134.872 115.078 133.752C113.062 132.6 111.478 130.984 110.326 128.904C109.206 126.824 108.646 124.424 108.646 121.704C108.646 118.952 109.206 116.536 110.326 114.456C111.446 112.376 113.014 110.776 115.03 109.656C117.046 108.536 119.366 107.976 121.99 107.976C124.518 107.976 126.774 108.52 128.758 109.608C130.774 110.696 132.326 112.248 133.414 114.264C134.534 116.248 135.094 118.536 135.094 121.128ZM128.134 119.208C128.102 117.48 127.478 116.104 126.262 115.08C125.046 114.024 123.558 113.496 121.798 113.496C120.134 113.496 118.726 114.008 117.574 115.032C116.454 116.024 115.766 117.416 115.51 119.208H128.134ZM146.719 99.48V135H139.999V99.48H146.719ZM156.766 105.24C155.582 105.24 154.59 104.872 153.79 104.136C153.022 103.368 152.638 102.424 152.638 101.304C152.638 100.184 153.022 99.256 153.79 98.52C154.59 97.752 155.582 97.368 156.766 97.368C157.95 97.368 158.926 97.752 159.694 98.52C160.494 99.256 160.894 100.184 160.894 101.304C160.894 102.424 160.494 103.368 159.694 104.136C158.926 104.872 157.95 105.24 156.766 105.24ZM160.078 108.408V135H153.358V108.408H160.078ZM176.894 135.432C174.718 135.432 172.766 135.048 171.038 134.28C169.31 133.48 167.934 132.408 166.91 131.064C165.918 129.72 165.374 128.232 165.278 126.6H172.046C172.174 127.624 172.67 128.472 173.534 129.144C174.43 129.816 175.534 130.152 176.846 130.152C178.126 130.152 179.118 129.896 179.822 129.384C180.558 128.872 180.926 128.216 180.926 127.416C180.926 126.552 180.478 125.912 179.582 125.496C178.718 125.048 177.326 124.568 175.406 124.056C173.422 123.576 171.79 123.08 170.51 122.568C169.262 122.056 168.174 121.272 167.246 120.216C166.35 119.16 165.902 117.736 165.902 115.944C165.902 114.472 166.318 113.128 167.15 111.912C168.014 110.696 169.23 109.736 170.798 109.032C172.398 108.328 174.27 107.976 176.414 107.976C179.582 107.976 182.11 108.776 183.998 110.376C185.886 111.944 186.926 114.072 187.118 116.76H180.686C180.59 115.704 180.142 114.872 179.342 114.264C178.574 113.624 177.534 113.304 176.222 113.304C175.006 113.304 174.062 113.528 173.39 113.976C172.75 114.424 172.43 115.048 172.43 115.848C172.43 116.744 172.878 117.432 173.774 117.912C174.67 118.36 176.062 118.824 177.95 119.304C179.87 119.784 181.454 120.28 182.702 120.792C183.95 121.304 185.022 122.104 185.918 123.192C186.846 124.248 187.326 125.656 187.358 127.416C187.358 128.952 186.926 130.328 186.062 131.544C185.23 132.76 184.014 133.72 182.414 134.424C180.846 135.096 179.006 135.432 176.894 135.432Z" fill="url(#paint9_linear)"/>
<path d="M55.504 151.416C56.0907 151.416 56.6053 151.531 57.048 151.76C57.496 151.989 57.84 152.317 58.08 152.744C58.3253 153.165 58.448 153.656 58.448 154.216C58.448 154.776 58.3253 155.267 58.08 155.688C57.84 156.104 57.496 156.427 57.048 156.656C56.6053 156.885 56.0907 157 55.504 157H53.552V151.416H55.504ZM55.464 156.048C56.0507 156.048 56.504 155.888 56.824 155.568C57.144 155.248 57.304 154.797 57.304 154.216C57.304 153.635 57.144 153.181 56.824 152.856C56.504 152.525 56.0507 152.36 55.464 152.36H54.672V156.048H55.464ZM65.1664 151.416V157H64.0464V151.416H65.1664ZM72.9609 157.056C72.5716 157.056 72.2196 156.989 71.9049 156.856C71.5956 156.723 71.3503 156.531 71.1689 156.28C70.9876 156.029 70.8943 155.733 70.8889 155.392H72.0889C72.1049 155.621 72.1849 155.803 72.3289 155.936C72.4783 156.069 72.6809 156.136 72.9369 156.136C73.1983 156.136 73.4036 156.075 73.5529 155.952C73.7023 155.824 73.7769 155.659 73.7769 155.456C73.7769 155.291 73.7263 155.155 73.6249 155.048C73.5236 154.941 73.3956 154.859 73.2409 154.8C73.0916 154.736 72.8836 154.667 72.6169 154.592C72.2543 154.485 71.9583 154.381 71.7289 154.28C71.5049 154.173 71.3103 154.016 71.1449 153.808C70.9849 153.595 70.9049 153.312 70.9049 152.96C70.9049 152.629 70.9876 152.341 71.1529 152.096C71.3183 151.851 71.5503 151.664 71.8489 151.536C72.1476 151.403 72.4889 151.336 72.8729 151.336C73.4489 151.336 73.9156 151.477 74.2729 151.76C74.6356 152.037 74.8356 152.427 74.8729 152.928H73.6409C73.6303 152.736 73.5476 152.579 73.3929 152.456C73.2436 152.328 73.0436 152.264 72.7929 152.264C72.5743 152.264 72.3983 152.32 72.2649 152.432C72.1369 152.544 72.0729 152.707 72.0729 152.92C72.0729 153.069 72.1209 153.195 72.2169 153.296C72.3183 153.392 72.4409 153.472 72.5849 153.536C72.7343 153.595 72.9423 153.664 73.2089 153.744C73.5716 153.851 73.8676 153.957 74.0969 154.064C74.3263 154.171 74.5236 154.331 74.6889 154.544C74.8543 154.757 74.9369 155.037 74.9369 155.384C74.9369 155.683 74.8596 155.96 74.7049 156.216C74.5503 156.472 74.3236 156.677 74.0249 156.832C73.7263 156.981 73.3716 157.056 72.9609 157.056ZM84.4679 151.416V152.32H82.9799V157H81.8599V152.32H80.3719V151.416H84.4679ZM92.9251 157L91.6931 154.824H91.1651V157H90.0451V151.416H92.1411C92.5731 151.416 92.9411 151.493 93.2451 151.648C93.5491 151.797 93.7758 152.003 93.9251 152.264C94.0798 152.52 94.1571 152.808 94.1571 153.128C94.1571 153.496 94.0505 153.829 93.8371 154.128C93.6238 154.421 93.3065 154.624 92.8851 154.736L94.2211 157H92.9251ZM91.1651 153.984H92.1011C92.4051 153.984 92.6318 153.912 92.7811 153.768C92.9305 153.619 93.0051 153.413 93.0051 153.152C93.0051 152.896 92.9305 152.699 92.7811 152.56C92.6318 152.416 92.4051 152.344 92.1011 152.344H91.1651V153.984ZM101.05 151.416V157H99.9301V151.416H101.05ZM110.085 154.136C110.399 154.195 110.658 154.352 110.861 154.608C111.063 154.864 111.165 155.157 111.165 155.488C111.165 155.787 111.09 156.051 110.941 156.28C110.797 156.504 110.586 156.68 110.309 156.808C110.031 156.936 109.703 157 109.325 157H106.917V151.416H109.221C109.599 151.416 109.925 151.477 110.197 151.6C110.474 151.723 110.682 151.893 110.821 152.112C110.965 152.331 111.037 152.579 111.037 152.856C111.037 153.181 110.949 153.453 110.773 153.672C110.602 153.891 110.373 154.045 110.085 154.136ZM108.037 153.72H109.061C109.327 153.72 109.533 153.661 109.677 153.544C109.821 153.421 109.893 153.248 109.893 153.024C109.893 152.8 109.821 152.627 109.677 152.504C109.533 152.381 109.327 152.32 109.061 152.32H108.037V153.72ZM109.165 156.088C109.437 156.088 109.647 156.024 109.797 155.896C109.951 155.768 110.029 155.587 110.029 155.352C110.029 155.112 109.949 154.925 109.789 154.792C109.629 154.653 109.413 154.584 109.141 154.584H108.037V156.088H109.165ZM117.921 151.416V154.872C117.921 155.251 118.02 155.541 118.217 155.744C118.415 155.941 118.692 156.04 119.049 156.04C119.412 156.04 119.692 155.941 119.889 155.744C120.087 155.541 120.185 155.251 120.185 154.872V151.416H121.313V154.864C121.313 155.339 121.209 155.741 121.001 156.072C120.799 156.397 120.524 156.643 120.177 156.808C119.836 156.973 119.455 157.056 119.033 157.056C118.617 157.056 118.239 156.973 117.897 156.808C117.561 156.643 117.295 156.397 117.097 156.072C116.9 155.741 116.801 155.339 116.801 154.864V151.416H117.921ZM130.955 151.416V152.32H129.467V157H128.347V152.32H126.859V151.416H130.955ZM137.653 151.416V157H136.533V151.416H137.653ZM146.111 157.056C145.589 157.056 145.109 156.933 144.671 156.688C144.234 156.443 143.887 156.104 143.631 155.672C143.375 155.235 143.247 154.741 143.247 154.192C143.247 153.648 143.375 153.16 143.631 152.728C143.887 152.291 144.234 151.949 144.671 151.704C145.109 151.459 145.589 151.336 146.111 151.336C146.639 151.336 147.119 151.459 147.551 151.704C147.989 151.949 148.333 152.291 148.583 152.728C148.839 153.16 148.967 153.648 148.967 154.192C148.967 154.741 148.839 155.235 148.583 155.672C148.333 156.104 147.989 156.443 147.551 156.688C147.114 156.933 146.634 157.056 146.111 157.056ZM146.111 156.056C146.447 156.056 146.743 155.981 146.999 155.832C147.255 155.677 147.455 155.459 147.599 155.176C147.743 154.893 147.815 154.565 147.815 154.192C147.815 153.819 147.743 153.493 147.599 153.216C147.455 152.933 147.255 152.717 146.999 152.568C146.743 152.419 146.447 152.344 146.111 152.344C145.775 152.344 145.477 152.419 145.215 152.568C144.959 152.717 144.759 152.933 144.615 153.216C144.471 153.493 144.399 153.819 144.399 154.192C144.399 154.565 144.471 154.893 144.615 155.176C144.759 155.459 144.959 155.677 145.215 155.832C145.477 155.981 145.775 156.056 146.111 156.056ZM159.336 157H158.216L155.68 153.168V157H154.56V151.408H155.68L158.216 155.248V151.408H159.336V157ZM65.3508 168.112H67.1908V169H64.2308V163.416H65.3508V168.112ZM73.0626 168.112H74.9026V169H71.9426V163.416H73.0626V168.112ZM79.3825 166.2C79.3825 165.651 79.5052 165.16 79.7505 164.728C80.0012 164.291 80.3398 163.952 80.7665 163.712C81.1985 163.467 81.6812 163.344 82.2145 163.344C82.8385 163.344 83.3852 163.504 83.8545 163.824C84.3238 164.144 84.6518 164.587 84.8385 165.152H83.5505C83.4225 164.885 83.2412 164.685 83.0065 164.552C82.7772 164.419 82.5105 164.352 82.2065 164.352C81.8812 164.352 81.5905 164.429 81.3345 164.584C81.0838 164.733 80.8865 164.947 80.7425 165.224C80.6038 165.501 80.5345 165.827 80.5345 166.2C80.5345 166.568 80.6038 166.893 80.7425 167.176C80.8865 167.453 81.0838 167.669 81.3345 167.824C81.5905 167.973 81.8812 168.048 82.2065 168.048C82.5105 168.048 82.7772 167.981 83.0065 167.848C83.2412 167.709 83.4225 167.507 83.5505 167.24H84.8385C84.6518 167.811 84.3238 168.256 83.8545 168.576C83.3905 168.891 82.8438 169.048 82.2145 169.048C81.6812 169.048 81.1985 168.928 80.7665 168.688C80.3398 168.443 80.0012 168.104 79.7505 167.672C79.5052 167.24 79.3825 166.749 79.3825 166.2Z" fill="url(#paint10_linear)"/>
</g>
<defs>
<radialGradient id="paint0_radial" cx="0" cy="0" r="1" gradientUnits="userSpaceOnUse" gradientTransform="translate(318.5 318.5) rotate(90) scale(317.108)">
<stop stop-color="#07287C"/>
<stop offset="0.398958" stop-color="#03015A"/>
</radialGradient>
<linearGradient id="paint1_linear" x1="58.0363" y1="58.558" x2="58.0363" y2="186.558" gradientUnits="userSpaceOnUse">
<stop stop-color="#E6EBFF"/>
<stop offset="0.753125" stop-color="#767791"/>
</linearGradient>
<linearGradient id="paint2_linear" x1="291.329" y1="155.889" x2="291.329" y2="283.889" gradientUnits="userSpaceOnUse">
<stop stop-color="#E6EBFF"/>
<stop offset="0.753125" stop-color="#767791"/>
</linearGradient>
<linearGradient id="paint3_linear" x1="121.718" y1="30.2825" x2="121.718" y2="215.154" gradientUnits="userSpaceOnUse">
<stop stop-color="#E6EBFF"/>
<stop offset="0.753125" stop-color="#767791"/>
</linearGradient>
<linearGradient id="paint4_linear" x1="179.861" y1="-31.33" x2="179.861" y2="123.334" gradientUnits="userSpaceOnUse">
<stop stop-color="#E6EBFF"/>
<stop offset="0.753125" stop-color="#767791"/>
</linearGradient>
<linearGradient id="paint5_linear" x1="179.861" y1="-31.33" x2="179.861" y2="123.334" gradientUnits="userSpaceOnUse">
<stop stop-color="#E6EBFF"/>
<stop offset="0.753125" stop-color="#767791"/>
</linearGradient>
<linearGradient id="paint6_linear" x1="121.718" y1="34.5891" x2="121.718" y2="210.847" gradientUnits="userSpaceOnUse">
<stop stop-color="#E6EBFF"/>
<stop offset="0.753125" stop-color="#767791"/>
</linearGradient>
<linearGradient id="paint7_linear" x1="314.724" y1="76.5482" x2="314.724" y2="224.006" gradientUnits="userSpaceOnUse">
<stop stop-color="#E6EBFF"/>
<stop offset="0.753125" stop-color="#767791"/>
</linearGradient>
<linearGradient id="paint8_linear" x1="314.724" y1="76.5482" x2="314.724" y2="224.006" gradientUnits="userSpaceOnUse">
<stop stop-color="#E6EBFF"/>
<stop offset="0.753125" stop-color="#767791"/>
</linearGradient>
<linearGradient id="paint9_linear" x1="113" y1="94" x2="113" y2="142" gradientUnits="userSpaceOnUse">
<stop stop-color="#E6EBFF"/>
<stop offset="0.753125" stop-color="#767791"/>
</linearGradient>
<linearGradient id="paint10_linear" x1="106.5" y1="148" x2="106.5" y2="172" gradientUnits="userSpaceOnUse">
<stop stop-color="#E6EBFF"/>
<stop offset="0.753125" stop-color="#767791"/>
</linearGradient>
<clipPath id="clip0">
<rect width="244" height="244" fill="white"/>
</clipPath>
</defs>
</svg>
