<svg width="332" height="200" viewBox="0 0 332 200" fill="none" xmlns="http://www.w3.org/2000/svg">
<g clip-path="url(#clip0)">
<rect width="332" height="200" fill="white"/>
<rect width="637" height="637" transform="translate(-153 -218)" fill="#020523"/>
<rect width="637" height="637" transform="translate(-153 -218)" fill="url(#paint0_radial)"/>
<g style="mix-blend-mode:luminosity" opacity="0.2">
<mask id="mask0" mask-type="alpha" maskUnits="userSpaceOnUse" x="61" y="-4" width="210" height="210">
<circle cx="165.718" cy="100.718" r="50" transform="rotate(-60.0121 165.718 100.718)" stroke="#90BFDA" stroke-width="53" stroke-linecap="round"/>
</mask>
<g mask="url(#mask0)">
<rect x="55.5362" y="36.5579" width="93" height="128" transform="rotate(-60.0121 55.5362 36.5579)" fill="url(#paint1_linear)"/>
</g>
</g>
<g style="mix-blend-mode:luminosity" opacity="0.4">
<mask id="mask1" mask-type="alpha" maskUnits="userSpaceOnUse" x="72" y="7" width="188" height="188">
<circle cx="165.718" cy="100.718" r="76.125" transform="rotate(104.855 165.718 100.718)" stroke="#90BFDA" stroke-width="0.75" stroke-linecap="round"/>
</mask>
<g mask="url(#mask1)">
<rect x="288.828" y="133.889" width="93" height="128" transform="rotate(104.855 288.828 133.889)" fill="url(#paint2_linear)"/>
</g>
</g>
<g style="mix-blend-mode:luminosity" opacity="0.5">
<mask id="mask2" mask-type="alpha" maskUnits="userSpaceOnUse" x="72" y="7" width="187" height="187">
<circle cx="165.718" cy="100.718" r="91.4357" transform="rotate(0.503265 165.718 100.718)" stroke="url(#paint3_linear)" stroke-width="2" stroke-linecap="round"/>
</mask>
<g mask="url(#mask2)">
<rect x="168.666" y="-52.3213" width="110.373" height="152.664" transform="rotate(0.503265 168.666 -52.3213)" fill="url(#paint4_linear)" stroke="url(#paint5_linear)" stroke-width="2" stroke-linecap="round"/>
</g>
</g>
<g style="mix-blend-mode:luminosity" opacity="0.2">
<mask id="mask3" mask-type="alpha" maskUnits="userSpaceOnUse" x="54" y="-11" width="224" height="224">
<circle cx="165.718" cy="100.718" r="84.1288" transform="rotate(71.4549 165.718 100.718)" stroke="url(#paint6_linear)" stroke-width="8" stroke-linecap="round"/>
</mask>
<g mask="url(#mask3)">
<rect x="302.635" y="59.6126" width="99.137" height="139.457" transform="rotate(71.4549 302.635 59.6126)" fill="url(#paint7_linear)" stroke="url(#paint8_linear)" stroke-width="8" stroke-linecap="round"/>
</g>
</g>
<path d="M104 79.496V84.92H90.032V93.512H100.736V98.84H90.032V113H83.312V79.496H104ZM111.453 83.24C110.269 83.24 109.277 82.872 108.477 82.136C107.709 81.368 107.325 80.424 107.325 79.304C107.325 78.184 107.709 77.256 108.477 76.52C109.277 75.752 110.269 75.368 111.453 75.368C112.637 75.368 113.613 75.752 114.381 76.52C115.181 77.256 115.581 78.184 115.581 79.304C115.581 80.424 115.181 81.368 114.381 82.136C113.613 82.872 112.637 83.24 111.453 83.24ZM114.765 86.408V113H108.045V86.408H114.765ZM119.676 99.608C119.676 96.92 120.204 94.536 121.26 92.456C122.348 90.376 123.82 88.776 125.676 87.656C127.532 86.536 129.596 85.976 131.868 85.976C133.596 85.976 135.244 86.36 136.812 87.128C138.38 87.864 139.628 88.856 140.556 90.104V77.48H147.372V113H140.556V109.064C139.725 110.376 138.556 111.432 137.052 112.232C135.548 113.032 133.804 113.432 131.82 113.432C129.58 113.432 127.532 112.856 125.676 111.704C123.82 110.552 122.348 108.936 121.26 106.856C120.204 104.744 119.676 102.328 119.676 99.608ZM140.604 99.704C140.604 98.072 140.284 96.68 139.645 95.528C139.004 94.344 138.14 93.448 137.052 92.84C135.964 92.2 134.797 91.88 133.549 91.88C132.3 91.88 131.148 92.184 130.092 92.792C129.036 93.4 128.172 94.296 127.5 95.48C126.86 96.632 126.54 98.008 126.54 99.608C126.54 101.208 126.86 102.616 127.5 103.832C128.172 105.016 129.036 105.928 130.092 106.568C131.18 107.208 132.332 107.528 133.549 107.528C134.797 107.528 135.964 107.224 137.052 106.616C138.14 105.976 139.004 105.08 139.645 103.928C140.284 102.744 140.604 101.336 140.604 99.704ZM178.656 99.128C178.656 100.088 178.592 100.952 178.464 101.72H159.024C159.184 103.64 159.856 105.144 161.04 106.232C162.224 107.32 163.68 107.864 165.408 107.864C167.904 107.864 169.68 106.792 170.736 104.648H177.984C177.216 107.208 175.744 109.32 173.568 110.984C171.392 112.616 168.72 113.432 165.552 113.432C162.992 113.432 160.688 112.872 158.64 111.752C156.624 110.6 155.04 108.984 153.888 106.904C152.768 104.824 152.208 102.424 152.208 99.704C152.208 96.952 152.768 94.536 153.888 92.456C155.008 90.376 156.576 88.776 158.592 87.656C160.608 86.536 162.928 85.976 165.552 85.976C168.08 85.976 170.336 86.52 172.32 87.608C174.336 88.696 175.888 90.248 176.976 92.264C178.096 94.248 178.656 96.536 178.656 99.128ZM171.696 97.208C171.664 95.48 171.04 94.104 169.824 93.08C168.608 92.024 167.12 91.496 165.36 91.496C163.696 91.496 162.288 92.008 161.136 93.032C160.016 94.024 159.328 95.416 159.072 97.208H171.696ZM190.281 77.48V113H183.561V77.48H190.281ZM200.328 83.24C199.144 83.24 198.152 82.872 197.352 82.136C196.584 81.368 196.2 80.424 196.2 79.304C196.2 78.184 196.584 77.256 197.352 76.52C198.152 75.752 199.144 75.368 200.328 75.368C201.512 75.368 202.488 75.752 203.256 76.52C204.056 77.256 204.456 78.184 204.456 79.304C204.456 80.424 204.056 81.368 203.256 82.136C202.488 82.872 201.512 83.24 200.328 83.24ZM203.64 86.408V113H196.92V86.408H203.64ZM220.455 113.432C218.279 113.432 216.327 113.048 214.599 112.28C212.871 111.48 211.495 110.408 210.471 109.064C209.479 107.72 208.935 106.232 208.839 104.6H215.607C215.735 105.624 216.231 106.472 217.095 107.144C217.991 107.816 219.095 108.152 220.407 108.152C221.687 108.152 222.679 107.896 223.383 107.384C224.119 106.872 224.487 106.216 224.487 105.416C224.487 104.552 224.039 103.912 223.143 103.496C222.279 103.048 220.887 102.568 218.967 102.056C216.983 101.576 215.351 101.08 214.071 100.568C212.823 100.056 211.735 99.272 210.807 98.216C209.911 97.16 209.463 95.736 209.463 93.944C209.463 92.472 209.879 91.128 210.711 89.912C211.575 88.696 212.791 87.736 214.359 87.032C215.959 86.328 217.831 85.976 219.976 85.976C223.143 85.976 225.671 86.776 227.559 88.376C229.448 89.944 230.488 92.072 230.679 94.76H224.247C224.151 93.704 223.703 92.872 222.903 92.264C222.135 91.624 221.095 91.304 219.783 91.304C218.567 91.304 217.623 91.528 216.951 91.976C216.311 92.424 215.991 93.048 215.991 93.848C215.991 94.744 216.439 95.432 217.335 95.912C218.231 96.36 219.623 96.824 221.511 97.304C223.431 97.784 225.015 98.28 226.263 98.792C227.511 99.304 228.583 100.104 229.479 101.192C230.407 102.248 230.887 103.656 230.919 105.416C230.919 106.952 230.487 108.328 229.624 109.544C228.791 110.76 227.575 111.72 225.976 112.424C224.407 113.096 222.567 113.432 220.455 113.432Z" fill="url(#paint9_linear)"/>
<path opacity="0.65" d="M85.264 124.768C85.264 124.32 85.352 123.923 85.528 123.576C85.7093 123.229 85.9547 122.963 86.264 122.776C86.5733 122.589 86.9173 122.496 87.296 122.496C87.584 122.496 87.8587 122.56 88.12 122.688C88.3813 122.811 88.5893 122.976 88.744 123.184V121.08H89.88V127H88.744V126.344C88.6053 126.563 88.4107 126.739 88.16 126.872C87.9093 127.005 87.6187 127.072 87.288 127.072C86.9147 127.072 86.5733 126.976 86.264 126.784C85.9547 126.592 85.7093 126.323 85.528 125.976C85.352 125.624 85.264 125.221 85.264 124.768ZM88.752 124.784C88.752 124.512 88.6987 124.28 88.592 124.088C88.4853 123.891 88.3413 123.741 88.16 123.64C87.9787 123.533 87.784 123.48 87.576 123.48C87.368 123.48 87.176 123.531 87 123.632C86.824 123.733 86.68 123.883 86.568 124.08C86.4613 124.272 86.408 124.501 86.408 124.768C86.408 125.035 86.4613 125.269 86.568 125.472C86.68 125.669 86.824 125.821 87 125.928C87.1813 126.035 87.3733 126.088 87.576 126.088C87.784 126.088 87.9787 126.037 88.16 125.936C88.3413 125.829 88.4853 125.68 88.592 125.488C88.6987 125.291 88.752 125.056 88.752 124.784ZM96.3819 122.04C96.1845 122.04 96.0192 121.979 95.8859 121.856C95.7579 121.728 95.6939 121.571 95.6939 121.384C95.6939 121.197 95.7579 121.043 95.8859 120.92C96.0192 120.792 96.1845 120.728 96.3819 120.728C96.5792 120.728 96.7419 120.792 96.8699 120.92C97.0032 121.043 97.0699 121.197 97.0699 121.384C97.0699 121.571 97.0032 121.728 96.8699 121.856C96.7419 121.979 96.5792 122.04 96.3819 122.04ZM96.9339 122.568V127H95.8139V122.568H96.9339ZM104.576 127.072C104.214 127.072 103.888 127.008 103.6 126.88C103.312 126.747 103.083 126.568 102.912 126.344C102.747 126.12 102.656 125.872 102.64 125.6H103.768C103.79 125.771 103.872 125.912 104.016 126.024C104.166 126.136 104.35 126.192 104.568 126.192C104.782 126.192 104.947 126.149 105.064 126.064C105.187 125.979 105.248 125.869 105.248 125.736C105.248 125.592 105.174 125.485 105.024 125.416C104.88 125.341 104.648 125.261 104.328 125.176C103.998 125.096 103.726 125.013 103.512 124.928C103.304 124.843 103.123 124.712 102.968 124.536C102.819 124.36 102.744 124.123 102.744 123.824C102.744 123.579 102.814 123.355 102.952 123.152C103.096 122.949 103.299 122.789 103.56 122.672C103.827 122.555 104.139 122.496 104.496 122.496C105.024 122.496 105.446 122.629 105.76 122.896C106.075 123.157 106.248 123.512 106.28 123.96H105.208C105.192 123.784 105.118 123.645 104.984 123.544C104.856 123.437 104.683 123.384 104.464 123.384C104.262 123.384 104.104 123.421 103.992 123.496C103.886 123.571 103.832 123.675 103.832 123.808C103.832 123.957 103.907 124.072 104.056 124.152C104.206 124.227 104.438 124.304 104.752 124.384C105.072 124.464 105.336 124.547 105.544 124.632C105.752 124.717 105.931 124.851 106.08 125.032C106.235 125.208 106.315 125.443 106.32 125.736C106.32 125.992 106.248 126.221 106.104 126.424C105.966 126.627 105.763 126.787 105.496 126.904C105.235 127.016 104.928 127.072 104.576 127.072ZM113.384 123.488V125.632C113.384 125.781 113.418 125.891 113.488 125.96C113.562 126.024 113.685 126.056 113.856 126.056H114.376V127H113.672C112.728 127 112.256 126.541 112.256 125.624V123.488H111.728V122.568H112.256V121.472H113.384V122.568H114.376V123.488H113.384ZM121.141 123.256C121.285 123.021 121.472 122.837 121.701 122.704C121.936 122.571 122.203 122.504 122.501 122.504V123.68H122.205C121.853 123.68 121.587 123.763 121.405 123.928C121.229 124.093 121.141 124.381 121.141 124.792V127H120.021V122.568H121.141V123.256ZM128.664 122.04C128.466 122.04 128.301 121.979 128.168 121.856C128.04 121.728 127.976 121.571 127.976 121.384C127.976 121.197 128.04 121.043 128.168 120.92C128.301 120.792 128.466 120.728 128.664 120.728C128.861 120.728 129.024 120.792 129.152 120.92C129.285 121.043 129.352 121.197 129.352 121.384C129.352 121.571 129.285 121.728 129.152 121.856C129.024 121.979 128.861 122.04 128.664 122.04ZM129.216 122.568V127H128.096V122.568H129.216ZM136.282 123.216C136.426 123.003 136.624 122.829 136.874 122.696C137.13 122.563 137.421 122.496 137.746 122.496C138.125 122.496 138.466 122.589 138.77 122.776C139.08 122.963 139.322 123.229 139.498 123.576C139.68 123.917 139.77 124.315 139.77 124.768C139.77 125.221 139.68 125.624 139.498 125.976C139.322 126.323 139.08 126.592 138.77 126.784C138.466 126.976 138.125 127.072 137.746 127.072C137.416 127.072 137.125 127.008 136.874 126.88C136.629 126.747 136.432 126.576 136.282 126.368V127H135.162V121.08H136.282V123.216ZM138.626 124.768C138.626 124.501 138.57 124.272 138.458 124.08C138.352 123.883 138.208 123.733 138.026 123.632C137.85 123.531 137.658 123.48 137.45 123.48C137.248 123.48 137.056 123.533 136.874 123.64C136.698 123.741 136.554 123.891 136.442 124.088C136.336 124.285 136.282 124.517 136.282 124.784C136.282 125.051 136.336 125.283 136.442 125.48C136.554 125.677 136.698 125.829 136.874 125.936C137.056 126.037 137.248 126.088 137.45 126.088C137.658 126.088 137.85 126.035 138.026 125.928C138.208 125.821 138.352 125.669 138.458 125.472C138.57 125.275 138.626 125.04 138.626 124.768ZM149.608 122.568V127H148.48V126.44C148.336 126.632 148.147 126.784 147.912 126.896C147.683 127.003 147.432 127.056 147.16 127.056C146.814 127.056 146.507 126.984 146.24 126.84C145.974 126.691 145.763 126.475 145.608 126.192C145.459 125.904 145.384 125.563 145.384 125.168V122.568H146.504V125.008C146.504 125.36 146.592 125.632 146.768 125.824C146.944 126.011 147.184 126.104 147.488 126.104C147.798 126.104 148.04 126.011 148.216 125.824C148.392 125.632 148.48 125.36 148.48 125.008V122.568H149.608ZM156.857 123.488V125.632C156.857 125.781 156.892 125.891 156.961 125.96C157.036 126.024 157.159 126.056 157.329 126.056H157.849V127H157.145C156.201 127 155.729 126.541 155.729 125.624V123.488H155.201V122.568H155.729V121.472H156.857V122.568H157.849V123.488H156.857ZM164.063 122.04C163.865 122.04 163.7 121.979 163.567 121.856C163.439 121.728 163.375 121.571 163.375 121.384C163.375 121.197 163.439 121.043 163.567 120.92C163.7 120.792 163.865 120.728 164.063 120.728C164.26 120.728 164.423 120.792 164.551 120.92C164.684 121.043 164.751 121.197 164.751 121.384C164.751 121.571 164.684 121.728 164.551 121.856C164.423 121.979 164.26 122.04 164.063 122.04ZM164.615 122.568V127H163.495V122.568H164.615ZM172.529 127.072C172.103 127.072 171.719 126.979 171.377 126.792C171.036 126.6 170.767 126.331 170.569 125.984C170.377 125.637 170.281 125.237 170.281 124.784C170.281 124.331 170.38 123.931 170.577 123.584C170.78 123.237 171.055 122.971 171.401 122.784C171.748 122.592 172.135 122.496 172.561 122.496C172.988 122.496 173.375 122.592 173.721 122.784C174.068 122.971 174.34 123.237 174.537 123.584C174.74 123.931 174.841 124.331 174.841 124.784C174.841 125.237 174.737 125.637 174.529 125.984C174.327 126.331 174.049 126.6 173.697 126.792C173.351 126.979 172.961 127.072 172.529 127.072ZM172.529 126.096C172.732 126.096 172.921 126.048 173.097 125.952C173.279 125.851 173.423 125.701 173.529 125.504C173.636 125.307 173.689 125.067 173.689 124.784C173.689 124.363 173.577 124.04 173.353 123.816C173.135 123.587 172.865 123.472 172.545 123.472C172.225 123.472 171.956 123.587 171.737 123.816C171.524 124.04 171.417 124.363 171.417 124.784C171.417 125.205 171.521 125.531 171.729 125.76C171.943 125.984 172.209 126.096 172.529 126.096ZM182.959 122.504C183.487 122.504 183.914 122.672 184.239 123.008C184.564 123.339 184.727 123.803 184.727 124.4V127H183.607V124.552C183.607 124.2 183.519 123.931 183.343 123.744C183.167 123.552 182.927 123.456 182.623 123.456C182.314 123.456 182.068 123.552 181.887 123.744C181.711 123.931 181.623 124.2 181.623 124.552V127H180.503V122.568H181.623V123.12C181.772 122.928 181.962 122.779 182.191 122.672C182.426 122.56 182.682 122.504 182.959 122.504ZM190.576 125.824L189.64 128.072H188.92L189.44 125.824H190.576ZM200.17 121.08V127H199.05V121.08H200.17ZM205.676 121.08V127H204.556V121.08H205.676ZM209.775 124.784C209.775 124.325 209.868 123.925 210.055 123.584C210.241 123.237 210.5 122.971 210.831 122.784C211.161 122.592 211.54 122.496 211.967 122.496C212.516 122.496 212.969 122.635 213.327 122.912C213.689 123.184 213.932 123.568 214.055 124.064H212.847C212.783 123.872 212.673 123.723 212.519 123.616C212.369 123.504 212.183 123.448 211.959 123.448C211.639 123.448 211.385 123.565 211.199 123.8C211.012 124.029 210.919 124.357 210.919 124.784C210.919 125.205 211.012 125.533 211.199 125.768C211.385 125.997 211.639 126.112 211.959 126.112C212.412 126.112 212.708 125.909 212.847 125.504H214.055C213.932 125.984 213.689 126.365 213.327 126.648C212.964 126.931 212.511 127.072 211.967 127.072C211.54 127.072 211.161 126.979 210.831 126.792C210.5 126.6 210.241 126.333 210.055 125.992C209.868 125.645 209.775 125.243 209.775 124.784Z" fill="url(#paint10_linear)"/>
</g>
<defs>
<radialGradient id="paint0_radial" cx="0" cy="0" r="1" gradientUnits="userSpaceOnUse" gradientTransform="translate(272 308) rotate(81.9215) scale(330.892)">
<stop stop-color="#727A8D" stop-opacity="0.38"/>
<stop offset="0.279167" stop-color="#0E0B85" stop-opacity="0"/>
</radialGradient>
<linearGradient id="paint1_linear" x1="102.036" y1="36.5579" x2="102.036" y2="164.558" gradientUnits="userSpaceOnUse">
<stop stop-color="#E7E7FF"/>
<stop offset="1" stop-color="#384480"/>
</linearGradient>
<linearGradient id="paint2_linear" x1="335.328" y1="133.889" x2="335.328" y2="261.889" gradientUnits="userSpaceOnUse">
<stop stop-color="#E7E7FF"/>
<stop offset="1" stop-color="#384480"/>
</linearGradient>
<linearGradient id="paint3_linear" x1="165.718" y1="8.28246" x2="165.718" y2="193.154" gradientUnits="userSpaceOnUse">
<stop stop-color="#E7E7FF"/>
<stop offset="1" stop-color="#384480"/>
</linearGradient>
<linearGradient id="paint4_linear" x1="223.861" y1="-53.3301" x2="223.861" y2="101.334" gradientUnits="userSpaceOnUse">
<stop stop-color="#E7E7FF"/>
<stop offset="1" stop-color="#384480"/>
</linearGradient>
<linearGradient id="paint5_linear" x1="223.861" y1="-53.3301" x2="223.861" y2="101.334" gradientUnits="userSpaceOnUse">
<stop stop-color="#E7E7FF"/>
<stop offset="1" stop-color="#384480"/>
</linearGradient>
<linearGradient id="paint6_linear" x1="165.718" y1="12.589" x2="165.718" y2="188.847" gradientUnits="userSpaceOnUse">
<stop stop-color="#E7E7FF"/>
<stop offset="1" stop-color="#384480"/>
</linearGradient>
<linearGradient id="paint7_linear" x1="358.724" y1="54.5481" x2="358.724" y2="202.005" gradientUnits="userSpaceOnUse">
<stop stop-color="#E7E7FF"/>
<stop offset="1" stop-color="#384480"/>
</linearGradient>
<linearGradient id="paint8_linear" x1="358.724" y1="54.5481" x2="358.724" y2="202.005" gradientUnits="userSpaceOnUse">
<stop stop-color="#E7E7FF"/>
<stop offset="1" stop-color="#384480"/>
</linearGradient>
<linearGradient id="paint9_linear" x1="157" y1="72" x2="157" y2="120" gradientUnits="userSpaceOnUse">
<stop stop-color="#E7E7FF"/>
<stop offset="1" stop-color="#384480"/>
</linearGradient>
<linearGradient id="paint10_linear" x1="150" y1="119" x2="150" y2="129" gradientUnits="userSpaceOnUse">
<stop stop-color="#E7E7FF"/>
<stop offset="1" stop-color="#384480"/>
</linearGradient>
<clipPath id="clip0">
<rect width="332" height="200" fill="white"/>
</clipPath>
</defs>
</svg>
