<svg width="200" height="200" viewBox="0 0 200 200" fill="none" xmlns="http://www.w3.org/2000/svg">
<rect width="199.436" height="199.436" fill="#1B0E38"/>
<rect width="199.436" height="199.436" fill="url(#paint0_radial)"/>
<g style="mix-blend-mode:color-dodge">
<mask id="mask0" mask-type="alpha" maskUnits="userSpaceOnUse" x="23" y="23" width="154" height="154">
<circle cx="99.7178" cy="99.7178" r="54" stroke="#90BFDA" stroke-width="45" stroke-linecap="round"/>
</mask>
<g mask="url(#mask0)">
<rect x="100.218" y="-27.7822" width="93" height="128" fill="url(#paint1_linear)"/>
</g>
</g>
<g style="mix-blend-mode:color-dodge">
<mask id="mask1" mask-type="alpha" maskUnits="userSpaceOnUse" x="23" y="23" width="154" height="154">
<circle cx="99.7179" cy="99.7179" r="54" transform="rotate(157.822 99.7179 99.7179)" stroke="#90BFDA" stroke-width="45" stroke-linecap="round"/>
</mask>
<g mask="url(#mask1)">
<rect x="147.384" y="217.974" width="93" height="128" transform="rotate(157.822 147.384 217.974)" fill="url(#paint2_linear)"/>
</g>
</g>
<g style="mix-blend-mode:color-dodge">
<mask id="mask2" mask-type="alpha" maskUnits="userSpaceOnUse" x="36" y="36" width="128" height="128">
<circle cx="99.7182" cy="99.7179" r="54" transform="rotate(129.772 99.7182 99.7179)" stroke="#90BFDA" stroke-width="18.8166" stroke-linecap="round"/>
</mask>
<g mask="url(#mask2)">
<rect x="180.679" y="167.644" width="77.0846" height="106.095" transform="rotate(129.772 180.679 167.644)" fill="url(#paint3_linear)"/>
</g>
</g>
<g style="mix-blend-mode:color-dodge">
<mask id="mask3" mask-type="alpha" maskUnits="userSpaceOnUse" x="36" y="36" width="128" height="128">
<circle cx="99.7182" cy="99.7178" r="54" transform="rotate(-59.4215 99.7182 99.7178)" stroke="#90BFDA" stroke-width="18.8166" stroke-linecap="round"/>
</mask>
<g mask="url(#mask3)">
<rect x="8.94519" y="45.5994" width="77.0846" height="106.095" transform="rotate(-59.4215 8.94519 45.5994)" fill="url(#paint4_linear)"/>
</g>
</g>
<path d="M38.4381 78.496V83.92H24.4701V92.512H35.1741V97.84H24.4701V112H17.7501V78.496H38.4381ZM45.8913 82.24C44.7073 82.24 43.7153 81.872 42.9153 81.136C42.1473 80.368 41.7633 79.424 41.7633 78.304C41.7633 77.184 42.1473 76.256 42.9153 75.52C43.7153 74.752 44.7073 74.368 45.8913 74.368C47.0753 74.368 48.0513 74.752 48.8193 75.52C49.6193 76.256 50.0193 77.184 50.0193 78.304C50.0193 79.424 49.6193 80.368 48.8193 81.136C48.0513 81.872 47.0753 82.24 45.8913 82.24ZM49.2033 85.408V112H42.4833V85.408H49.2033ZM54.1146 98.608C54.1146 95.92 54.6426 93.536 55.6986 91.456C56.7866 89.376 58.2586 87.776 60.1146 86.656C61.9706 85.536 64.0346 84.976 66.3066 84.976C68.0346 84.976 69.6826 85.36 71.2506 86.128C72.8186 86.864 74.0666 87.856 74.9946 89.104V76.48H81.8106V112H74.9946V108.064C74.1626 109.376 72.9946 110.432 71.4906 111.232C69.9866 112.032 68.2426 112.432 66.2586 112.432C64.0186 112.432 61.9706 111.856 60.1146 110.704C58.2586 109.552 56.7866 107.936 55.6986 105.856C54.6426 103.744 54.1146 101.328 54.1146 98.608ZM75.0426 98.704C75.0426 97.072 74.7226 95.68 74.0826 94.528C73.4426 93.344 72.5786 92.448 71.4906 91.84C70.4026 91.2 69.2346 90.88 67.9866 90.88C66.7386 90.88 65.5866 91.184 64.5306 91.792C63.4746 92.4 62.6106 93.296 61.9386 94.48C61.2986 95.632 60.9786 97.008 60.9786 98.608C60.9786 100.208 61.2986 101.616 61.9386 102.832C62.6106 104.016 63.4746 104.928 64.5306 105.568C65.6186 106.208 66.7706 106.528 67.9866 106.528C69.2346 106.528 70.4026 106.224 71.4906 105.616C72.5786 104.976 73.4426 104.08 74.0826 102.928C74.7226 101.744 75.0426 100.336 75.0426 98.704ZM113.094 98.128C113.094 99.088 113.03 99.952 112.902 100.72H93.4619C93.6219 102.64 94.2939 104.144 95.4779 105.232C96.6619 106.32 98.1179 106.864 99.8459 106.864C102.342 106.864 104.118 105.792 105.174 103.648H112.422C111.654 106.208 110.182 108.32 108.006 109.984C105.83 111.616 103.158 112.432 99.9899 112.432C97.4299 112.432 95.1259 111.872 93.0779 110.752C91.0619 109.6 89.4779 107.984 88.3259 105.904C87.2059 103.824 86.6459 101.424 86.6459 98.704C86.6459 95.952 87.2059 93.536 88.3259 91.456C89.4459 89.376 91.0139 87.776 93.0299 86.656C95.0459 85.536 97.3659 84.976 99.9899 84.976C102.518 84.976 104.774 85.52 106.758 86.608C108.774 87.696 110.326 89.248 111.414 91.264C112.534 93.248 113.094 95.536 113.094 98.128ZM106.134 96.208C106.102 94.48 105.478 93.104 104.262 92.08C103.046 91.024 101.558 90.496 99.7979 90.496C98.1339 90.496 96.7259 91.008 95.5739 92.032C94.4539 93.024 93.7659 94.416 93.5099 96.208H106.134ZM124.719 76.48V112H117.999V76.48H124.719ZM134.766 82.24C133.582 82.24 132.59 81.872 131.79 81.136C131.022 80.368 130.638 79.424 130.638 78.304C130.638 77.184 131.022 76.256 131.79 75.52C132.59 74.752 133.582 74.368 134.766 74.368C135.95 74.368 136.926 74.752 137.694 75.52C138.494 76.256 138.894 77.184 138.894 78.304C138.894 79.424 138.494 80.368 137.694 81.136C136.926 81.872 135.95 82.24 134.766 82.24ZM138.078 85.408V112H131.358V85.408H138.078ZM154.894 112.432C152.718 112.432 150.766 112.048 149.038 111.28C147.31 110.48 145.934 109.408 144.91 108.064C143.918 106.72 143.374 105.232 143.278 103.6H150.046C150.174 104.624 150.67 105.472 151.534 106.144C152.43 106.816 153.534 107.152 154.846 107.152C156.126 107.152 157.118 106.896 157.822 106.384C158.558 105.872 158.926 105.216 158.926 104.416C158.926 103.552 158.478 102.912 157.582 102.496C156.718 102.048 155.326 101.568 153.406 101.056C151.422 100.576 149.79 100.08 148.51 99.568C147.262 99.056 146.174 98.272 145.246 97.216C144.35 96.16 143.902 94.736 143.902 92.944C143.902 91.472 144.318 90.128 145.15 88.912C146.014 87.696 147.23 86.736 148.798 86.032C150.398 85.328 152.27 84.976 154.414 84.976C157.582 84.976 160.11 85.776 161.998 87.376C163.886 88.944 164.926 91.072 165.118 93.76H158.686C158.59 92.704 158.142 91.872 157.342 91.264C156.574 90.624 155.534 90.304 154.222 90.304C153.006 90.304 152.062 90.528 151.39 90.976C150.75 91.424 150.43 92.048 150.43 92.848C150.43 93.744 150.878 94.432 151.774 94.912C152.67 95.36 154.062 95.824 155.95 96.304C157.87 96.784 159.454 97.28 160.702 97.792C161.95 98.304 163.022 99.104 163.918 100.192C164.846 101.248 165.326 102.656 165.358 104.416C165.358 105.952 164.926 107.328 164.062 108.544C163.23 109.76 162.014 110.72 160.414 111.424C158.846 112.096 157.006 112.432 154.894 112.432Z" fill="#4A12E9"/>
<path d="M38.4381 78.496V83.92H24.4701V92.512H35.1741V97.84H24.4701V112H17.7501V78.496H38.4381ZM45.8913 82.24C44.7073 82.24 43.7153 81.872 42.9153 81.136C42.1473 80.368 41.7633 79.424 41.7633 78.304C41.7633 77.184 42.1473 76.256 42.9153 75.52C43.7153 74.752 44.7073 74.368 45.8913 74.368C47.0753 74.368 48.0513 74.752 48.8193 75.52C49.6193 76.256 50.0193 77.184 50.0193 78.304C50.0193 79.424 49.6193 80.368 48.8193 81.136C48.0513 81.872 47.0753 82.24 45.8913 82.24ZM49.2033 85.408V112H42.4833V85.408H49.2033ZM54.1146 98.608C54.1146 95.92 54.6426 93.536 55.6986 91.456C56.7866 89.376 58.2586 87.776 60.1146 86.656C61.9706 85.536 64.0346 84.976 66.3066 84.976C68.0346 84.976 69.6826 85.36 71.2506 86.128C72.8186 86.864 74.0666 87.856 74.9946 89.104V76.48H81.8106V112H74.9946V108.064C74.1626 109.376 72.9946 110.432 71.4906 111.232C69.9866 112.032 68.2426 112.432 66.2586 112.432C64.0186 112.432 61.9706 111.856 60.1146 110.704C58.2586 109.552 56.7866 107.936 55.6986 105.856C54.6426 103.744 54.1146 101.328 54.1146 98.608ZM75.0426 98.704C75.0426 97.072 74.7226 95.68 74.0826 94.528C73.4426 93.344 72.5786 92.448 71.4906 91.84C70.4026 91.2 69.2346 90.88 67.9866 90.88C66.7386 90.88 65.5866 91.184 64.5306 91.792C63.4746 92.4 62.6106 93.296 61.9386 94.48C61.2986 95.632 60.9786 97.008 60.9786 98.608C60.9786 100.208 61.2986 101.616 61.9386 102.832C62.6106 104.016 63.4746 104.928 64.5306 105.568C65.6186 106.208 66.7706 106.528 67.9866 106.528C69.2346 106.528 70.4026 106.224 71.4906 105.616C72.5786 104.976 73.4426 104.08 74.0826 102.928C74.7226 101.744 75.0426 100.336 75.0426 98.704ZM113.094 98.128C113.094 99.088 113.03 99.952 112.902 100.72H93.4619C93.6219 102.64 94.2939 104.144 95.4779 105.232C96.6619 106.32 98.1179 106.864 99.8459 106.864C102.342 106.864 104.118 105.792 105.174 103.648H112.422C111.654 106.208 110.182 108.32 108.006 109.984C105.83 111.616 103.158 112.432 99.9899 112.432C97.4299 112.432 95.1259 111.872 93.0779 110.752C91.0619 109.6 89.4779 107.984 88.3259 105.904C87.2059 103.824 86.6459 101.424 86.6459 98.704C86.6459 95.952 87.2059 93.536 88.3259 91.456C89.4459 89.376 91.0139 87.776 93.0299 86.656C95.0459 85.536 97.3659 84.976 99.9899 84.976C102.518 84.976 104.774 85.52 106.758 86.608C108.774 87.696 110.326 89.248 111.414 91.264C112.534 93.248 113.094 95.536 113.094 98.128ZM106.134 96.208C106.102 94.48 105.478 93.104 104.262 92.08C103.046 91.024 101.558 90.496 99.7979 90.496C98.1339 90.496 96.7259 91.008 95.5739 92.032C94.4539 93.024 93.7659 94.416 93.5099 96.208H106.134ZM124.719 76.48V112H117.999V76.48H124.719ZM134.766 82.24C133.582 82.24 132.59 81.872 131.79 81.136C131.022 80.368 130.638 79.424 130.638 78.304C130.638 77.184 131.022 76.256 131.79 75.52C132.59 74.752 133.582 74.368 134.766 74.368C135.95 74.368 136.926 74.752 137.694 75.52C138.494 76.256 138.894 77.184 138.894 78.304C138.894 79.424 138.494 80.368 137.694 81.136C136.926 81.872 135.95 82.24 134.766 82.24ZM138.078 85.408V112H131.358V85.408H138.078ZM154.894 112.432C152.718 112.432 150.766 112.048 149.038 111.28C147.31 110.48 145.934 109.408 144.91 108.064C143.918 106.72 143.374 105.232 143.278 103.6H150.046C150.174 104.624 150.67 105.472 151.534 106.144C152.43 106.816 153.534 107.152 154.846 107.152C156.126 107.152 157.118 106.896 157.822 106.384C158.558 105.872 158.926 105.216 158.926 104.416C158.926 103.552 158.478 102.912 157.582 102.496C156.718 102.048 155.326 101.568 153.406 101.056C151.422 100.576 149.79 100.08 148.51 99.568C147.262 99.056 146.174 98.272 145.246 97.216C144.35 96.16 143.902 94.736 143.902 92.944C143.902 91.472 144.318 90.128 145.15 88.912C146.014 87.696 147.23 86.736 148.798 86.032C150.398 85.328 152.27 84.976 154.414 84.976C157.582 84.976 160.11 85.776 161.998 87.376C163.886 88.944 164.926 91.072 165.118 93.76H158.686C158.59 92.704 158.142 91.872 157.342 91.264C156.574 90.624 155.534 90.304 154.222 90.304C153.006 90.304 152.062 90.528 151.39 90.976C150.75 91.424 150.43 92.048 150.43 92.848C150.43 93.744 150.878 94.432 151.774 94.912C152.67 95.36 154.062 95.824 155.95 96.304C157.87 96.784 159.454 97.28 160.702 97.792C161.95 98.304 163.022 99.104 163.918 100.192C164.846 101.248 165.326 102.656 165.358 104.416C165.358 105.952 164.926 107.328 164.062 108.544C163.23 109.76 162.014 110.72 160.414 111.424C158.846 112.096 157.006 112.432 154.894 112.432Z" fill="url(#paint5_radial)"/>
<g style="mix-blend-mode:hard-light" opacity="0.86">
<path d="M44.925 119.682C45.591 119.682 46.173 119.814 46.671 120.078C47.169 120.342 47.553 120.714 47.823 121.194C48.099 121.668 48.237 122.217 48.237 122.841C48.237 123.459 48.099 124.008 47.823 124.488C47.553 124.968 47.166 125.34 46.662 125.604C46.164 125.868 45.585 126 44.925 126H42.558V119.682H44.925ZM44.826 124.668C45.408 124.668 45.861 124.509 46.185 124.191C46.509 123.873 46.671 123.423 46.671 122.841C46.671 122.259 46.509 121.806 46.185 121.482C45.861 121.158 45.408 120.996 44.826 120.996H44.097V124.668H44.826ZM54.6411 119.682V126H53.1021V119.682H54.6411ZM62.0474 126.063C61.5854 126.063 61.1714 125.988 60.8054 125.838C60.4394 125.688 60.1454 125.466 59.9234 125.172C59.7074 124.878 59.5934 124.524 59.5814 124.11H61.2194C61.2434 124.344 61.3244 124.524 61.4624 124.65C61.6004 124.77 61.7804 124.83 62.0024 124.83C62.2304 124.83 62.4104 124.779 62.5424 124.677C62.6744 124.569 62.7404 124.422 62.7404 124.236C62.7404 124.08 62.6864 123.951 62.5784 123.849C62.4764 123.747 62.3474 123.663 62.1914 123.597C62.0414 123.531 61.8254 123.456 61.5434 123.372C61.1354 123.246 60.8024 123.12 60.5444 122.994C60.2864 122.868 60.0644 122.682 59.8784 122.436C59.6924 122.19 59.5994 121.869 59.5994 121.473C59.5994 120.885 59.8124 120.426 60.2384 120.096C60.6644 119.76 61.2194 119.592 61.9034 119.592C62.5994 119.592 63.1604 119.76 63.5864 120.096C64.0124 120.426 64.2404 120.888 64.2704 121.482H62.6054C62.5934 121.278 62.5184 121.119 62.3804 121.005C62.2424 120.885 62.0654 120.825 61.8494 120.825C61.6634 120.825 61.5134 120.876 61.3994 120.978C61.2854 121.074 61.2284 121.215 61.2284 121.401C61.2284 121.605 61.3244 121.764 61.5164 121.878C61.7084 121.992 62.0084 122.115 62.4164 122.247C62.8244 122.385 63.1544 122.517 63.4064 122.643C63.6644 122.769 63.8864 122.952 64.0724 123.192C64.2584 123.432 64.3514 123.741 64.3514 124.119C64.3514 124.479 64.2584 124.806 64.0724 125.1C63.8924 125.394 63.6284 125.628 63.2804 125.802C62.9324 125.976 62.5214 126.063 62.0474 126.063ZM73.8485 119.682V120.915H72.1745V126H70.6355V120.915H68.9615V119.682H73.8485ZM81.8479 126L80.5339 123.615H80.1649V126H78.6259V119.682H81.2089C81.7069 119.682 82.1299 119.769 82.4779 119.943C82.8319 120.117 83.0959 120.357 83.2699 120.663C83.4439 120.963 83.5309 121.299 83.5309 121.671C83.5309 122.091 83.4109 122.466 83.1709 122.796C82.9369 123.126 82.5889 123.36 82.1269 123.498L83.5849 126H81.8479ZM80.1649 122.526H81.1189C81.4009 122.526 81.6109 122.457 81.7489 122.319C81.8929 122.181 81.9649 121.986 81.9649 121.734C81.9649 121.494 81.8929 121.305 81.7489 121.167C81.6109 121.029 81.4009 120.96 81.1189 120.96H80.1649V122.526ZM90.0409 119.682V126H88.5019V119.682H90.0409ZM98.9862 122.76C99.3522 122.838 99.6462 123.021 99.8682 123.309C100.09 123.591 100.201 123.915 100.201 124.281C100.201 124.809 100.015 125.229 99.6432 125.541C99.2772 125.847 98.7642 126 98.1042 126H95.1612V119.682H98.0052C98.6472 119.682 99.1482 119.829 99.5082 120.123C99.8742 120.417 100.057 120.816 100.057 121.32C100.057 121.692 99.9582 122.001 99.7602 122.247C99.5682 122.493 99.3102 122.664 98.9862 122.76ZM96.7002 122.238H97.7082C97.9602 122.238 98.1522 122.184 98.2842 122.076C98.4222 121.962 98.4912 121.797 98.4912 121.581C98.4912 121.365 98.4222 121.2 98.2842 121.086C98.1522 120.972 97.9602 120.915 97.7082 120.915H96.7002V122.238ZM97.8342 124.758C98.0922 124.758 98.2902 124.701 98.4282 124.587C98.5722 124.467 98.6442 124.296 98.6442 124.074C98.6442 123.852 98.5692 123.678 98.4192 123.552C98.2752 123.426 98.0742 123.363 97.8162 123.363H96.7002V124.758H97.8342ZM106.611 119.682V123.462C106.611 123.84 106.704 124.131 106.89 124.335C107.076 124.539 107.349 124.641 107.709 124.641C108.069 124.641 108.345 124.539 108.537 124.335C108.729 124.131 108.825 123.84 108.825 123.462V119.682H110.364V123.453C110.364 124.017 110.244 124.494 110.004 124.884C109.764 125.274 109.44 125.568 109.032 125.766C108.63 125.964 108.18 126.063 107.682 126.063C107.184 126.063 106.737 125.967 106.341 125.775C105.951 125.577 105.642 125.283 105.414 124.893C105.186 124.497 105.072 124.017 105.072 123.453V119.682H106.611ZM119.995 119.682V120.915H118.321V126H116.782V120.915H115.108V119.682H119.995ZM126.311 119.682V126H124.772V119.682H126.311ZM134.419 126.063C133.825 126.063 133.279 125.925 132.781 125.649C132.289 125.373 131.896 124.989 131.602 124.497C131.314 123.999 131.17 123.441 131.17 122.823C131.17 122.205 131.314 121.65 131.602 121.158C131.896 120.666 132.289 120.282 132.781 120.006C133.279 119.73 133.825 119.592 134.419 119.592C135.013 119.592 135.556 119.73 136.048 120.006C136.546 120.282 136.936 120.666 137.218 121.158C137.506 121.65 137.65 122.205 137.65 122.823C137.65 123.441 137.506 123.999 137.218 124.497C136.93 124.989 136.54 125.373 136.048 125.649C135.556 125.925 135.013 126.063 134.419 126.063ZM134.419 124.659C134.923 124.659 135.325 124.491 135.625 124.155C135.931 123.819 136.084 123.375 136.084 122.823C136.084 122.265 135.931 121.821 135.625 121.491C135.325 121.155 134.923 120.987 134.419 120.987C133.909 120.987 133.501 121.152 133.195 121.482C132.895 121.812 132.745 122.259 132.745 122.823C132.745 123.381 132.895 123.828 133.195 124.164C133.501 124.494 133.909 124.659 134.419 124.659ZM148.163 126H146.624L144.05 122.103V126H142.511V119.682H144.05L146.624 123.597V119.682H148.163V126ZM152.915 124.578L151.916 127.161H150.935L151.457 124.578H152.915ZM159.494 124.812H161.51V126H157.955V119.682H159.494V124.812ZM165.493 124.812H167.509V126H163.954V119.682H165.493V124.812ZM169.557 122.832C169.557 122.208 169.692 121.653 169.962 121.167C170.232 120.675 170.607 120.294 171.087 120.024C171.573 119.748 172.122 119.61 172.734 119.61C173.484 119.61 174.126 119.808 174.66 120.204C175.194 120.6 175.551 121.14 175.731 121.824H174.039C173.913 121.56 173.733 121.359 173.499 121.221C173.271 121.083 173.01 121.014 172.716 121.014C172.242 121.014 171.858 121.179 171.564 121.509C171.27 121.839 171.123 122.28 171.123 122.832C171.123 123.384 171.27 123.825 171.564 124.155C171.858 124.485 172.242 124.65 172.716 124.65C173.01 124.65 173.271 124.581 173.499 124.443C173.733 124.305 173.913 124.104 174.039 123.84H175.731C175.551 124.524 175.194 125.064 174.66 125.46C174.126 125.85 173.484 126.045 172.734 126.045C172.122 126.045 171.573 125.91 171.087 125.64C170.607 125.364 170.232 124.983 169.962 124.497C169.692 124.011 169.557 123.456 169.557 122.832Z" fill="#D3C4FF"/>
<path d="M44.925 119.682C45.591 119.682 46.173 119.814 46.671 120.078C47.169 120.342 47.553 120.714 47.823 121.194C48.099 121.668 48.237 122.217 48.237 122.841C48.237 123.459 48.099 124.008 47.823 124.488C47.553 124.968 47.166 125.34 46.662 125.604C46.164 125.868 45.585 126 44.925 126H42.558V119.682H44.925ZM44.826 124.668C45.408 124.668 45.861 124.509 46.185 124.191C46.509 123.873 46.671 123.423 46.671 122.841C46.671 122.259 46.509 121.806 46.185 121.482C45.861 121.158 45.408 120.996 44.826 120.996H44.097V124.668H44.826ZM54.6411 119.682V126H53.1021V119.682H54.6411ZM62.0474 126.063C61.5854 126.063 61.1714 125.988 60.8054 125.838C60.4394 125.688 60.1454 125.466 59.9234 125.172C59.7074 124.878 59.5934 124.524 59.5814 124.11H61.2194C61.2434 124.344 61.3244 124.524 61.4624 124.65C61.6004 124.77 61.7804 124.83 62.0024 124.83C62.2304 124.83 62.4104 124.779 62.5424 124.677C62.6744 124.569 62.7404 124.422 62.7404 124.236C62.7404 124.08 62.6864 123.951 62.5784 123.849C62.4764 123.747 62.3474 123.663 62.1914 123.597C62.0414 123.531 61.8254 123.456 61.5434 123.372C61.1354 123.246 60.8024 123.12 60.5444 122.994C60.2864 122.868 60.0644 122.682 59.8784 122.436C59.6924 122.19 59.5994 121.869 59.5994 121.473C59.5994 120.885 59.8124 120.426 60.2384 120.096C60.6644 119.76 61.2194 119.592 61.9034 119.592C62.5994 119.592 63.1604 119.76 63.5864 120.096C64.0124 120.426 64.2404 120.888 64.2704 121.482H62.6054C62.5934 121.278 62.5184 121.119 62.3804 121.005C62.2424 120.885 62.0654 120.825 61.8494 120.825C61.6634 120.825 61.5134 120.876 61.3994 120.978C61.2854 121.074 61.2284 121.215 61.2284 121.401C61.2284 121.605 61.3244 121.764 61.5164 121.878C61.7084 121.992 62.0084 122.115 62.4164 122.247C62.8244 122.385 63.1544 122.517 63.4064 122.643C63.6644 122.769 63.8864 122.952 64.0724 123.192C64.2584 123.432 64.3514 123.741 64.3514 124.119C64.3514 124.479 64.2584 124.806 64.0724 125.1C63.8924 125.394 63.6284 125.628 63.2804 125.802C62.9324 125.976 62.5214 126.063 62.0474 126.063ZM73.8485 119.682V120.915H72.1745V126H70.6355V120.915H68.9615V119.682H73.8485ZM81.8479 126L80.5339 123.615H80.1649V126H78.6259V119.682H81.2089C81.7069 119.682 82.1299 119.769 82.4779 119.943C82.8319 120.117 83.0959 120.357 83.2699 120.663C83.4439 120.963 83.5309 121.299 83.5309 121.671C83.5309 122.091 83.4109 122.466 83.1709 122.796C82.9369 123.126 82.5889 123.36 82.1269 123.498L83.5849 126H81.8479ZM80.1649 122.526H81.1189C81.4009 122.526 81.6109 122.457 81.7489 122.319C81.8929 122.181 81.9649 121.986 81.9649 121.734C81.9649 121.494 81.8929 121.305 81.7489 121.167C81.6109 121.029 81.4009 120.96 81.1189 120.96H80.1649V122.526ZM90.0409 119.682V126H88.5019V119.682H90.0409ZM98.9862 122.76C99.3522 122.838 99.6462 123.021 99.8682 123.309C100.09 123.591 100.201 123.915 100.201 124.281C100.201 124.809 100.015 125.229 99.6432 125.541C99.2772 125.847 98.7642 126 98.1042 126H95.1612V119.682H98.0052C98.6472 119.682 99.1482 119.829 99.5082 120.123C99.8742 120.417 100.057 120.816 100.057 121.32C100.057 121.692 99.9582 122.001 99.7602 122.247C99.5682 122.493 99.3102 122.664 98.9862 122.76ZM96.7002 122.238H97.7082C97.9602 122.238 98.1522 122.184 98.2842 122.076C98.4222 121.962 98.4912 121.797 98.4912 121.581C98.4912 121.365 98.4222 121.2 98.2842 121.086C98.1522 120.972 97.9602 120.915 97.7082 120.915H96.7002V122.238ZM97.8342 124.758C98.0922 124.758 98.2902 124.701 98.4282 124.587C98.5722 124.467 98.6442 124.296 98.6442 124.074C98.6442 123.852 98.5692 123.678 98.4192 123.552C98.2752 123.426 98.0742 123.363 97.8162 123.363H96.7002V124.758H97.8342ZM106.611 119.682V123.462C106.611 123.84 106.704 124.131 106.89 124.335C107.076 124.539 107.349 124.641 107.709 124.641C108.069 124.641 108.345 124.539 108.537 124.335C108.729 124.131 108.825 123.84 108.825 123.462V119.682H110.364V123.453C110.364 124.017 110.244 124.494 110.004 124.884C109.764 125.274 109.44 125.568 109.032 125.766C108.63 125.964 108.18 126.063 107.682 126.063C107.184 126.063 106.737 125.967 106.341 125.775C105.951 125.577 105.642 125.283 105.414 124.893C105.186 124.497 105.072 124.017 105.072 123.453V119.682H106.611ZM119.995 119.682V120.915H118.321V126H116.782V120.915H115.108V119.682H119.995ZM126.311 119.682V126H124.772V119.682H126.311ZM134.419 126.063C133.825 126.063 133.279 125.925 132.781 125.649C132.289 125.373 131.896 124.989 131.602 124.497C131.314 123.999 131.17 123.441 131.17 122.823C131.17 122.205 131.314 121.65 131.602 121.158C131.896 120.666 132.289 120.282 132.781 120.006C133.279 119.73 133.825 119.592 134.419 119.592C135.013 119.592 135.556 119.73 136.048 120.006C136.546 120.282 136.936 120.666 137.218 121.158C137.506 121.65 137.65 122.205 137.65 122.823C137.65 123.441 137.506 123.999 137.218 124.497C136.93 124.989 136.54 125.373 136.048 125.649C135.556 125.925 135.013 126.063 134.419 126.063ZM134.419 124.659C134.923 124.659 135.325 124.491 135.625 124.155C135.931 123.819 136.084 123.375 136.084 122.823C136.084 122.265 135.931 121.821 135.625 121.491C135.325 121.155 134.923 120.987 134.419 120.987C133.909 120.987 133.501 121.152 133.195 121.482C132.895 121.812 132.745 122.259 132.745 122.823C132.745 123.381 132.895 123.828 133.195 124.164C133.501 124.494 133.909 124.659 134.419 124.659ZM148.163 126H146.624L144.05 122.103V126H142.511V119.682H144.05L146.624 123.597V119.682H148.163V126ZM152.915 124.578L151.916 127.161H150.935L151.457 124.578H152.915ZM159.494 124.812H161.51V126H157.955V119.682H159.494V124.812ZM165.493 124.812H167.509V126H163.954V119.682H165.493V124.812ZM169.557 122.832C169.557 122.208 169.692 121.653 169.962 121.167C170.232 120.675 170.607 120.294 171.087 120.024C171.573 119.748 172.122 119.61 172.734 119.61C173.484 119.61 174.126 119.808 174.66 120.204C175.194 120.6 175.551 121.14 175.731 121.824H174.039C173.913 121.56 173.733 121.359 173.499 121.221C173.271 121.083 173.01 121.014 172.716 121.014C172.242 121.014 171.858 121.179 171.564 121.509C171.27 121.839 171.123 122.28 171.123 122.832C171.123 123.384 171.27 123.825 171.564 124.155C171.858 124.485 172.242 124.65 172.716 124.65C173.01 124.65 173.271 124.581 173.499 124.443C173.733 124.305 173.913 124.104 174.039 123.84H175.731C175.551 124.524 175.194 125.064 174.66 125.46C174.126 125.85 173.484 126.045 172.734 126.045C172.122 126.045 171.573 125.91 171.087 125.64C170.607 125.364 170.232 124.983 169.962 124.497C169.692 124.011 169.557 123.456 169.557 122.832Z" fill="url(#paint6_radial)"/>
</g>
<defs>
<radialGradient id="paint0_radial" cx="0" cy="0" r="1" gradientUnits="userSpaceOnUse" gradientTransform="translate(99.7179 99.7179) rotate(90) scale(99.7179)">
<stop offset="0.320833" stop-color="#474DD5" stop-opacity="0.81"/>
<stop offset="1" stop-color="#1F094F" stop-opacity="0"/>
</radialGradient>
<linearGradient id="paint1_linear" x1="146.718" y1="-27.7822" x2="146.718" y2="100.218" gradientUnits="userSpaceOnUse">
<stop stop-opacity="0"/>
<stop offset="1" stop-color="#686378"/>
</linearGradient>
<linearGradient id="paint2_linear" x1="193.884" y1="217.974" x2="193.884" y2="345.974" gradientUnits="userSpaceOnUse">
<stop stop-opacity="0"/>
<stop offset="1" stop-color="#686378"/>
</linearGradient>
<linearGradient id="paint3_linear" x1="219.221" y1="167.644" x2="219.221" y2="273.739" gradientUnits="userSpaceOnUse">
<stop stop-opacity="0"/>
<stop offset="1" stop-color="#686378"/>
</linearGradient>
<linearGradient id="paint4_linear" x1="47.4875" y1="45.5994" x2="47.4875" y2="151.694" gradientUnits="userSpaceOnUse">
<stop stop-opacity="0"/>
<stop offset="1" stop-color="#686378"/>
</linearGradient>
<radialGradient id="paint5_radial" cx="0" cy="0" r="1" gradientUnits="userSpaceOnUse" gradientTransform="translate(100 99.5001) rotate(72.2842) scale(75.5843 349.266)">
<stop stop-color="white"/>
<stop offset="1" stop-color="#140D64"/>
</radialGradient>
<radialGradient id="paint6_radial" cx="0" cy="0" r="1" gradientUnits="userSpaceOnUse" gradientTransform="translate(97.8775 122.533) rotate(86.6302) scale(17.764 171.279)">
<stop stop-color="white"/>
<stop offset="1" stop-color="#4867A3" stop-opacity="0"/>
</radialGradient>
</defs>
</svg>
