<svg width="201" height="201" viewBox="0 0 201 201" fill="none" xmlns="http://www.w3.org/2000/svg">
<mask id="mask0" mask-type="alpha" maskUnits="userSpaceOnUse" x="24" y="24" width="153" height="153">
<circle cx="100.5" cy="100.5" r="76" stroke="#90BFDA" stroke-linecap="round"/>
</mask>
<g mask="url(#mask0)">
<rect x="101" y="-27.0001" width="93" height="128" fill="#7B7556"/>
<rect x="101" y="-27.0001" width="93" height="128" fill="url(#paint0_linear)"/>
</g>
<mask id="mask1" mask-type="alpha" maskUnits="userSpaceOnUse" x="0" y="0" width="201" height="201">
<circle cx="100.5" cy="100.5" r="76" transform="rotate(157.822 100.5 100.5)" stroke="#90BFDA" stroke-linecap="round"/>
</mask>
<g mask="url(#mask1)">
<rect x="148.167" y="218.756" width="93" height="128" transform="rotate(157.822 148.167 218.756)" fill="#7B7556"/>
<rect x="148.167" y="218.756" width="93" height="128" transform="rotate(157.822 148.167 218.756)" fill="url(#paint1_linear)"/>
</g>
<mask id="mask2" mask-type="alpha" maskUnits="userSpaceOnUse" x="11" y="11" width="179" height="179">
<circle cx="100.5" cy="100.5" r="62.9083" transform="rotate(129.772 100.5 100.5)" stroke="#90BFDA" stroke-linecap="round"/>
</mask>
<g mask="url(#mask2)">
<rect x="181.461" y="168.426" width="77.0846" height="106.095" transform="rotate(129.772 181.461 168.426)" fill="#7B7556"/>
<rect x="181.461" y="168.426" width="77.0846" height="106.095" transform="rotate(129.772 181.461 168.426)" fill="url(#paint2_linear)"/>
</g>
<mask id="mask3" mask-type="alpha" maskUnits="userSpaceOnUse" x="13" y="13" width="175" height="175">
<circle cx="100.5" cy="100.5" r="62.9083" transform="rotate(-59.4215 100.5 100.5)" stroke="#90BFDA" stroke-linecap="round"/>
</mask>
<g mask="url(#mask3)">
<rect x="9.72729" y="46.3815" width="77.0846" height="106.095" transform="rotate(-59.4215 9.72729 46.3815)" fill="#7B7556"/>
<rect x="9.72729" y="46.3815" width="77.0846" height="106.095" transform="rotate(-59.4215 9.72729 46.3815)" fill="url(#paint3_linear)"/>
</g>
<path d="M39.0781 79.4959V84.9199H25.1101V93.5119H35.8141V98.8399H25.1101V113H18.3901V79.4959H39.0781ZM47.2513 83.2399C46.0673 83.2399 45.0753 82.8719 44.2753 82.1359C43.5073 81.3679 43.1233 80.4239 43.1233 79.3039C43.1233 78.1839 43.5073 77.2559 44.2753 76.5199C45.0753 75.7519 46.0673 75.3679 47.2513 75.3679C48.4353 75.3679 49.4113 75.7519 50.1793 76.5199C50.9793 77.2559 51.3793 78.1839 51.3793 79.3039C51.3793 80.4239 50.9793 81.3679 50.1793 82.1359C49.4113 82.8719 48.4353 83.2399 47.2513 83.2399ZM50.5633 86.4079V113H43.8433V86.4079H50.5633ZM55.4746 99.6079C55.4746 96.9199 56.0026 94.5359 57.0586 92.4559C58.1466 90.3759 59.6186 88.7759 61.4746 87.6559C63.3306 86.5359 65.3946 85.9759 67.6666 85.9759C69.3946 85.9759 71.0426 86.3599 72.6106 87.1279C74.1786 87.8639 75.4266 88.8559 76.3546 90.1039V77.4799H83.1706V113H76.3546V109.064C75.5226 110.376 74.3546 111.432 72.8506 112.232C71.3466 113.032 69.6026 113.432 67.6186 113.432C65.3786 113.432 63.3306 112.856 61.4746 111.704C59.6186 110.552 58.1466 108.936 57.0586 106.856C56.0026 104.744 55.4746 102.328 55.4746 99.6079ZM76.4026 99.7039C76.4026 98.0719 76.0826 96.6799 75.4426 95.5279C74.8026 94.3439 73.9386 93.4479 72.8506 92.8399C71.7626 92.1999 70.5946 91.8799 69.3466 91.8799C68.0986 91.8799 66.9466 92.1839 65.8906 92.7919C64.8346 93.3999 63.9706 94.2959 63.2986 95.4799C62.6586 96.6319 62.3386 98.0079 62.3386 99.6079C62.3386 101.208 62.6586 102.616 63.2986 103.832C63.9706 105.016 64.8346 105.928 65.8906 106.568C66.9786 107.208 68.1306 107.528 69.3466 107.528C70.5946 107.528 71.7626 107.224 72.8506 106.616C73.9386 105.976 74.8026 105.08 75.4426 103.928C76.0826 102.744 76.4026 101.336 76.4026 99.7039ZM114.454 99.1279C114.454 100.088 114.39 100.952 114.262 101.72H94.8219C94.9819 103.64 95.6539 105.144 96.8379 106.232C98.0219 107.32 99.4779 107.864 101.206 107.864C103.702 107.864 105.478 106.792 106.534 104.648H113.782C113.014 107.208 111.542 109.32 109.366 110.984C107.19 112.616 104.518 113.432 101.35 113.432C98.7899 113.432 96.4859 112.872 94.4379 111.752C92.4219 110.6 90.8379 108.984 89.6859 106.904C88.5659 104.824 88.0059 102.424 88.0059 99.7039C88.0059 96.9519 88.5659 94.5359 89.6859 92.4559C90.8059 90.3759 92.3739 88.7759 94.3899 87.6559C96.4059 86.5359 98.7259 85.9759 101.35 85.9759C103.878 85.9759 106.134 86.5199 108.118 87.6079C110.134 88.6959 111.686 90.2479 112.774 92.2639C113.894 94.2479 114.454 96.5359 114.454 99.1279ZM107.494 97.2079C107.462 95.4799 106.838 94.1039 105.622 93.0799C104.406 92.0239 102.918 91.4959 101.158 91.4959C99.4939 91.4959 98.0859 92.0079 96.9339 93.0319C95.8139 94.0239 95.1259 95.4159 94.8699 97.2079H107.494ZM126.079 77.4799V113H119.359V77.4799H126.079ZM136.126 83.2399C134.942 83.2399 133.95 82.8719 133.15 82.1359C132.382 81.3679 131.998 80.4239 131.998 79.3039C131.998 78.1839 132.382 77.2559 133.15 76.5199C133.95 75.7519 134.942 75.3679 136.126 75.3679C137.31 75.3679 138.286 75.7519 139.054 76.5199C139.854 77.2559 140.254 78.1839 140.254 79.3039C140.254 80.4239 139.854 81.3679 139.054 82.1359C138.286 82.8719 137.31 83.2399 136.126 83.2399ZM139.438 86.4079V113H132.718V86.4079H139.438ZM156.254 113.432C154.078 113.432 152.126 113.048 150.398 112.28C148.67 111.48 147.294 110.408 146.27 109.064C145.278 107.72 144.734 106.232 144.638 104.6H151.406C151.534 105.624 152.03 106.472 152.894 107.144C153.79 107.816 154.894 108.152 156.206 108.152C157.486 108.152 158.478 107.896 159.182 107.384C159.918 106.872 160.286 106.216 160.286 105.416C160.286 104.552 159.838 103.912 158.942 103.496C158.078 103.048 156.686 102.568 154.766 102.056C152.782 101.576 151.15 101.08 149.87 100.568C148.622 100.056 147.534 99.2719 146.606 98.2159C145.71 97.1599 145.262 95.7359 145.262 93.9439C145.262 92.4719 145.678 91.1279 146.51 89.9119C147.374 88.6959 148.59 87.7359 150.158 87.0319C151.758 86.3279 153.63 85.9759 155.774 85.9759C158.942 85.9759 161.47 86.7759 163.358 88.3759C165.246 89.9439 166.286 92.0719 166.478 94.7599H160.046C159.95 93.7039 159.502 92.8719 158.702 92.2639C157.934 91.6239 156.894 91.3039 155.582 91.3039C154.366 91.3039 153.422 91.5279 152.75 91.9759C152.11 92.4239 151.79 93.0479 151.79 93.8479C151.79 94.7439 152.238 95.4319 153.134 95.9119C154.03 96.3599 155.422 96.8239 157.31 97.3039C159.23 97.7839 160.814 98.2799 162.062 98.7919C163.31 99.3039 164.382 100.104 165.278 101.192C166.206 102.248 166.686 103.656 166.718 105.416C166.718 106.952 166.286 108.328 165.422 109.544C164.59 110.76 163.374 111.72 161.774 112.424C160.206 113.096 158.366 113.432 156.254 113.432Z" fill="#989380"/>
<path d="M39.0781 79.4959V84.9199H25.1101V93.5119H35.8141V98.8399H25.1101V113H18.3901V79.4959H39.0781ZM47.2513 83.2399C46.0673 83.2399 45.0753 82.8719 44.2753 82.1359C43.5073 81.3679 43.1233 80.4239 43.1233 79.3039C43.1233 78.1839 43.5073 77.2559 44.2753 76.5199C45.0753 75.7519 46.0673 75.3679 47.2513 75.3679C48.4353 75.3679 49.4113 75.7519 50.1793 76.5199C50.9793 77.2559 51.3793 78.1839 51.3793 79.3039C51.3793 80.4239 50.9793 81.3679 50.1793 82.1359C49.4113 82.8719 48.4353 83.2399 47.2513 83.2399ZM50.5633 86.4079V113H43.8433V86.4079H50.5633ZM55.4746 99.6079C55.4746 96.9199 56.0026 94.5359 57.0586 92.4559C58.1466 90.3759 59.6186 88.7759 61.4746 87.6559C63.3306 86.5359 65.3946 85.9759 67.6666 85.9759C69.3946 85.9759 71.0426 86.3599 72.6106 87.1279C74.1786 87.8639 75.4266 88.8559 76.3546 90.1039V77.4799H83.1706V113H76.3546V109.064C75.5226 110.376 74.3546 111.432 72.8506 112.232C71.3466 113.032 69.6026 113.432 67.6186 113.432C65.3786 113.432 63.3306 112.856 61.4746 111.704C59.6186 110.552 58.1466 108.936 57.0586 106.856C56.0026 104.744 55.4746 102.328 55.4746 99.6079ZM76.4026 99.7039C76.4026 98.0719 76.0826 96.6799 75.4426 95.5279C74.8026 94.3439 73.9386 93.4479 72.8506 92.8399C71.7626 92.1999 70.5946 91.8799 69.3466 91.8799C68.0986 91.8799 66.9466 92.1839 65.8906 92.7919C64.8346 93.3999 63.9706 94.2959 63.2986 95.4799C62.6586 96.6319 62.3386 98.0079 62.3386 99.6079C62.3386 101.208 62.6586 102.616 63.2986 103.832C63.9706 105.016 64.8346 105.928 65.8906 106.568C66.9786 107.208 68.1306 107.528 69.3466 107.528C70.5946 107.528 71.7626 107.224 72.8506 106.616C73.9386 105.976 74.8026 105.08 75.4426 103.928C76.0826 102.744 76.4026 101.336 76.4026 99.7039ZM114.454 99.1279C114.454 100.088 114.39 100.952 114.262 101.72H94.8219C94.9819 103.64 95.6539 105.144 96.8379 106.232C98.0219 107.32 99.4779 107.864 101.206 107.864C103.702 107.864 105.478 106.792 106.534 104.648H113.782C113.014 107.208 111.542 109.32 109.366 110.984C107.19 112.616 104.518 113.432 101.35 113.432C98.7899 113.432 96.4859 112.872 94.4379 111.752C92.4219 110.6 90.8379 108.984 89.6859 106.904C88.5659 104.824 88.0059 102.424 88.0059 99.7039C88.0059 96.9519 88.5659 94.5359 89.6859 92.4559C90.8059 90.3759 92.3739 88.7759 94.3899 87.6559C96.4059 86.5359 98.7259 85.9759 101.35 85.9759C103.878 85.9759 106.134 86.5199 108.118 87.6079C110.134 88.6959 111.686 90.2479 112.774 92.2639C113.894 94.2479 114.454 96.5359 114.454 99.1279ZM107.494 97.2079C107.462 95.4799 106.838 94.1039 105.622 93.0799C104.406 92.0239 102.918 91.4959 101.158 91.4959C99.4939 91.4959 98.0859 92.0079 96.9339 93.0319C95.8139 94.0239 95.1259 95.4159 94.8699 97.2079H107.494ZM126.079 77.4799V113H119.359V77.4799H126.079ZM136.126 83.2399C134.942 83.2399 133.95 82.8719 133.15 82.1359C132.382 81.3679 131.998 80.4239 131.998 79.3039C131.998 78.1839 132.382 77.2559 133.15 76.5199C133.95 75.7519 134.942 75.3679 136.126 75.3679C137.31 75.3679 138.286 75.7519 139.054 76.5199C139.854 77.2559 140.254 78.1839 140.254 79.3039C140.254 80.4239 139.854 81.3679 139.054 82.1359C138.286 82.8719 137.31 83.2399 136.126 83.2399ZM139.438 86.4079V113H132.718V86.4079H139.438ZM156.254 113.432C154.078 113.432 152.126 113.048 150.398 112.28C148.67 111.48 147.294 110.408 146.27 109.064C145.278 107.72 144.734 106.232 144.638 104.6H151.406C151.534 105.624 152.03 106.472 152.894 107.144C153.79 107.816 154.894 108.152 156.206 108.152C157.486 108.152 158.478 107.896 159.182 107.384C159.918 106.872 160.286 106.216 160.286 105.416C160.286 104.552 159.838 103.912 158.942 103.496C158.078 103.048 156.686 102.568 154.766 102.056C152.782 101.576 151.15 101.08 149.87 100.568C148.622 100.056 147.534 99.2719 146.606 98.2159C145.71 97.1599 145.262 95.7359 145.262 93.9439C145.262 92.4719 145.678 91.1279 146.51 89.9119C147.374 88.6959 148.59 87.7359 150.158 87.0319C151.758 86.3279 153.63 85.9759 155.774 85.9759C158.942 85.9759 161.47 86.7759 163.358 88.3759C165.246 89.9439 166.286 92.0719 166.478 94.7599H160.046C159.95 93.7039 159.502 92.8719 158.702 92.2639C157.934 91.6239 156.894 91.3039 155.582 91.3039C154.366 91.3039 153.422 91.5279 152.75 91.9759C152.11 92.4239 151.79 93.0479 151.79 93.8479C151.79 94.7439 152.238 95.4319 153.134 95.9119C154.03 96.3599 155.422 96.8239 157.31 97.3039C159.23 97.7839 160.814 98.2799 162.062 98.7919C163.31 99.3039 164.382 100.104 165.278 101.192C166.206 102.248 166.686 103.656 166.718 105.416C166.718 106.952 166.286 108.328 165.422 109.544C164.59 110.76 163.374 111.72 161.774 112.424C160.206 113.096 158.366 113.432 156.254 113.432Z" fill="url(#paint4_radial)"/>
<path d="M46.13 121.02C46.8633 121.02 47.5067 121.163 48.06 121.45C48.62 121.737 49.05 122.147 49.35 122.68C49.6567 123.207 49.81 123.82 49.81 124.52C49.81 125.22 49.6567 125.833 49.35 126.36C49.05 126.88 48.62 127.283 48.06 127.57C47.5067 127.857 46.8633 128 46.13 128H43.69V121.02H46.13ZM46.08 126.81C46.8133 126.81 47.38 126.61 47.78 126.21C48.18 125.81 48.38 125.247 48.38 124.52C48.38 123.793 48.18 123.227 47.78 122.82C47.38 122.407 46.8133 122.2 46.08 122.2H45.09V126.81H46.08ZM55.883 121.02V128H54.483V121.02H55.883ZM63.3012 128.07C62.8145 128.07 62.3745 127.987 61.9812 127.82C61.5945 127.653 61.2878 127.413 61.0612 127.1C60.8345 126.787 60.7178 126.417 60.7112 125.99H62.2112C62.2312 126.277 62.3312 126.503 62.5112 126.67C62.6978 126.837 62.9512 126.92 63.2712 126.92C63.5978 126.92 63.8545 126.843 64.0412 126.69C64.2278 126.53 64.3212 126.323 64.3212 126.07C64.3212 125.863 64.2578 125.693 64.1312 125.56C64.0045 125.427 63.8445 125.323 63.6512 125.25C63.4645 125.17 63.2045 125.083 62.8712 124.99C62.4178 124.857 62.0478 124.727 61.7612 124.6C61.4812 124.467 61.2378 124.27 61.0312 124.01C60.8312 123.743 60.7312 123.39 60.7312 122.95C60.7312 122.537 60.8345 122.177 61.0412 121.87C61.2478 121.563 61.5378 121.33 61.9112 121.17C62.2845 121.003 62.7112 120.92 63.1912 120.92C63.9112 120.92 64.4945 121.097 64.9412 121.45C65.3945 121.797 65.6445 122.283 65.6912 122.91H64.1512C64.1378 122.67 64.0345 122.473 63.8412 122.32C63.6545 122.16 63.4045 122.08 63.0912 122.08C62.8178 122.08 62.5978 122.15 62.4312 122.29C62.2712 122.43 62.1912 122.633 62.1912 122.9C62.1912 123.087 62.2512 123.243 62.3712 123.37C62.4978 123.49 62.6512 123.59 62.8312 123.67C63.0178 123.743 63.2778 123.83 63.6112 123.93C64.0645 124.063 64.4345 124.197 64.7212 124.33C65.0078 124.463 65.2545 124.663 65.4612 124.93C65.6678 125.197 65.7712 125.547 65.7712 125.98C65.7712 126.353 65.6745 126.7 65.4812 127.02C65.2878 127.34 65.0045 127.597 64.6312 127.79C64.2578 127.977 63.8145 128.07 63.3012 128.07ZM75.3599 121.02V122.15H73.4999V128H72.0999V122.15H70.2399V121.02H75.3599ZM83.6064 128L82.0664 125.28H81.4064V128H80.0064V121.02H82.6264C83.1664 121.02 83.6264 121.117 84.0064 121.31C84.3864 121.497 84.6697 121.753 84.8564 122.08C85.0497 122.4 85.1464 122.76 85.1464 123.16C85.1464 123.62 85.0131 124.037 84.7464 124.41C84.4797 124.777 84.0831 125.03 83.5564 125.17L85.2264 128H83.6064ZM81.4064 124.23H82.5764C82.9564 124.23 83.2397 124.14 83.4264 123.96C83.6131 123.773 83.7064 123.517 83.7064 123.19C83.7064 122.87 83.6131 122.623 83.4264 122.45C83.2397 122.27 82.9564 122.18 82.5764 122.18H81.4064V124.23ZM91.4377 121.02V128H90.0377V121.02H91.4377ZM100.406 124.42C100.799 124.493 101.123 124.69 101.376 125.01C101.629 125.33 101.756 125.697 101.756 126.11C101.756 126.483 101.663 126.813 101.476 127.1C101.296 127.38 101.033 127.6 100.686 127.76C100.339 127.92 99.9292 128 99.4559 128H96.4459V121.02H99.3259C99.7992 121.02 100.206 121.097 100.546 121.25C100.893 121.403 101.153 121.617 101.326 121.89C101.506 122.163 101.596 122.473 101.596 122.82C101.596 123.227 101.486 123.567 101.266 123.84C101.053 124.113 100.766 124.307 100.406 124.42ZM97.8459 123.9H99.1259C99.4592 123.9 99.7159 123.827 99.8959 123.68C100.076 123.527 100.166 123.31 100.166 123.03C100.166 122.75 100.076 122.533 99.8959 122.38C99.7159 122.227 99.4592 122.15 99.1259 122.15H97.8459V123.9ZM99.2559 126.86C99.5959 126.86 99.8592 126.78 100.046 126.62C100.239 126.46 100.336 126.233 100.336 125.94C100.336 125.64 100.236 125.407 100.036 125.24C99.8359 125.067 99.5659 124.98 99.2259 124.98H97.8459V126.86H99.2559ZM107.877 121.02V125.34C107.877 125.813 108 126.177 108.247 126.43C108.493 126.677 108.84 126.8 109.287 126.8C109.74 126.8 110.09 126.677 110.337 126.43C110.583 126.177 110.707 125.813 110.707 125.34V121.02H112.117V125.33C112.117 125.923 111.987 126.427 111.727 126.84C111.473 127.247 111.13 127.553 110.697 127.76C110.27 127.967 109.793 128.07 109.267 128.07C108.747 128.07 108.273 127.967 107.847 127.76C107.427 127.553 107.093 127.247 106.847 126.84C106.6 126.427 106.477 125.923 106.477 125.33V121.02H107.877ZM121.844 121.02V122.15H119.984V128H118.584V122.15H116.724V121.02H121.844ZM127.891 121.02V128H126.491V121.02H127.891ZM136.139 128.07C135.486 128.07 134.886 127.917 134.339 127.61C133.792 127.303 133.359 126.88 133.039 126.34C132.719 125.793 132.559 125.177 132.559 124.49C132.559 123.81 132.719 123.2 133.039 122.66C133.359 122.113 133.792 121.687 134.339 121.38C134.886 121.073 135.486 120.92 136.139 120.92C136.799 120.92 137.399 121.073 137.939 121.38C138.486 121.687 138.916 122.113 139.229 122.66C139.549 123.2 139.709 123.81 139.709 124.49C139.709 125.177 139.549 125.793 139.229 126.34C138.916 126.88 138.486 127.303 137.939 127.61C137.392 127.917 136.792 128.07 136.139 128.07ZM136.139 126.82C136.559 126.82 136.929 126.727 137.249 126.54C137.569 126.347 137.819 126.073 137.999 125.72C138.179 125.367 138.269 124.957 138.269 124.49C138.269 124.023 138.179 123.617 137.999 123.27C137.819 122.917 137.569 122.647 137.249 122.46C136.929 122.273 136.559 122.18 136.139 122.18C135.719 122.18 135.346 122.273 135.019 122.46C134.699 122.647 134.449 122.917 134.269 123.27C134.089 123.617 133.999 124.023 133.999 124.49C133.999 124.957 134.089 125.367 134.269 125.72C134.449 126.073 134.699 126.347 135.019 126.54C135.346 126.727 135.719 126.82 136.139 126.82ZM150.346 128H148.946L145.776 123.21V128H144.376V121.01H145.776L148.946 125.81V121.01H150.346V128ZM155.459 126.53L154.289 129.34H153.389L154.039 126.53H155.459ZM164.951 126.89H167.251V128H163.551V121.02H164.951V126.89ZM173.341 126.89H175.641V128H171.941V121.02H173.341V126.89ZM179.991 124.5C179.991 123.813 180.144 123.2 180.451 122.66C180.764 122.113 181.187 121.69 181.721 121.39C182.261 121.083 182.864 120.93 183.531 120.93C184.311 120.93 184.994 121.13 185.581 121.53C186.167 121.93 186.577 122.483 186.811 123.19H185.201C185.041 122.857 184.814 122.607 184.521 122.44C184.234 122.273 183.901 122.19 183.521 122.19C183.114 122.19 182.751 122.287 182.431 122.48C182.117 122.667 181.871 122.933 181.691 123.28C181.517 123.627 181.431 124.033 181.431 124.5C181.431 124.96 181.517 125.367 181.691 125.72C181.871 126.067 182.117 126.337 182.431 126.53C182.751 126.717 183.114 126.81 183.521 126.81C183.901 126.81 184.234 126.727 184.521 126.56C184.814 126.387 185.041 126.133 185.201 125.8H186.811C186.577 126.513 186.167 127.07 185.581 127.47C185.001 127.863 184.317 128.06 183.531 128.06C182.864 128.06 182.261 127.91 181.721 127.61C181.187 127.303 180.764 126.88 180.451 126.34C180.144 125.8 179.991 125.187 179.991 124.5Z" fill="#989380"/>
<path d="M46.13 121.02C46.8633 121.02 47.5067 121.163 48.06 121.45C48.62 121.737 49.05 122.147 49.35 122.68C49.6567 123.207 49.81 123.82 49.81 124.52C49.81 125.22 49.6567 125.833 49.35 126.36C49.05 126.88 48.62 127.283 48.06 127.57C47.5067 127.857 46.8633 128 46.13 128H43.69V121.02H46.13ZM46.08 126.81C46.8133 126.81 47.38 126.61 47.78 126.21C48.18 125.81 48.38 125.247 48.38 124.52C48.38 123.793 48.18 123.227 47.78 122.82C47.38 122.407 46.8133 122.2 46.08 122.2H45.09V126.81H46.08ZM55.883 121.02V128H54.483V121.02H55.883ZM63.3012 128.07C62.8145 128.07 62.3745 127.987 61.9812 127.82C61.5945 127.653 61.2878 127.413 61.0612 127.1C60.8345 126.787 60.7178 126.417 60.7112 125.99H62.2112C62.2312 126.277 62.3312 126.503 62.5112 126.67C62.6978 126.837 62.9512 126.92 63.2712 126.92C63.5978 126.92 63.8545 126.843 64.0412 126.69C64.2278 126.53 64.3212 126.323 64.3212 126.07C64.3212 125.863 64.2578 125.693 64.1312 125.56C64.0045 125.427 63.8445 125.323 63.6512 125.25C63.4645 125.17 63.2045 125.083 62.8712 124.99C62.4178 124.857 62.0478 124.727 61.7612 124.6C61.4812 124.467 61.2378 124.27 61.0312 124.01C60.8312 123.743 60.7312 123.39 60.7312 122.95C60.7312 122.537 60.8345 122.177 61.0412 121.87C61.2478 121.563 61.5378 121.33 61.9112 121.17C62.2845 121.003 62.7112 120.92 63.1912 120.92C63.9112 120.92 64.4945 121.097 64.9412 121.45C65.3945 121.797 65.6445 122.283 65.6912 122.91H64.1512C64.1378 122.67 64.0345 122.473 63.8412 122.32C63.6545 122.16 63.4045 122.08 63.0912 122.08C62.8178 122.08 62.5978 122.15 62.4312 122.29C62.2712 122.43 62.1912 122.633 62.1912 122.9C62.1912 123.087 62.2512 123.243 62.3712 123.37C62.4978 123.49 62.6512 123.59 62.8312 123.67C63.0178 123.743 63.2778 123.83 63.6112 123.93C64.0645 124.063 64.4345 124.197 64.7212 124.33C65.0078 124.463 65.2545 124.663 65.4612 124.93C65.6678 125.197 65.7712 125.547 65.7712 125.98C65.7712 126.353 65.6745 126.7 65.4812 127.02C65.2878 127.34 65.0045 127.597 64.6312 127.79C64.2578 127.977 63.8145 128.07 63.3012 128.07ZM75.3599 121.02V122.15H73.4999V128H72.0999V122.15H70.2399V121.02H75.3599ZM83.6064 128L82.0664 125.28H81.4064V128H80.0064V121.02H82.6264C83.1664 121.02 83.6264 121.117 84.0064 121.31C84.3864 121.497 84.6697 121.753 84.8564 122.08C85.0497 122.4 85.1464 122.76 85.1464 123.16C85.1464 123.62 85.0131 124.037 84.7464 124.41C84.4797 124.777 84.0831 125.03 83.5564 125.17L85.2264 128H83.6064ZM81.4064 124.23H82.5764C82.9564 124.23 83.2397 124.14 83.4264 123.96C83.6131 123.773 83.7064 123.517 83.7064 123.19C83.7064 122.87 83.6131 122.623 83.4264 122.45C83.2397 122.27 82.9564 122.18 82.5764 122.18H81.4064V124.23ZM91.4377 121.02V128H90.0377V121.02H91.4377ZM100.406 124.42C100.799 124.493 101.123 124.69 101.376 125.01C101.629 125.33 101.756 125.697 101.756 126.11C101.756 126.483 101.663 126.813 101.476 127.1C101.296 127.38 101.033 127.6 100.686 127.76C100.339 127.92 99.9292 128 99.4559 128H96.4459V121.02H99.3259C99.7992 121.02 100.206 121.097 100.546 121.25C100.893 121.403 101.153 121.617 101.326 121.89C101.506 122.163 101.596 122.473 101.596 122.82C101.596 123.227 101.486 123.567 101.266 123.84C101.053 124.113 100.766 124.307 100.406 124.42ZM97.8459 123.9H99.1259C99.4592 123.9 99.7159 123.827 99.8959 123.68C100.076 123.527 100.166 123.31 100.166 123.03C100.166 122.75 100.076 122.533 99.8959 122.38C99.7159 122.227 99.4592 122.15 99.1259 122.15H97.8459V123.9ZM99.2559 126.86C99.5959 126.86 99.8592 126.78 100.046 126.62C100.239 126.46 100.336 126.233 100.336 125.94C100.336 125.64 100.236 125.407 100.036 125.24C99.8359 125.067 99.5659 124.98 99.2259 124.98H97.8459V126.86H99.2559ZM107.877 121.02V125.34C107.877 125.813 108 126.177 108.247 126.43C108.493 126.677 108.84 126.8 109.287 126.8C109.74 126.8 110.09 126.677 110.337 126.43C110.583 126.177 110.707 125.813 110.707 125.34V121.02H112.117V125.33C112.117 125.923 111.987 126.427 111.727 126.84C111.473 127.247 111.13 127.553 110.697 127.76C110.27 127.967 109.793 128.07 109.267 128.07C108.747 128.07 108.273 127.967 107.847 127.76C107.427 127.553 107.093 127.247 106.847 126.84C106.6 126.427 106.477 125.923 106.477 125.33V121.02H107.877ZM121.844 121.02V122.15H119.984V128H118.584V122.15H116.724V121.02H121.844ZM127.891 121.02V128H126.491V121.02H127.891ZM136.139 128.07C135.486 128.07 134.886 127.917 134.339 127.61C133.792 127.303 133.359 126.88 133.039 126.34C132.719 125.793 132.559 125.177 132.559 124.49C132.559 123.81 132.719 123.2 133.039 122.66C133.359 122.113 133.792 121.687 134.339 121.38C134.886 121.073 135.486 120.92 136.139 120.92C136.799 120.92 137.399 121.073 137.939 121.38C138.486 121.687 138.916 122.113 139.229 122.66C139.549 123.2 139.709 123.81 139.709 124.49C139.709 125.177 139.549 125.793 139.229 126.34C138.916 126.88 138.486 127.303 137.939 127.61C137.392 127.917 136.792 128.07 136.139 128.07ZM136.139 126.82C136.559 126.82 136.929 126.727 137.249 126.54C137.569 126.347 137.819 126.073 137.999 125.72C138.179 125.367 138.269 124.957 138.269 124.49C138.269 124.023 138.179 123.617 137.999 123.27C137.819 122.917 137.569 122.647 137.249 122.46C136.929 122.273 136.559 122.18 136.139 122.18C135.719 122.18 135.346 122.273 135.019 122.46C134.699 122.647 134.449 122.917 134.269 123.27C134.089 123.617 133.999 124.023 133.999 124.49C133.999 124.957 134.089 125.367 134.269 125.72C134.449 126.073 134.699 126.347 135.019 126.54C135.346 126.727 135.719 126.82 136.139 126.82ZM150.346 128H148.946L145.776 123.21V128H144.376V121.01H145.776L148.946 125.81V121.01H150.346V128ZM155.459 126.53L154.289 129.34H153.389L154.039 126.53H155.459ZM164.951 126.89H167.251V128H163.551V121.02H164.951V126.89ZM173.341 126.89H175.641V128H171.941V121.02H173.341V126.89ZM179.991 124.5C179.991 123.813 180.144 123.2 180.451 122.66C180.764 122.113 181.187 121.69 181.721 121.39C182.261 121.083 182.864 120.93 183.531 120.93C184.311 120.93 184.994 121.13 185.581 121.53C186.167 121.93 186.577 122.483 186.811 123.19H185.201C185.041 122.857 184.814 122.607 184.521 122.44C184.234 122.273 183.901 122.19 183.521 122.19C183.114 122.19 182.751 122.287 182.431 122.48C182.117 122.667 181.871 122.933 181.691 123.28C181.517 123.627 181.431 124.033 181.431 124.5C181.431 124.96 181.517 125.367 181.691 125.72C181.871 126.067 182.117 126.337 182.431 126.53C182.751 126.717 183.114 126.81 183.521 126.81C183.901 126.81 184.234 126.727 184.521 126.56C184.814 126.387 185.041 126.133 185.201 125.8H186.811C186.577 126.513 186.167 127.07 185.581 127.47C185.001 127.863 184.317 128.06 183.531 128.06C182.864 128.06 182.261 127.91 181.721 127.61C181.187 127.303 180.764 126.88 180.451 126.34C180.144 125.8 179.991 125.187 179.991 124.5Z" fill="url(#paint5_radial)"/>
<defs>
<linearGradient id="paint0_linear" x1="147.5" y1="-27.0001" x2="147.5" y2="101" gradientUnits="userSpaceOnUse">
<stop stop-color="white"/>
<stop offset="1" stop-color="white" stop-opacity="0"/>
</linearGradient>
<linearGradient id="paint1_linear" x1="194.667" y1="218.756" x2="194.667" y2="346.756" gradientUnits="userSpaceOnUse">
<stop stop-color="white"/>
<stop offset="1" stop-color="white" stop-opacity="0"/>
</linearGradient>
<linearGradient id="paint2_linear" x1="220.003" y1="168.426" x2="220.003" y2="274.521" gradientUnits="userSpaceOnUse">
<stop stop-color="white"/>
<stop offset="1" stop-color="white" stop-opacity="0"/>
</linearGradient>
<linearGradient id="paint3_linear" x1="48.2696" y1="46.3815" x2="48.2696" y2="152.476" gradientUnits="userSpaceOnUse">
<stop stop-color="white"/>
<stop offset="1" stop-color="white" stop-opacity="0"/>
</linearGradient>
<radialGradient id="paint4_radial" cx="0" cy="0" r="1" gradientUnits="userSpaceOnUse" gradientTransform="translate(101 100.5) rotate(86.8779) scale(27.5409 127.263)">
<stop stop-color="white" stop-opacity="0"/>
<stop offset="1" stop-color="white" stop-opacity="0.25"/>
</radialGradient>
<radialGradient id="paint5_radial" cx="0" cy="0" r="1" gradientUnits="userSpaceOnUse" gradientTransform="translate(103.017 124) rotate(87.5007) scale(11.0105 106.452)">
<stop stop-color="white" stop-opacity="0"/>
<stop offset="1" stop-color="white" stop-opacity="0.25"/>
</radialGradient>
</defs>
</svg>
