<svg width="215" height="234" viewBox="0 0 215 234" fill="none" xmlns="http://www.w3.org/2000/svg">
<rect width="199.436" height="199.436" transform="translate(11 11)" fill="#4A87BF"/>
<rect width="199.436" height="199.436" transform="translate(11 11)" fill="url(#paint0_radial)"/>
<path d="M49.4381 89.496V94.92H35.4701V103.512H46.1741V108.84H35.4701V123H28.7501V89.496H49.4381ZM56.8913 93.24C55.7073 93.24 54.7153 92.872 53.9153 92.136C53.1473 91.368 52.7633 90.424 52.7633 89.304C52.7633 88.184 53.1473 87.256 53.9153 86.52C54.7153 85.752 55.7073 85.368 56.8913 85.368C58.0753 85.368 59.0513 85.752 59.8193 86.52C60.6193 87.256 61.0193 88.184 61.0193 89.304C61.0193 90.424 60.6193 91.368 59.8193 92.136C59.0513 92.872 58.0753 93.24 56.8913 93.24ZM60.2033 96.408V123H53.4833V96.408H60.2033ZM65.1146 109.608C65.1146 106.92 65.6426 104.536 66.6986 102.456C67.7866 100.376 69.2586 98.776 71.1146 97.656C72.9706 96.536 75.0346 95.976 77.3066 95.976C79.0346 95.976 80.6826 96.36 82.2506 97.128C83.8186 97.864 85.0666 98.856 85.9946 100.104V87.48H92.8106V123H85.9946V119.064C85.1626 120.376 83.9946 121.432 82.4906 122.232C80.9866 123.032 79.2426 123.432 77.2586 123.432C75.0186 123.432 72.9706 122.856 71.1146 121.704C69.2586 120.552 67.7866 118.936 66.6986 116.856C65.6426 114.744 65.1146 112.328 65.1146 109.608ZM86.0426 109.704C86.0426 108.072 85.7226 106.68 85.0826 105.528C84.4426 104.344 83.5786 103.448 82.4906 102.84C81.4026 102.2 80.2346 101.88 78.9866 101.88C77.7386 101.88 76.5866 102.184 75.5306 102.792C74.4746 103.4 73.6106 104.296 72.9386 105.48C72.2986 106.632 71.9786 108.008 71.9786 109.608C71.9786 111.208 72.2986 112.616 72.9386 113.832C73.6106 115.016 74.4746 115.928 75.5306 116.568C76.6186 117.208 77.7706 117.528 78.9866 117.528C80.2346 117.528 81.4026 117.224 82.4906 116.616C83.5786 115.976 84.4426 115.08 85.0826 113.928C85.7226 112.744 86.0426 111.336 86.0426 109.704ZM124.094 109.128C124.094 110.088 124.03 110.952 123.902 111.72H104.462C104.622 113.64 105.294 115.144 106.478 116.232C107.662 117.32 109.118 117.864 110.846 117.864C113.342 117.864 115.118 116.792 116.174 114.648H123.422C122.654 117.208 121.182 119.32 119.006 120.984C116.83 122.616 114.158 123.432 110.99 123.432C108.43 123.432 106.126 122.872 104.078 121.752C102.062 120.6 100.478 118.984 99.3259 116.904C98.2059 114.824 97.6459 112.424 97.6459 109.704C97.6459 106.952 98.2059 104.536 99.3259 102.456C100.446 100.376 102.014 98.776 104.03 97.656C106.046 96.536 108.366 95.976 110.99 95.976C113.518 95.976 115.774 96.52 117.758 97.608C119.774 98.696 121.326 100.248 122.414 102.264C123.534 104.248 124.094 106.536 124.094 109.128ZM117.134 107.208C117.102 105.48 116.478 104.104 115.262 103.08C114.046 102.024 112.558 101.496 110.798 101.496C109.134 101.496 107.726 102.008 106.574 103.032C105.454 104.024 104.766 105.416 104.51 107.208H117.134ZM135.719 87.48V123H128.999V87.48H135.719ZM145.766 93.24C144.582 93.24 143.59 92.872 142.79 92.136C142.022 91.368 141.638 90.424 141.638 89.304C141.638 88.184 142.022 87.256 142.79 86.52C143.59 85.752 144.582 85.368 145.766 85.368C146.95 85.368 147.926 85.752 148.694 86.52C149.494 87.256 149.894 88.184 149.894 89.304C149.894 90.424 149.494 91.368 148.694 92.136C147.926 92.872 146.95 93.24 145.766 93.24ZM149.078 96.408V123H142.358V96.408H149.078ZM165.894 123.432C163.718 123.432 161.766 123.048 160.038 122.28C158.31 121.48 156.934 120.408 155.91 119.064C154.918 117.72 154.374 116.232 154.278 114.6H161.046C161.174 115.624 161.67 116.472 162.534 117.144C163.43 117.816 164.534 118.152 165.846 118.152C167.126 118.152 168.118 117.896 168.822 117.384C169.558 116.872 169.926 116.216 169.926 115.416C169.926 114.552 169.478 113.912 168.582 113.496C167.718 113.048 166.326 112.568 164.406 112.056C162.422 111.576 160.79 111.08 159.51 110.568C158.262 110.056 157.174 109.272 156.246 108.216C155.35 107.16 154.902 105.736 154.902 103.944C154.902 102.472 155.318 101.128 156.15 99.912C157.014 98.696 158.23 97.736 159.798 97.032C161.398 96.328 163.27 95.976 165.414 95.976C168.582 95.976 171.11 96.776 172.998 98.376C174.886 99.944 175.926 102.072 176.118 104.76H169.686C169.59 103.704 169.142 102.872 168.342 102.264C167.574 101.624 166.534 101.304 165.222 101.304C164.006 101.304 163.062 101.528 162.39 101.976C161.75 102.424 161.43 103.048 161.43 103.848C161.43 104.744 161.878 105.432 162.774 105.912C163.67 106.36 165.062 106.824 166.95 107.304C168.87 107.784 170.454 108.28 171.702 108.792C172.95 109.304 174.022 110.104 174.918 111.192C175.846 112.248 176.326 113.656 176.358 115.416C176.358 116.952 175.926 118.328 175.062 119.544C174.23 120.76 173.014 121.72 171.414 122.424C169.846 123.096 168.006 123.432 165.894 123.432Z" fill="white" fill-opacity="0.79"/>
<path d="M49.4381 89.496V94.92H35.4701V103.512H46.1741V108.84H35.4701V123H28.7501V89.496H49.4381ZM56.8913 93.24C55.7073 93.24 54.7153 92.872 53.9153 92.136C53.1473 91.368 52.7633 90.424 52.7633 89.304C52.7633 88.184 53.1473 87.256 53.9153 86.52C54.7153 85.752 55.7073 85.368 56.8913 85.368C58.0753 85.368 59.0513 85.752 59.8193 86.52C60.6193 87.256 61.0193 88.184 61.0193 89.304C61.0193 90.424 60.6193 91.368 59.8193 92.136C59.0513 92.872 58.0753 93.24 56.8913 93.24ZM60.2033 96.408V123H53.4833V96.408H60.2033ZM65.1146 109.608C65.1146 106.92 65.6426 104.536 66.6986 102.456C67.7866 100.376 69.2586 98.776 71.1146 97.656C72.9706 96.536 75.0346 95.976 77.3066 95.976C79.0346 95.976 80.6826 96.36 82.2506 97.128C83.8186 97.864 85.0666 98.856 85.9946 100.104V87.48H92.8106V123H85.9946V119.064C85.1626 120.376 83.9946 121.432 82.4906 122.232C80.9866 123.032 79.2426 123.432 77.2586 123.432C75.0186 123.432 72.9706 122.856 71.1146 121.704C69.2586 120.552 67.7866 118.936 66.6986 116.856C65.6426 114.744 65.1146 112.328 65.1146 109.608ZM86.0426 109.704C86.0426 108.072 85.7226 106.68 85.0826 105.528C84.4426 104.344 83.5786 103.448 82.4906 102.84C81.4026 102.2 80.2346 101.88 78.9866 101.88C77.7386 101.88 76.5866 102.184 75.5306 102.792C74.4746 103.4 73.6106 104.296 72.9386 105.48C72.2986 106.632 71.9786 108.008 71.9786 109.608C71.9786 111.208 72.2986 112.616 72.9386 113.832C73.6106 115.016 74.4746 115.928 75.5306 116.568C76.6186 117.208 77.7706 117.528 78.9866 117.528C80.2346 117.528 81.4026 117.224 82.4906 116.616C83.5786 115.976 84.4426 115.08 85.0826 113.928C85.7226 112.744 86.0426 111.336 86.0426 109.704ZM124.094 109.128C124.094 110.088 124.03 110.952 123.902 111.72H104.462C104.622 113.64 105.294 115.144 106.478 116.232C107.662 117.32 109.118 117.864 110.846 117.864C113.342 117.864 115.118 116.792 116.174 114.648H123.422C122.654 117.208 121.182 119.32 119.006 120.984C116.83 122.616 114.158 123.432 110.99 123.432C108.43 123.432 106.126 122.872 104.078 121.752C102.062 120.6 100.478 118.984 99.3259 116.904C98.2059 114.824 97.6459 112.424 97.6459 109.704C97.6459 106.952 98.2059 104.536 99.3259 102.456C100.446 100.376 102.014 98.776 104.03 97.656C106.046 96.536 108.366 95.976 110.99 95.976C113.518 95.976 115.774 96.52 117.758 97.608C119.774 98.696 121.326 100.248 122.414 102.264C123.534 104.248 124.094 106.536 124.094 109.128ZM117.134 107.208C117.102 105.48 116.478 104.104 115.262 103.08C114.046 102.024 112.558 101.496 110.798 101.496C109.134 101.496 107.726 102.008 106.574 103.032C105.454 104.024 104.766 105.416 104.51 107.208H117.134ZM135.719 87.48V123H128.999V87.48H135.719ZM145.766 93.24C144.582 93.24 143.59 92.872 142.79 92.136C142.022 91.368 141.638 90.424 141.638 89.304C141.638 88.184 142.022 87.256 142.79 86.52C143.59 85.752 144.582 85.368 145.766 85.368C146.95 85.368 147.926 85.752 148.694 86.52C149.494 87.256 149.894 88.184 149.894 89.304C149.894 90.424 149.494 91.368 148.694 92.136C147.926 92.872 146.95 93.24 145.766 93.24ZM149.078 96.408V123H142.358V96.408H149.078ZM165.894 123.432C163.718 123.432 161.766 123.048 160.038 122.28C158.31 121.48 156.934 120.408 155.91 119.064C154.918 117.72 154.374 116.232 154.278 114.6H161.046C161.174 115.624 161.67 116.472 162.534 117.144C163.43 117.816 164.534 118.152 165.846 118.152C167.126 118.152 168.118 117.896 168.822 117.384C169.558 116.872 169.926 116.216 169.926 115.416C169.926 114.552 169.478 113.912 168.582 113.496C167.718 113.048 166.326 112.568 164.406 112.056C162.422 111.576 160.79 111.08 159.51 110.568C158.262 110.056 157.174 109.272 156.246 108.216C155.35 107.16 154.902 105.736 154.902 103.944C154.902 102.472 155.318 101.128 156.15 99.912C157.014 98.696 158.23 97.736 159.798 97.032C161.398 96.328 163.27 95.976 165.414 95.976C168.582 95.976 171.11 96.776 172.998 98.376C174.886 99.944 175.926 102.072 176.118 104.76H169.686C169.59 103.704 169.142 102.872 168.342 102.264C167.574 101.624 166.534 101.304 165.222 101.304C164.006 101.304 163.062 101.528 162.39 101.976C161.75 102.424 161.43 103.048 161.43 103.848C161.43 104.744 161.878 105.432 162.774 105.912C163.67 106.36 165.062 106.824 166.95 107.304C168.87 107.784 170.454 108.28 171.702 108.792C172.95 109.304 174.022 110.104 174.918 111.192C175.846 112.248 176.326 113.656 176.358 115.416C176.358 116.952 175.926 118.328 175.062 119.544C174.23 120.76 173.014 121.72 171.414 122.424C169.846 123.096 168.006 123.432 165.894 123.432Z" fill="url(#paint1_radial)"/>
<g style="mix-blend-mode:multiply" opacity="0.86">
<path d="M53.252 134.48C53.252 133.964 53.348 133.511 53.54 133.121C53.738 132.731 54.005 132.431 54.341 132.221C54.677 132.011 55.052 131.906 55.466 131.906C55.796 131.906 56.096 131.975 56.366 132.113C56.642 132.251 56.858 132.437 57.014 132.671V130.34H58.553V137H57.014V136.28C56.87 136.52 56.663 136.712 56.393 136.856C56.129 137 55.82 137.072 55.466 137.072C55.052 137.072 54.677 136.967 54.341 136.757C54.005 136.541 53.738 136.238 53.54 135.848C53.348 135.452 53.252 134.996 53.252 134.48ZM57.014 134.489C57.014 134.105 56.906 133.802 56.69 133.58C56.48 133.358 56.222 133.247 55.916 133.247C55.61 133.247 55.349 133.358 55.133 133.58C54.923 133.796 54.818 134.096 54.818 134.48C54.818 134.864 54.923 135.17 55.133 135.398C55.349 135.62 55.61 135.731 55.916 135.731C56.222 135.731 56.48 135.62 56.69 135.398C56.906 135.176 57.014 134.873 57.014 134.489ZM64.3104 131.456C64.0404 131.456 63.8184 131.378 63.6444 131.222C63.4764 131.06 63.3924 130.862 63.3924 130.628C63.3924 130.388 63.4764 130.19 63.6444 130.034C63.8184 129.872 64.0404 129.791 64.3104 129.791C64.5744 129.791 64.7904 129.872 64.9584 130.034C65.1324 130.19 65.2194 130.388 65.2194 130.628C65.2194 130.862 65.1324 131.06 64.9584 131.222C64.7904 131.378 64.5744 131.456 64.3104 131.456ZM65.0754 131.978V137H63.5364V131.978H65.0754ZM72.1037 137.072C71.6657 137.072 71.2757 136.997 70.9337 136.847C70.5917 136.697 70.3217 136.493 70.1237 136.235C69.9257 135.971 69.8147 135.677 69.7907 135.353H71.3117C71.3297 135.527 71.4107 135.668 71.5547 135.776C71.6987 135.884 71.8757 135.938 72.0857 135.938C72.2777 135.938 72.4247 135.902 72.5267 135.83C72.6347 135.752 72.6887 135.653 72.6887 135.533C72.6887 135.389 72.6137 135.284 72.4637 135.218C72.3137 135.146 72.0707 135.068 71.7347 134.984C71.3747 134.9 71.0747 134.813 70.8347 134.723C70.5947 134.627 70.3877 134.48 70.2137 134.282C70.0397 134.078 69.9527 133.805 69.9527 133.463C69.9527 133.175 70.0307 132.914 70.1867 132.68C70.3487 132.44 70.5827 132.251 70.8887 132.113C71.2007 131.975 71.5697 131.906 71.9957 131.906C72.6257 131.906 73.1207 132.062 73.4807 132.374C73.8467 132.686 74.0567 133.1 74.1107 133.616H72.6887C72.6647 133.442 72.5867 133.304 72.4547 133.202C72.3287 133.1 72.1607 133.049 71.9507 133.049C71.7707 133.049 71.6327 133.085 71.5367 133.157C71.4407 133.223 71.3927 133.316 71.3927 133.436C71.3927 133.58 71.4677 133.688 71.6177 133.76C71.7737 133.832 72.0137 133.904 72.3377 133.976C72.7097 134.072 73.0127 134.168 73.2467 134.264C73.4807 134.354 73.6847 134.504 73.8587 134.714C74.0387 134.918 74.1317 135.194 74.1377 135.542C74.1377 135.836 74.0537 136.1 73.8857 136.334C73.7237 136.562 73.4867 136.742 73.1747 136.874C72.8687 137.006 72.5117 137.072 72.1037 137.072ZM81.7483 135.695V137H80.9653C80.4073 137 79.9723 136.865 79.6603 136.595C79.3483 136.319 79.1923 135.872 79.1923 135.254V133.256H78.5803V131.978H79.1923V130.754H80.7313V131.978H81.7393V133.256H80.7313V135.272C80.7313 135.422 80.7673 135.53 80.8393 135.596C80.9113 135.662 81.0313 135.695 81.1993 135.695H81.7483ZM88.0145 132.815C88.1945 132.539 88.4195 132.323 88.6895 132.167C88.9595 132.005 89.2595 131.924 89.5895 131.924V133.553H89.1665C88.7825 133.553 88.4945 133.637 88.3025 133.805C88.1105 133.967 88.0145 134.255 88.0145 134.669V137H86.4755V131.978H88.0145V132.815ZM94.9691 131.456C94.6991 131.456 94.4771 131.378 94.3031 131.222C94.1351 131.06 94.0511 130.862 94.0511 130.628C94.0511 130.388 94.1351 130.19 94.3031 130.034C94.4771 129.872 94.6991 129.791 94.9691 129.791C95.2331 129.791 95.4491 129.872 95.6171 130.034C95.7911 130.19 95.8781 130.388 95.8781 130.628C95.8781 130.862 95.7911 131.06 95.6171 131.222C95.4491 131.378 95.2331 131.456 94.9691 131.456ZM95.7341 131.978V137H94.1951V131.978H95.7341ZM102.258 132.689C102.402 132.455 102.609 132.266 102.879 132.122C103.149 131.978 103.458 131.906 103.806 131.906C104.22 131.906 104.595 132.011 104.931 132.221C105.267 132.431 105.531 132.731 105.723 133.121C105.921 133.511 106.02 133.964 106.02 134.48C106.02 134.996 105.921 135.452 105.723 135.848C105.531 136.238 105.267 136.541 104.931 136.757C104.595 136.967 104.22 137.072 103.806 137.072C103.452 137.072 103.143 137.003 102.879 136.865C102.615 136.721 102.408 136.532 102.258 136.298V137H100.719V130.34H102.258V132.689ZM104.454 134.48C104.454 134.096 104.346 133.796 104.13 133.58C103.92 133.358 103.659 133.247 103.347 133.247C103.041 133.247 102.78 133.358 102.564 133.58C102.354 133.802 102.249 134.105 102.249 134.489C102.249 134.873 102.354 135.176 102.564 135.398C102.78 135.62 103.041 135.731 103.347 135.731C103.653 135.731 103.914 135.62 104.13 135.398C104.346 135.17 104.454 134.864 104.454 134.48ZM115.657 131.978V137H114.118V136.316C113.962 136.538 113.749 136.718 113.479 136.856C113.215 136.988 112.921 137.054 112.597 137.054C112.213 137.054 111.874 136.97 111.58 136.802C111.286 136.628 111.058 136.379 110.896 136.055C110.734 135.731 110.653 135.35 110.653 134.912V131.978H112.183V134.705C112.183 135.041 112.27 135.302 112.444 135.488C112.618 135.674 112.852 135.767 113.146 135.767C113.446 135.767 113.683 135.674 113.857 135.488C114.031 135.302 114.118 135.041 114.118 134.705V131.978H115.657ZM123.431 135.695V137H122.648C122.09 137 121.655 136.865 121.343 136.595C121.031 136.319 120.875 135.872 120.875 135.254V133.256H120.263V131.978H120.875V130.754H122.414V131.978H123.422V133.256H122.414V135.272C122.414 135.422 122.45 135.53 122.522 135.596C122.594 135.662 122.714 135.695 122.882 135.695H123.431ZM128.933 131.456C128.663 131.456 128.441 131.378 128.267 131.222C128.099 131.06 128.015 130.862 128.015 130.628C128.015 130.388 128.099 130.19 128.267 130.034C128.441 129.872 128.663 129.791 128.933 129.791C129.197 129.791 129.413 129.872 129.581 130.034C129.755 130.19 129.842 130.388 129.842 130.628C129.842 130.862 129.755 131.06 129.581 131.222C129.413 131.378 129.197 131.456 128.933 131.456ZM129.698 131.978V137H128.159V131.978H129.698ZM136.969 137.072C136.477 137.072 136.033 136.967 135.637 136.757C135.247 136.547 134.938 136.247 134.71 135.857C134.488 135.467 134.377 135.011 134.377 134.489C134.377 133.973 134.491 133.52 134.719 133.13C134.947 132.734 135.259 132.431 135.655 132.221C136.051 132.011 136.495 131.906 136.987 131.906C137.479 131.906 137.923 132.011 138.319 132.221C138.715 132.431 139.027 132.734 139.255 133.13C139.483 133.52 139.597 133.973 139.597 134.489C139.597 135.005 139.48 135.461 139.246 135.857C139.018 136.247 138.703 136.547 138.301 136.757C137.905 136.967 137.461 137.072 136.969 137.072ZM136.969 135.74C137.263 135.74 137.512 135.632 137.716 135.416C137.926 135.2 138.031 134.891 138.031 134.489C138.031 134.087 137.929 133.778 137.725 133.562C137.527 133.346 137.281 133.238 136.987 133.238C136.687 133.238 136.438 133.346 136.24 133.562C136.042 133.772 135.943 134.081 135.943 134.489C135.943 134.891 136.039 135.2 136.231 135.416C136.429 135.632 136.675 135.74 136.969 135.74ZM147.343 131.924C147.931 131.924 148.399 132.116 148.747 132.5C149.101 132.878 149.278 133.4 149.278 134.066V137H147.748V134.273C147.748 133.937 147.661 133.676 147.487 133.49C147.313 133.304 147.079 133.211 146.785 133.211C146.491 133.211 146.257 133.304 146.083 133.49C145.909 133.676 145.822 133.937 145.822 134.273V137H144.283V131.978H145.822V132.644C145.978 132.422 146.188 132.248 146.452 132.122C146.716 131.99 147.013 131.924 147.343 131.924ZM154.479 135.578L153.48 138.161H152.499L153.021 135.578H154.479ZM162.273 130.34V137H160.734V130.34H162.273ZM167.087 130.34V137H165.548V130.34H167.087ZM170.777 134.489C170.777 133.967 170.882 133.511 171.092 133.121C171.308 132.731 171.605 132.431 171.983 132.221C172.367 132.011 172.805 131.906 173.297 131.906C173.927 131.906 174.452 132.071 174.872 132.401C175.298 132.731 175.577 133.196 175.709 133.796H174.071C173.933 133.412 173.666 133.22 173.27 133.22C172.988 133.22 172.763 133.331 172.595 133.553C172.427 133.769 172.343 134.081 172.343 134.489C172.343 134.897 172.427 135.212 172.595 135.434C172.763 135.65 172.988 135.758 173.27 135.758C173.666 135.758 173.933 135.566 174.071 135.182H175.709C175.577 135.77 175.298 136.232 174.872 136.568C174.446 136.904 173.921 137.072 173.297 137.072C172.805 137.072 172.367 136.967 171.983 136.757C171.605 136.547 171.308 136.247 171.092 135.857C170.882 135.467 170.777 135.011 170.777 134.489Z" fill="#386895"/>
</g>
<g style="mix-blend-mode:color-burn" filter="url(#filter0_f)">
<mask id="mask0" mask-type="alpha" maskUnits="userSpaceOnUse" x="34" y="34" width="154" height="154">
<circle cx="110.718" cy="110.718" r="40.5" stroke="#90BFDA" stroke-width="72" stroke-linecap="round"/>
</mask>
<g mask="url(#mask0)">
<rect x="111.218" y="-16.7822" width="93" height="128" fill="url(#paint2_linear)"/>
</g>
</g>
<g style="mix-blend-mode:color-burn" filter="url(#filter1_f)">
<mask id="mask1" mask-type="alpha" maskUnits="userSpaceOnUse" x="11" y="11" width="200" height="200">
<circle cx="110.718" cy="110.718" r="40.5" transform="rotate(157.822 110.718 110.718)" stroke="#90BFDA" stroke-width="72" stroke-linecap="round"/>
</mask>
<g mask="url(#mask1)">
<rect x="158.384" y="228.974" width="93" height="128" transform="rotate(157.822 158.384 228.974)" fill="url(#paint3_linear)"/>
</g>
</g>
<g style="mix-blend-mode:color-burn" filter="url(#filter2_f)">
<mask id="mask2" mask-type="alpha" maskUnits="userSpaceOnUse" x="21" y="21" width="180" height="180">
<circle cx="110.718" cy="110.718" r="36" transform="rotate(129.772 110.718 110.718)" stroke="#90BFDA" stroke-width="54.8166" stroke-linecap="round"/>
</mask>
<g mask="url(#mask2)">
<rect x="191.679" y="178.644" width="77.0846" height="106.095" transform="rotate(129.772 191.679 178.644)" fill="url(#paint4_linear)"/>
</g>
</g>
<g style="mix-blend-mode:color-burn" filter="url(#filter3_f)">
<mask id="mask3" mask-type="alpha" maskUnits="userSpaceOnUse" x="23" y="23" width="175" height="175">
<circle cx="110.718" cy="110.718" r="36" transform="rotate(-59.4215 110.718 110.718)" stroke="#90BFDA" stroke-width="54.8166" stroke-linecap="round"/>
</mask>
<g mask="url(#mask3)">
<rect x="19.9452" y="56.5994" width="77.0846" height="106.095" transform="rotate(-59.4215 19.9452 56.5994)" fill="url(#paint5_linear)"/>
</g>
</g>
<defs>
<filter id="filter0_f" x="88.2178" y="11.2178" width="122" height="123" filterUnits="userSpaceOnUse" color-interpolation-filters="sRGB">
<feFlood flood-opacity="0" result="BackgroundImageFix"/>
<feBlend mode="normal" in="SourceGraphic" in2="BackgroundImageFix" result="shape"/>
<feGaussianBlur stdDeviation="11.5" result="effect1_foregroundBlur"/>
</filter>
<filter id="filter1_f" x="0.946655" y="87.4436" width="180.438" height="145.992" filterUnits="userSpaceOnUse" color-interpolation-filters="sRGB">
<feFlood flood-opacity="0" result="BackgroundImageFix"/>
<feBlend mode="normal" in="SourceGraphic" in2="BackgroundImageFix" result="shape"/>
<feGaussianBlur stdDeviation="11.5" result="effect1_foregroundBlur"/>
</filter>
<filter id="filter2_f" x="37.8207" y="87.7714" width="176.858" height="135.246" filterUnits="userSpaceOnUse" color-interpolation-filters="sRGB">
<feFlood flood-opacity="0" result="BackgroundImageFix"/>
<feBlend mode="normal" in="SourceGraphic" in2="BackgroundImageFix" result="shape"/>
<feGaussianBlur stdDeviation="11.5" result="effect1_foregroundBlur"/>
</filter>
<filter id="filter3_f" x="0.87085" y="0.870483" width="172.629" height="132.701" filterUnits="userSpaceOnUse" color-interpolation-filters="sRGB">
<feFlood flood-opacity="0" result="BackgroundImageFix"/>
<feBlend mode="normal" in="SourceGraphic" in2="BackgroundImageFix" result="shape"/>
<feGaussianBlur stdDeviation="11.5" result="effect1_foregroundBlur"/>
</filter>
<radialGradient id="paint0_radial" cx="0" cy="0" r="1" gradientUnits="userSpaceOnUse" gradientTransform="translate(99.7179 99.7179) rotate(90) scale(81.7821)">
<stop offset="0.514051" stop-color="#6C93B8"/>
<stop offset="1" stop-color="#4A87BF" stop-opacity="0"/>
</radialGradient>
<radialGradient id="paint1_radial" cx="0" cy="0" r="1" gradientUnits="userSpaceOnUse" gradientTransform="translate(111 110.5) rotate(88.2101) scale(32.0155 147.94)">
<stop stop-color="white"/>
<stop offset="0.711458" stop-color="#A0B8CD" stop-opacity="0.72"/>
</radialGradient>
<linearGradient id="paint2_linear" x1="157.718" y1="-16.7822" x2="157.718" y2="111.218" gradientUnits="userSpaceOnUse">
<stop offset="0.440625" stop-color="#E9E3FB" stop-opacity="0"/>
<stop offset="0.820833" stop-color="#EFB6B6"/>
</linearGradient>
<linearGradient id="paint3_linear" x1="204.884" y1="228.974" x2="204.884" y2="356.974" gradientUnits="userSpaceOnUse">
<stop offset="0.440625" stop-color="#E9E3FB" stop-opacity="0"/>
<stop offset="0.820833" stop-color="#EFB6B6"/>
</linearGradient>
<linearGradient id="paint4_linear" x1="230.221" y1="178.644" x2="230.221" y2="284.739" gradientUnits="userSpaceOnUse">
<stop offset="0.440625" stop-color="#E9E3FB" stop-opacity="0"/>
<stop offset="0.820833" stop-color="#EFB6B6"/>
</linearGradient>
<linearGradient id="paint5_linear" x1="58.4875" y1="56.5994" x2="58.4875" y2="162.694" gradientUnits="userSpaceOnUse">
<stop offset="0.440625" stop-color="#E9E3FB" stop-opacity="0"/>
<stop offset="0.820833" stop-color="#EFB6B6"/>
</linearGradient>
</defs>
</svg>
