<svg width="200" height="203" viewBox="0 0 200 203" fill="none" xmlns="http://www.w3.org/2000/svg">
<rect width="199.436" height="199.436" fill="#4A87BF"/>
<rect width="199.436" height="199.436" fill="url(#paint0_radial)"/>
<path d="M38.4381 78.496V83.92H24.4701V92.512H35.1741V97.84H24.4701V112H17.7501V78.496H38.4381ZM45.8913 82.24C44.7073 82.24 43.7153 81.872 42.9153 81.136C42.1473 80.368 41.7633 79.424 41.7633 78.304C41.7633 77.184 42.1473 76.256 42.9153 75.52C43.7153 74.752 44.7073 74.368 45.8913 74.368C47.0753 74.368 48.0513 74.752 48.8193 75.52C49.6193 76.256 50.0193 77.184 50.0193 78.304C50.0193 79.424 49.6193 80.368 48.8193 81.136C48.0513 81.872 47.0753 82.24 45.8913 82.24ZM49.2033 85.408V112H42.4833V85.408H49.2033ZM54.1146 98.608C54.1146 95.92 54.6426 93.536 55.6986 91.456C56.7866 89.376 58.2586 87.776 60.1146 86.656C61.9706 85.536 64.0346 84.976 66.3066 84.976C68.0346 84.976 69.6826 85.36 71.2506 86.128C72.8186 86.864 74.0666 87.856 74.9946 89.104V76.48H81.8106V112H74.9946V108.064C74.1626 109.376 72.9946 110.432 71.4906 111.232C69.9866 112.032 68.2426 112.432 66.2586 112.432C64.0186 112.432 61.9706 111.856 60.1146 110.704C58.2586 109.552 56.7866 107.936 55.6986 105.856C54.6426 103.744 54.1146 101.328 54.1146 98.608ZM75.0426 98.704C75.0426 97.072 74.7226 95.68 74.0826 94.528C73.4426 93.344 72.5786 92.448 71.4906 91.84C70.4026 91.2 69.2346 90.88 67.9866 90.88C66.7386 90.88 65.5866 91.184 64.5306 91.792C63.4746 92.4 62.6106 93.296 61.9386 94.48C61.2986 95.632 60.9786 97.008 60.9786 98.608C60.9786 100.208 61.2986 101.616 61.9386 102.832C62.6106 104.016 63.4746 104.928 64.5306 105.568C65.6186 106.208 66.7706 106.528 67.9866 106.528C69.2346 106.528 70.4026 106.224 71.4906 105.616C72.5786 104.976 73.4426 104.08 74.0826 102.928C74.7226 101.744 75.0426 100.336 75.0426 98.704ZM113.094 98.128C113.094 99.088 113.03 99.952 112.902 100.72H93.4619C93.6219 102.64 94.2939 104.144 95.4779 105.232C96.6619 106.32 98.1179 106.864 99.8459 106.864C102.342 106.864 104.118 105.792 105.174 103.648H112.422C111.654 106.208 110.182 108.32 108.006 109.984C105.83 111.616 103.158 112.432 99.9899 112.432C97.4299 112.432 95.1259 111.872 93.0779 110.752C91.0619 109.6 89.4779 107.984 88.3259 105.904C87.2059 103.824 86.6459 101.424 86.6459 98.704C86.6459 95.952 87.2059 93.536 88.3259 91.456C89.4459 89.376 91.0139 87.776 93.0299 86.656C95.0459 85.536 97.3659 84.976 99.9899 84.976C102.518 84.976 104.774 85.52 106.758 86.608C108.774 87.696 110.326 89.248 111.414 91.264C112.534 93.248 113.094 95.536 113.094 98.128ZM106.134 96.208C106.102 94.48 105.478 93.104 104.262 92.08C103.046 91.024 101.558 90.496 99.7979 90.496C98.1339 90.496 96.7259 91.008 95.5739 92.032C94.4539 93.024 93.7659 94.416 93.5099 96.208H106.134ZM124.719 76.48V112H117.999V76.48H124.719ZM134.766 82.24C133.582 82.24 132.59 81.872 131.79 81.136C131.022 80.368 130.638 79.424 130.638 78.304C130.638 77.184 131.022 76.256 131.79 75.52C132.59 74.752 133.582 74.368 134.766 74.368C135.95 74.368 136.926 74.752 137.694 75.52C138.494 76.256 138.894 77.184 138.894 78.304C138.894 79.424 138.494 80.368 137.694 81.136C136.926 81.872 135.95 82.24 134.766 82.24ZM138.078 85.408V112H131.358V85.408H138.078ZM154.894 112.432C152.718 112.432 150.766 112.048 149.038 111.28C147.31 110.48 145.934 109.408 144.91 108.064C143.918 106.72 143.374 105.232 143.278 103.6H150.046C150.174 104.624 150.67 105.472 151.534 106.144C152.43 106.816 153.534 107.152 154.846 107.152C156.126 107.152 157.118 106.896 157.822 106.384C158.558 105.872 158.926 105.216 158.926 104.416C158.926 103.552 158.478 102.912 157.582 102.496C156.718 102.048 155.326 101.568 153.406 101.056C151.422 100.576 149.79 100.08 148.51 99.568C147.262 99.056 146.174 98.272 145.246 97.216C144.35 96.16 143.902 94.736 143.902 92.944C143.902 91.472 144.318 90.128 145.15 88.912C146.014 87.696 147.23 86.736 148.798 86.032C150.398 85.328 152.27 84.976 154.414 84.976C157.582 84.976 160.11 85.776 161.998 87.376C163.886 88.944 164.926 91.072 165.118 93.76H158.686C158.59 92.704 158.142 91.872 157.342 91.264C156.574 90.624 155.534 90.304 154.222 90.304C153.006 90.304 152.062 90.528 151.39 90.976C150.75 91.424 150.43 92.048 150.43 92.848C150.43 93.744 150.878 94.432 151.774 94.912C152.67 95.36 154.062 95.824 155.95 96.304C157.87 96.784 159.454 97.28 160.702 97.792C161.95 98.304 163.022 99.104 163.918 100.192C164.846 101.248 165.326 102.656 165.358 104.416C165.358 105.952 164.926 107.328 164.062 108.544C163.23 109.76 162.014 110.72 160.414 111.424C158.846 112.096 157.006 112.432 154.894 112.432Z" fill="white" fill-opacity="0.79"/>
<path d="M38.4381 78.496V83.92H24.4701V92.512H35.1741V97.84H24.4701V112H17.7501V78.496H38.4381ZM45.8913 82.24C44.7073 82.24 43.7153 81.872 42.9153 81.136C42.1473 80.368 41.7633 79.424 41.7633 78.304C41.7633 77.184 42.1473 76.256 42.9153 75.52C43.7153 74.752 44.7073 74.368 45.8913 74.368C47.0753 74.368 48.0513 74.752 48.8193 75.52C49.6193 76.256 50.0193 77.184 50.0193 78.304C50.0193 79.424 49.6193 80.368 48.8193 81.136C48.0513 81.872 47.0753 82.24 45.8913 82.24ZM49.2033 85.408V112H42.4833V85.408H49.2033ZM54.1146 98.608C54.1146 95.92 54.6426 93.536 55.6986 91.456C56.7866 89.376 58.2586 87.776 60.1146 86.656C61.9706 85.536 64.0346 84.976 66.3066 84.976C68.0346 84.976 69.6826 85.36 71.2506 86.128C72.8186 86.864 74.0666 87.856 74.9946 89.104V76.48H81.8106V112H74.9946V108.064C74.1626 109.376 72.9946 110.432 71.4906 111.232C69.9866 112.032 68.2426 112.432 66.2586 112.432C64.0186 112.432 61.9706 111.856 60.1146 110.704C58.2586 109.552 56.7866 107.936 55.6986 105.856C54.6426 103.744 54.1146 101.328 54.1146 98.608ZM75.0426 98.704C75.0426 97.072 74.7226 95.68 74.0826 94.528C73.4426 93.344 72.5786 92.448 71.4906 91.84C70.4026 91.2 69.2346 90.88 67.9866 90.88C66.7386 90.88 65.5866 91.184 64.5306 91.792C63.4746 92.4 62.6106 93.296 61.9386 94.48C61.2986 95.632 60.9786 97.008 60.9786 98.608C60.9786 100.208 61.2986 101.616 61.9386 102.832C62.6106 104.016 63.4746 104.928 64.5306 105.568C65.6186 106.208 66.7706 106.528 67.9866 106.528C69.2346 106.528 70.4026 106.224 71.4906 105.616C72.5786 104.976 73.4426 104.08 74.0826 102.928C74.7226 101.744 75.0426 100.336 75.0426 98.704ZM113.094 98.128C113.094 99.088 113.03 99.952 112.902 100.72H93.4619C93.6219 102.64 94.2939 104.144 95.4779 105.232C96.6619 106.32 98.1179 106.864 99.8459 106.864C102.342 106.864 104.118 105.792 105.174 103.648H112.422C111.654 106.208 110.182 108.32 108.006 109.984C105.83 111.616 103.158 112.432 99.9899 112.432C97.4299 112.432 95.1259 111.872 93.0779 110.752C91.0619 109.6 89.4779 107.984 88.3259 105.904C87.2059 103.824 86.6459 101.424 86.6459 98.704C86.6459 95.952 87.2059 93.536 88.3259 91.456C89.4459 89.376 91.0139 87.776 93.0299 86.656C95.0459 85.536 97.3659 84.976 99.9899 84.976C102.518 84.976 104.774 85.52 106.758 86.608C108.774 87.696 110.326 89.248 111.414 91.264C112.534 93.248 113.094 95.536 113.094 98.128ZM106.134 96.208C106.102 94.48 105.478 93.104 104.262 92.08C103.046 91.024 101.558 90.496 99.7979 90.496C98.1339 90.496 96.7259 91.008 95.5739 92.032C94.4539 93.024 93.7659 94.416 93.5099 96.208H106.134ZM124.719 76.48V112H117.999V76.48H124.719ZM134.766 82.24C133.582 82.24 132.59 81.872 131.79 81.136C131.022 80.368 130.638 79.424 130.638 78.304C130.638 77.184 131.022 76.256 131.79 75.52C132.59 74.752 133.582 74.368 134.766 74.368C135.95 74.368 136.926 74.752 137.694 75.52C138.494 76.256 138.894 77.184 138.894 78.304C138.894 79.424 138.494 80.368 137.694 81.136C136.926 81.872 135.95 82.24 134.766 82.24ZM138.078 85.408V112H131.358V85.408H138.078ZM154.894 112.432C152.718 112.432 150.766 112.048 149.038 111.28C147.31 110.48 145.934 109.408 144.91 108.064C143.918 106.72 143.374 105.232 143.278 103.6H150.046C150.174 104.624 150.67 105.472 151.534 106.144C152.43 106.816 153.534 107.152 154.846 107.152C156.126 107.152 157.118 106.896 157.822 106.384C158.558 105.872 158.926 105.216 158.926 104.416C158.926 103.552 158.478 102.912 157.582 102.496C156.718 102.048 155.326 101.568 153.406 101.056C151.422 100.576 149.79 100.08 148.51 99.568C147.262 99.056 146.174 98.272 145.246 97.216C144.35 96.16 143.902 94.736 143.902 92.944C143.902 91.472 144.318 90.128 145.15 88.912C146.014 87.696 147.23 86.736 148.798 86.032C150.398 85.328 152.27 84.976 154.414 84.976C157.582 84.976 160.11 85.776 161.998 87.376C163.886 88.944 164.926 91.072 165.118 93.76H158.686C158.59 92.704 158.142 91.872 157.342 91.264C156.574 90.624 155.534 90.304 154.222 90.304C153.006 90.304 152.062 90.528 151.39 90.976C150.75 91.424 150.43 92.048 150.43 92.848C150.43 93.744 150.878 94.432 151.774 94.912C152.67 95.36 154.062 95.824 155.95 96.304C157.87 96.784 159.454 97.28 160.702 97.792C161.95 98.304 163.022 99.104 163.918 100.192C164.846 101.248 165.326 102.656 165.358 104.416C165.358 105.952 164.926 107.328 164.062 108.544C163.23 109.76 162.014 110.72 160.414 111.424C158.846 112.096 157.006 112.432 154.894 112.432Z" fill="url(#paint1_radial)"/>
<path d="M42.252 123.48C42.252 122.964 42.348 122.511 42.54 122.121C42.738 121.731 43.005 121.431 43.341 121.221C43.677 121.011 44.052 120.906 44.466 120.906C44.796 120.906 45.096 120.975 45.366 121.113C45.642 121.251 45.858 121.437 46.014 121.671V119.34H47.553V126H46.014V125.28C45.87 125.52 45.663 125.712 45.393 125.856C45.129 126 44.82 126.072 44.466 126.072C44.052 126.072 43.677 125.967 43.341 125.757C43.005 125.541 42.738 125.238 42.54 124.848C42.348 124.452 42.252 123.996 42.252 123.48ZM46.014 123.489C46.014 123.105 45.906 122.802 45.69 122.58C45.48 122.358 45.222 122.247 44.916 122.247C44.61 122.247 44.349 122.358 44.133 122.58C43.923 122.796 43.818 123.096 43.818 123.48C43.818 123.864 43.923 124.17 44.133 124.398C44.349 124.62 44.61 124.731 44.916 124.731C45.222 124.731 45.48 124.62 45.69 124.398C45.906 124.176 46.014 123.873 46.014 123.489ZM53.3104 120.456C53.0404 120.456 52.8184 120.378 52.6444 120.222C52.4764 120.06 52.3924 119.862 52.3924 119.628C52.3924 119.388 52.4764 119.19 52.6444 119.034C52.8184 118.872 53.0404 118.791 53.3104 118.791C53.5744 118.791 53.7904 118.872 53.9584 119.034C54.1324 119.19 54.2194 119.388 54.2194 119.628C54.2194 119.862 54.1324 120.06 53.9584 120.222C53.7904 120.378 53.5744 120.456 53.3104 120.456ZM54.0754 120.978V126H52.5364V120.978H54.0754ZM61.1037 126.072C60.6657 126.072 60.2757 125.997 59.9337 125.847C59.5917 125.697 59.3217 125.493 59.1237 125.235C58.9257 124.971 58.8147 124.677 58.7907 124.353H60.3117C60.3297 124.527 60.4107 124.668 60.5547 124.776C60.6987 124.884 60.8757 124.938 61.0857 124.938C61.2777 124.938 61.4247 124.902 61.5267 124.83C61.6347 124.752 61.6887 124.653 61.6887 124.533C61.6887 124.389 61.6137 124.284 61.4637 124.218C61.3137 124.146 61.0707 124.068 60.7347 123.984C60.3747 123.9 60.0747 123.813 59.8347 123.723C59.5947 123.627 59.3877 123.48 59.2137 123.282C59.0397 123.078 58.9527 122.805 58.9527 122.463C58.9527 122.175 59.0307 121.914 59.1867 121.68C59.3487 121.44 59.5827 121.251 59.8887 121.113C60.2007 120.975 60.5697 120.906 60.9957 120.906C61.6257 120.906 62.1207 121.062 62.4807 121.374C62.8467 121.686 63.0567 122.1 63.1107 122.616H61.6887C61.6647 122.442 61.5867 122.304 61.4547 122.202C61.3287 122.1 61.1607 122.049 60.9507 122.049C60.7707 122.049 60.6327 122.085 60.5367 122.157C60.4407 122.223 60.3927 122.316 60.3927 122.436C60.3927 122.58 60.4677 122.688 60.6177 122.76C60.7737 122.832 61.0137 122.904 61.3377 122.976C61.7097 123.072 62.0127 123.168 62.2467 123.264C62.4807 123.354 62.6847 123.504 62.8587 123.714C63.0387 123.918 63.1317 124.194 63.1377 124.542C63.1377 124.836 63.0537 125.1 62.8857 125.334C62.7237 125.562 62.4867 125.742 62.1747 125.874C61.8687 126.006 61.5117 126.072 61.1037 126.072ZM70.7483 124.695V126H69.9653C69.4073 126 68.9723 125.865 68.6603 125.595C68.3483 125.319 68.1923 124.872 68.1923 124.254V122.256H67.5803V120.978H68.1923V119.754H69.7313V120.978H70.7393V122.256H69.7313V124.272C69.7313 124.422 69.7673 124.53 69.8393 124.596C69.9113 124.662 70.0313 124.695 70.1993 124.695H70.7483ZM77.0145 121.815C77.1945 121.539 77.4195 121.323 77.6895 121.167C77.9595 121.005 78.2595 120.924 78.5895 120.924V122.553H78.1665C77.7825 122.553 77.4945 122.637 77.3025 122.805C77.1105 122.967 77.0145 123.255 77.0145 123.669V126H75.4755V120.978H77.0145V121.815ZM83.9691 120.456C83.6991 120.456 83.4771 120.378 83.3031 120.222C83.1351 120.06 83.0511 119.862 83.0511 119.628C83.0511 119.388 83.1351 119.19 83.3031 119.034C83.4771 118.872 83.6991 118.791 83.9691 118.791C84.2331 118.791 84.4491 118.872 84.6171 119.034C84.7911 119.19 84.8781 119.388 84.8781 119.628C84.8781 119.862 84.7911 120.06 84.6171 120.222C84.4491 120.378 84.2331 120.456 83.9691 120.456ZM84.7341 120.978V126H83.1951V120.978H84.7341ZM91.2584 121.689C91.4024 121.455 91.6094 121.266 91.8794 121.122C92.1494 120.978 92.4584 120.906 92.8064 120.906C93.2204 120.906 93.5954 121.011 93.9314 121.221C94.2674 121.431 94.5314 121.731 94.7234 122.121C94.9214 122.511 95.0204 122.964 95.0204 123.48C95.0204 123.996 94.9214 124.452 94.7234 124.848C94.5314 125.238 94.2674 125.541 93.9314 125.757C93.5954 125.967 93.2204 126.072 92.8064 126.072C92.4524 126.072 92.1434 126.003 91.8794 125.865C91.6154 125.721 91.4084 125.532 91.2584 125.298V126H89.7194V119.34H91.2584V121.689ZM93.4544 123.48C93.4544 123.096 93.3464 122.796 93.1304 122.58C92.9204 122.358 92.6594 122.247 92.3474 122.247C92.0414 122.247 91.7804 122.358 91.5644 122.58C91.3544 122.802 91.2494 123.105 91.2494 123.489C91.2494 123.873 91.3544 124.176 91.5644 124.398C91.7804 124.62 92.0414 124.731 92.3474 124.731C92.6534 124.731 92.9144 124.62 93.1304 124.398C93.3464 124.17 93.4544 123.864 93.4544 123.48ZM104.657 120.978V126H103.118V125.316C102.962 125.538 102.749 125.718 102.479 125.856C102.215 125.988 101.921 126.054 101.597 126.054C101.213 126.054 100.874 125.97 100.58 125.802C100.286 125.628 100.058 125.379 99.8958 125.055C99.7338 124.731 99.6528 124.35 99.6528 123.912V120.978H101.183V123.705C101.183 124.041 101.27 124.302 101.444 124.488C101.618 124.674 101.852 124.767 102.146 124.767C102.446 124.767 102.683 124.674 102.857 124.488C103.031 124.302 103.118 124.041 103.118 123.705V120.978H104.657ZM112.431 124.695V126H111.648C111.09 126 110.655 125.865 110.343 125.595C110.031 125.319 109.875 124.872 109.875 124.254V122.256H109.263V120.978H109.875V119.754H111.414V120.978H112.422V122.256H111.414V124.272C111.414 124.422 111.45 124.53 111.522 124.596C111.594 124.662 111.714 124.695 111.882 124.695H112.431ZM117.933 120.456C117.663 120.456 117.441 120.378 117.267 120.222C117.099 120.06 117.015 119.862 117.015 119.628C117.015 119.388 117.099 119.19 117.267 119.034C117.441 118.872 117.663 118.791 117.933 118.791C118.197 118.791 118.413 118.872 118.581 119.034C118.755 119.19 118.842 119.388 118.842 119.628C118.842 119.862 118.755 120.06 118.581 120.222C118.413 120.378 118.197 120.456 117.933 120.456ZM118.698 120.978V126H117.159V120.978H118.698ZM125.969 126.072C125.477 126.072 125.033 125.967 124.637 125.757C124.247 125.547 123.938 125.247 123.71 124.857C123.488 124.467 123.377 124.011 123.377 123.489C123.377 122.973 123.491 122.52 123.719 122.13C123.947 121.734 124.259 121.431 124.655 121.221C125.051 121.011 125.495 120.906 125.987 120.906C126.479 120.906 126.923 121.011 127.319 121.221C127.715 121.431 128.027 121.734 128.255 122.13C128.483 122.52 128.597 122.973 128.597 123.489C128.597 124.005 128.48 124.461 128.246 124.857C128.018 125.247 127.703 125.547 127.301 125.757C126.905 125.967 126.461 126.072 125.969 126.072ZM125.969 124.74C126.263 124.74 126.512 124.632 126.716 124.416C126.926 124.2 127.031 123.891 127.031 123.489C127.031 123.087 126.929 122.778 126.725 122.562C126.527 122.346 126.281 122.238 125.987 122.238C125.687 122.238 125.438 122.346 125.24 122.562C125.042 122.772 124.943 123.081 124.943 123.489C124.943 123.891 125.039 124.2 125.231 124.416C125.429 124.632 125.675 124.74 125.969 124.74ZM136.343 120.924C136.931 120.924 137.399 121.116 137.747 121.5C138.101 121.878 138.278 122.4 138.278 123.066V126H136.748V123.273C136.748 122.937 136.661 122.676 136.487 122.49C136.313 122.304 136.079 122.211 135.785 122.211C135.491 122.211 135.257 122.304 135.083 122.49C134.909 122.676 134.822 122.937 134.822 123.273V126H133.283V120.978H134.822V121.644C134.978 121.422 135.188 121.248 135.452 121.122C135.716 120.99 136.013 120.924 136.343 120.924ZM143.479 124.578L142.48 127.161H141.499L142.021 124.578H143.479ZM151.273 119.34V126H149.734V119.34H151.273ZM156.087 119.34V126H154.548V119.34H156.087ZM159.777 123.489C159.777 122.967 159.882 122.511 160.092 122.121C160.308 121.731 160.605 121.431 160.983 121.221C161.367 121.011 161.805 120.906 162.297 120.906C162.927 120.906 163.452 121.071 163.872 121.401C164.298 121.731 164.577 122.196 164.709 122.796H163.071C162.933 122.412 162.666 122.22 162.27 122.22C161.988 122.22 161.763 122.331 161.595 122.553C161.427 122.769 161.343 123.081 161.343 123.489C161.343 123.897 161.427 124.212 161.595 124.434C161.763 124.65 161.988 124.758 162.27 124.758C162.666 124.758 162.933 124.566 163.071 124.182H164.709C164.577 124.77 164.298 125.232 163.872 125.568C163.446 125.904 162.921 126.072 162.297 126.072C161.805 126.072 161.367 125.967 160.983 125.757C160.605 125.547 160.308 125.247 160.092 124.857C159.882 124.467 159.777 124.011 159.777 123.489Z" fill="#D3EAFF"/>
<g style="mix-blend-mode:color-burn" filter="url(#filter0_f)">
<mask id="mask0" mask-type="alpha" maskUnits="userSpaceOnUse" x="23" y="23" width="154" height="154">
<circle cx="99.7178" cy="99.7178" r="40.5" stroke="#90BFDA" stroke-width="72" stroke-linecap="round"/>
</mask>
<g mask="url(#mask0)">
<rect x="100.218" y="-27.7822" width="93" height="128" fill="url(#paint2_linear)"/>
</g>
</g>
<g style="mix-blend-mode:color-burn" filter="url(#filter1_f)">
<mask id="mask1" mask-type="alpha" maskUnits="userSpaceOnUse" x="0" y="0" width="200" height="200">
<circle cx="99.7179" cy="99.7179" r="40.5" transform="rotate(157.822 99.7179 99.7179)" stroke="#90BFDA" stroke-width="72" stroke-linecap="round"/>
</mask>
<g mask="url(#mask1)">
<rect x="147.384" y="217.974" width="93" height="128" transform="rotate(157.822 147.384 217.974)" fill="url(#paint3_linear)"/>
</g>
</g>
<g style="mix-blend-mode:color-burn" filter="url(#filter2_f)">
<mask id="mask2" mask-type="alpha" maskUnits="userSpaceOnUse" x="10" y="10" width="180" height="180">
<circle cx="99.7182" cy="99.7179" r="36" transform="rotate(129.772 99.7182 99.7179)" stroke="#90BFDA" stroke-width="54.8166" stroke-linecap="round"/>
</mask>
<g mask="url(#mask2)">
<rect x="180.679" y="167.644" width="77.0846" height="106.095" transform="rotate(129.772 180.679 167.644)" fill="url(#paint4_linear)"/>
</g>
</g>
<g style="mix-blend-mode:color-burn" filter="url(#filter3_f)">
<mask id="mask3" mask-type="alpha" maskUnits="userSpaceOnUse" x="12" y="12" width="175" height="175">
<circle cx="99.7182" cy="99.7178" r="36" transform="rotate(-59.4215 99.7182 99.7178)" stroke="#90BFDA" stroke-opacity="0.34" stroke-width="54.8166" stroke-linecap="round"/>
</mask>
<g mask="url(#mask3)">
<rect x="8.94519" y="45.5994" width="77.0846" height="106.095" transform="rotate(-59.4215 8.94519 45.5994)" fill="url(#paint5_linear)"/>
</g>
</g>
<defs>
<filter id="filter0_f" x="97.2178" y="20.2178" width="82" height="83" filterUnits="userSpaceOnUse" color-interpolation-filters="sRGB">
<feFlood flood-opacity="0" result="BackgroundImageFix"/>
<feBlend mode="normal" in="SourceGraphic" in2="BackgroundImageFix" result="shape"/>
<feGaussianBlur stdDeviation="1.5" result="effect1_foregroundBlur"/>
</filter>
<filter id="filter1_f" x="9.94666" y="96.4436" width="140.438" height="105.992" filterUnits="userSpaceOnUse" color-interpolation-filters="sRGB">
<feFlood flood-opacity="0" result="BackgroundImageFix"/>
<feBlend mode="normal" in="SourceGraphic" in2="BackgroundImageFix" result="shape"/>
<feGaussianBlur stdDeviation="1.5" result="effect1_foregroundBlur"/>
</filter>
<filter id="filter2_f" x="46.8207" y="96.7714" width="136.858" height="95.2465" filterUnits="userSpaceOnUse" color-interpolation-filters="sRGB">
<feFlood flood-opacity="0" result="BackgroundImageFix"/>
<feBlend mode="normal" in="SourceGraphic" in2="BackgroundImageFix" result="shape"/>
<feGaussianBlur stdDeviation="1.5" result="effect1_foregroundBlur"/>
</filter>
<filter id="filter3_f" x="9.87085" y="9.87048" width="132.629" height="92.7014" filterUnits="userSpaceOnUse" color-interpolation-filters="sRGB">
<feFlood flood-opacity="0" result="BackgroundImageFix"/>
<feBlend mode="normal" in="SourceGraphic" in2="BackgroundImageFix" result="shape"/>
<feGaussianBlur stdDeviation="1.5" result="effect1_foregroundBlur"/>
</filter>
<radialGradient id="paint0_radial" cx="0" cy="0" r="1" gradientUnits="userSpaceOnUse" gradientTransform="translate(99.7179 99.7179) rotate(90) scale(99.2821)">
<stop offset="0.211458" stop-color="#BDD7E9" stop-opacity="0.65"/>
<stop offset="1" stop-color="#4A87BF" stop-opacity="0"/>
</radialGradient>
<radialGradient id="paint1_radial" cx="0" cy="0" r="1" gradientUnits="userSpaceOnUse" gradientTransform="translate(100 99.5001) rotate(88.2101) scale(32.0155 147.94)">
<stop stop-color="white"/>
<stop offset="0.711458" stop-color="#94B9DA" stop-opacity="0.72"/>
</radialGradient>
<linearGradient id="paint2_linear" x1="146.718" y1="-27.7822" x2="146.718" y2="100.218" gradientUnits="userSpaceOnUse">
<stop offset="0.440625" stop-color="#E9E3FB" stop-opacity="0"/>
<stop offset="0.820833" stop-color="#B6D0EF"/>
</linearGradient>
<linearGradient id="paint3_linear" x1="193.884" y1="217.974" x2="193.884" y2="345.974" gradientUnits="userSpaceOnUse">
<stop offset="0.440625" stop-color="#E9E3FB" stop-opacity="0"/>
<stop offset="0.820833" stop-color="#B6D0EF"/>
</linearGradient>
<linearGradient id="paint4_linear" x1="219.221" y1="167.644" x2="219.221" y2="273.739" gradientUnits="userSpaceOnUse">
<stop offset="0.440625" stop-color="#E9E3FB" stop-opacity="0"/>
<stop offset="0.820833" stop-color="#B6D0EF"/>
</linearGradient>
<linearGradient id="paint5_linear" x1="47.4875" y1="45.5994" x2="47.4875" y2="151.694" gradientUnits="userSpaceOnUse">
<stop offset="0.440625" stop-color="#E9E3FB" stop-opacity="0"/>
<stop offset="0.820833" stop-color="#B6D0EF"/>
</linearGradient>
</defs>
</svg>
