<svg width="241" height="241" viewBox="0 0 241 241" fill="none" xmlns="http://www.w3.org/2000/svg">
<g clip-path="url(#clip0)">
<rect width="241" height="241" fill="#090F27"/>
<rect width="241" height="241" fill="url(#paint0_radial)"/>
<path d="M59.4381 99.496V104.92H45.4701V113.512H56.1741V118.84H45.4701V133H38.7501V99.496H59.4381ZM66.8913 103.24C65.7073 103.24 64.7153 102.872 63.9153 102.136C63.1473 101.368 62.7633 100.424 62.7633 99.304C62.7633 98.184 63.1473 97.256 63.9153 96.52C64.7153 95.752 65.7073 95.368 66.8913 95.368C68.0753 95.368 69.0513 95.752 69.8193 96.52C70.6193 97.256 71.0193 98.184 71.0193 99.304C71.0193 100.424 70.6193 101.368 69.8193 102.136C69.0513 102.872 68.0753 103.24 66.8913 103.24ZM70.2033 106.408V133H63.4833V106.408H70.2033ZM75.1146 119.608C75.1146 116.92 75.6426 114.536 76.6986 112.456C77.7866 110.376 79.2586 108.776 81.1146 107.656C82.9706 106.536 85.0346 105.976 87.3066 105.976C89.0346 105.976 90.6826 106.36 92.2506 107.128C93.8186 107.864 95.0666 108.856 95.9946 110.104V97.48H102.811V133H95.9946V129.064C95.1626 130.376 93.9946 131.432 92.4906 132.232C90.9866 133.032 89.2426 133.432 87.2586 133.432C85.0186 133.432 82.9706 132.856 81.1146 131.704C79.2586 130.552 77.7866 128.936 76.6986 126.856C75.6426 124.744 75.1146 122.328 75.1146 119.608ZM96.0426 119.704C96.0426 118.072 95.7226 116.68 95.0826 115.528C94.4426 114.344 93.5786 113.448 92.4906 112.84C91.4026 112.2 90.2346 111.88 88.9866 111.88C87.7386 111.88 86.5866 112.184 85.5306 112.792C84.4746 113.4 83.6106 114.296 82.9386 115.48C82.2986 116.632 81.9786 118.008 81.9786 119.608C81.9786 121.208 82.2986 122.616 82.9386 123.832C83.6106 125.016 84.4746 125.928 85.5306 126.568C86.6186 127.208 87.7706 127.528 88.9866 127.528C90.2346 127.528 91.4026 127.224 92.4906 126.616C93.5786 125.976 94.4426 125.08 95.0826 123.928C95.7226 122.744 96.0426 121.336 96.0426 119.704ZM134.094 119.128C134.094 120.088 134.03 120.952 133.902 121.72H114.462C114.622 123.64 115.294 125.144 116.478 126.232C117.662 127.32 119.118 127.864 120.846 127.864C123.342 127.864 125.118 126.792 126.174 124.648H133.422C132.654 127.208 131.182 129.32 129.006 130.984C126.83 132.616 124.158 133.432 120.99 133.432C118.43 133.432 116.126 132.872 114.078 131.752C112.062 130.6 110.478 128.984 109.326 126.904C108.206 124.824 107.646 122.424 107.646 119.704C107.646 116.952 108.206 114.536 109.326 112.456C110.446 110.376 112.014 108.776 114.03 107.656C116.046 106.536 118.366 105.976 120.99 105.976C123.518 105.976 125.774 106.52 127.758 107.608C129.774 108.696 131.326 110.248 132.414 112.264C133.534 114.248 134.094 116.536 134.094 119.128ZM127.134 117.208C127.102 115.48 126.478 114.104 125.262 113.08C124.046 112.024 122.558 111.496 120.798 111.496C119.134 111.496 117.726 112.008 116.574 113.032C115.454 114.024 114.766 115.416 114.51 117.208H127.134ZM145.719 97.48V133H138.999V97.48H145.719ZM155.766 103.24C154.582 103.24 153.59 102.872 152.79 102.136C152.022 101.368 151.638 100.424 151.638 99.304C151.638 98.184 152.022 97.256 152.79 96.52C153.59 95.752 154.582 95.368 155.766 95.368C156.95 95.368 157.926 95.752 158.694 96.52C159.494 97.256 159.894 98.184 159.894 99.304C159.894 100.424 159.494 101.368 158.694 102.136C157.926 102.872 156.95 103.24 155.766 103.24ZM159.078 106.408V133H152.358V106.408H159.078ZM175.894 133.432C173.718 133.432 171.766 133.048 170.038 132.28C168.31 131.48 166.934 130.408 165.91 129.064C164.918 127.72 164.374 126.232 164.278 124.6H171.046C171.174 125.624 171.67 126.472 172.534 127.144C173.43 127.816 174.534 128.152 175.846 128.152C177.126 128.152 178.118 127.896 178.822 127.384C179.558 126.872 179.926 126.216 179.926 125.416C179.926 124.552 179.478 123.912 178.582 123.496C177.718 123.048 176.326 122.568 174.406 122.056C172.422 121.576 170.79 121.08 169.51 120.568C168.262 120.056 167.174 119.272 166.246 118.216C165.35 117.16 164.902 115.736 164.902 113.944C164.902 112.472 165.318 111.128 166.15 109.912C167.014 108.696 168.23 107.736 169.798 107.032C171.398 106.328 173.27 105.976 175.414 105.976C178.582 105.976 181.11 106.776 182.998 108.376C184.886 109.944 185.926 112.072 186.118 114.76H179.686C179.59 113.704 179.142 112.872 178.342 112.264C177.574 111.624 176.534 111.304 175.222 111.304C174.006 111.304 173.062 111.528 172.39 111.976C171.75 112.424 171.43 113.048 171.43 113.848C171.43 114.744 171.878 115.432 172.774 115.912C173.67 116.36 175.062 116.824 176.95 117.304C178.87 117.784 180.454 118.28 181.702 118.792C182.95 119.304 184.022 120.104 184.918 121.192C185.846 122.248 186.326 123.656 186.358 125.416C186.358 126.952 185.926 128.328 185.062 129.544C184.23 130.76 183.014 131.72 181.414 132.424C179.846 133.096 178.006 133.432 175.894 133.432Z" fill="white" fill-opacity="0.49"/>
<path d="M59.4381 99.496V104.92H45.4701V113.512H56.1741V118.84H45.4701V133H38.7501V99.496H59.4381ZM66.8913 103.24C65.7073 103.24 64.7153 102.872 63.9153 102.136C63.1473 101.368 62.7633 100.424 62.7633 99.304C62.7633 98.184 63.1473 97.256 63.9153 96.52C64.7153 95.752 65.7073 95.368 66.8913 95.368C68.0753 95.368 69.0513 95.752 69.8193 96.52C70.6193 97.256 71.0193 98.184 71.0193 99.304C71.0193 100.424 70.6193 101.368 69.8193 102.136C69.0513 102.872 68.0753 103.24 66.8913 103.24ZM70.2033 106.408V133H63.4833V106.408H70.2033ZM75.1146 119.608C75.1146 116.92 75.6426 114.536 76.6986 112.456C77.7866 110.376 79.2586 108.776 81.1146 107.656C82.9706 106.536 85.0346 105.976 87.3066 105.976C89.0346 105.976 90.6826 106.36 92.2506 107.128C93.8186 107.864 95.0666 108.856 95.9946 110.104V97.48H102.811V133H95.9946V129.064C95.1626 130.376 93.9946 131.432 92.4906 132.232C90.9866 133.032 89.2426 133.432 87.2586 133.432C85.0186 133.432 82.9706 132.856 81.1146 131.704C79.2586 130.552 77.7866 128.936 76.6986 126.856C75.6426 124.744 75.1146 122.328 75.1146 119.608ZM96.0426 119.704C96.0426 118.072 95.7226 116.68 95.0826 115.528C94.4426 114.344 93.5786 113.448 92.4906 112.84C91.4026 112.2 90.2346 111.88 88.9866 111.88C87.7386 111.88 86.5866 112.184 85.5306 112.792C84.4746 113.4 83.6106 114.296 82.9386 115.48C82.2986 116.632 81.9786 118.008 81.9786 119.608C81.9786 121.208 82.2986 122.616 82.9386 123.832C83.6106 125.016 84.4746 125.928 85.5306 126.568C86.6186 127.208 87.7706 127.528 88.9866 127.528C90.2346 127.528 91.4026 127.224 92.4906 126.616C93.5786 125.976 94.4426 125.08 95.0826 123.928C95.7226 122.744 96.0426 121.336 96.0426 119.704ZM134.094 119.128C134.094 120.088 134.03 120.952 133.902 121.72H114.462C114.622 123.64 115.294 125.144 116.478 126.232C117.662 127.32 119.118 127.864 120.846 127.864C123.342 127.864 125.118 126.792 126.174 124.648H133.422C132.654 127.208 131.182 129.32 129.006 130.984C126.83 132.616 124.158 133.432 120.99 133.432C118.43 133.432 116.126 132.872 114.078 131.752C112.062 130.6 110.478 128.984 109.326 126.904C108.206 124.824 107.646 122.424 107.646 119.704C107.646 116.952 108.206 114.536 109.326 112.456C110.446 110.376 112.014 108.776 114.03 107.656C116.046 106.536 118.366 105.976 120.99 105.976C123.518 105.976 125.774 106.52 127.758 107.608C129.774 108.696 131.326 110.248 132.414 112.264C133.534 114.248 134.094 116.536 134.094 119.128ZM127.134 117.208C127.102 115.48 126.478 114.104 125.262 113.08C124.046 112.024 122.558 111.496 120.798 111.496C119.134 111.496 117.726 112.008 116.574 113.032C115.454 114.024 114.766 115.416 114.51 117.208H127.134ZM145.719 97.48V133H138.999V97.48H145.719ZM155.766 103.24C154.582 103.24 153.59 102.872 152.79 102.136C152.022 101.368 151.638 100.424 151.638 99.304C151.638 98.184 152.022 97.256 152.79 96.52C153.59 95.752 154.582 95.368 155.766 95.368C156.95 95.368 157.926 95.752 158.694 96.52C159.494 97.256 159.894 98.184 159.894 99.304C159.894 100.424 159.494 101.368 158.694 102.136C157.926 102.872 156.95 103.24 155.766 103.24ZM159.078 106.408V133H152.358V106.408H159.078ZM175.894 133.432C173.718 133.432 171.766 133.048 170.038 132.28C168.31 131.48 166.934 130.408 165.91 129.064C164.918 127.72 164.374 126.232 164.278 124.6H171.046C171.174 125.624 171.67 126.472 172.534 127.144C173.43 127.816 174.534 128.152 175.846 128.152C177.126 128.152 178.118 127.896 178.822 127.384C179.558 126.872 179.926 126.216 179.926 125.416C179.926 124.552 179.478 123.912 178.582 123.496C177.718 123.048 176.326 122.568 174.406 122.056C172.422 121.576 170.79 121.08 169.51 120.568C168.262 120.056 167.174 119.272 166.246 118.216C165.35 117.16 164.902 115.736 164.902 113.944C164.902 112.472 165.318 111.128 166.15 109.912C167.014 108.696 168.23 107.736 169.798 107.032C171.398 106.328 173.27 105.976 175.414 105.976C178.582 105.976 181.11 106.776 182.998 108.376C184.886 109.944 185.926 112.072 186.118 114.76H179.686C179.59 113.704 179.142 112.872 178.342 112.264C177.574 111.624 176.534 111.304 175.222 111.304C174.006 111.304 173.062 111.528 172.39 111.976C171.75 112.424 171.43 113.048 171.43 113.848C171.43 114.744 171.878 115.432 172.774 115.912C173.67 116.36 175.062 116.824 176.95 117.304C178.87 117.784 180.454 118.28 181.702 118.792C182.95 119.304 184.022 120.104 184.918 121.192C185.846 122.248 186.326 123.656 186.358 125.416C186.358 126.952 185.926 128.328 185.062 129.544C184.23 130.76 183.014 131.72 181.414 132.424C179.846 133.096 178.006 133.432 175.894 133.432Z" fill="url(#paint1_radial)"/>
<path d="M63.252 144.48C63.252 143.964 63.348 143.511 63.54 143.121C63.738 142.731 64.005 142.431 64.341 142.221C64.677 142.011 65.052 141.906 65.466 141.906C65.796 141.906 66.096 141.975 66.366 142.113C66.642 142.251 66.858 142.437 67.014 142.671V140.34H68.553V147H67.014V146.28C66.87 146.52 66.663 146.712 66.393 146.856C66.129 147 65.82 147.072 65.466 147.072C65.052 147.072 64.677 146.967 64.341 146.757C64.005 146.541 63.738 146.238 63.54 145.848C63.348 145.452 63.252 144.996 63.252 144.48ZM67.014 144.489C67.014 144.105 66.906 143.802 66.69 143.58C66.48 143.358 66.222 143.247 65.916 143.247C65.61 143.247 65.349 143.358 65.133 143.58C64.923 143.796 64.818 144.096 64.818 144.48C64.818 144.864 64.923 145.17 65.133 145.398C65.349 145.62 65.61 145.731 65.916 145.731C66.222 145.731 66.48 145.62 66.69 145.398C66.906 145.176 67.014 144.873 67.014 144.489ZM74.3104 141.456C74.0404 141.456 73.8184 141.378 73.6444 141.222C73.4764 141.06 73.3924 140.862 73.3924 140.628C73.3924 140.388 73.4764 140.19 73.6444 140.034C73.8184 139.872 74.0404 139.791 74.3104 139.791C74.5744 139.791 74.7904 139.872 74.9584 140.034C75.1324 140.19 75.2194 140.388 75.2194 140.628C75.2194 140.862 75.1324 141.06 74.9584 141.222C74.7904 141.378 74.5744 141.456 74.3104 141.456ZM75.0754 141.978V147H73.5364V141.978H75.0754ZM82.1037 147.072C81.6657 147.072 81.2757 146.997 80.9337 146.847C80.5917 146.697 80.3217 146.493 80.1237 146.235C79.9257 145.971 79.8147 145.677 79.7907 145.353H81.3117C81.3297 145.527 81.4107 145.668 81.5547 145.776C81.6987 145.884 81.8757 145.938 82.0857 145.938C82.2777 145.938 82.4247 145.902 82.5267 145.83C82.6347 145.752 82.6887 145.653 82.6887 145.533C82.6887 145.389 82.6137 145.284 82.4637 145.218C82.3137 145.146 82.0707 145.068 81.7347 144.984C81.3747 144.9 81.0747 144.813 80.8347 144.723C80.5947 144.627 80.3877 144.48 80.2137 144.282C80.0397 144.078 79.9527 143.805 79.9527 143.463C79.9527 143.175 80.0307 142.914 80.1867 142.68C80.3487 142.44 80.5827 142.251 80.8887 142.113C81.2007 141.975 81.5697 141.906 81.9957 141.906C82.6257 141.906 83.1207 142.062 83.4807 142.374C83.8467 142.686 84.0567 143.1 84.1107 143.616H82.6887C82.6647 143.442 82.5867 143.304 82.4547 143.202C82.3287 143.1 82.1607 143.049 81.9507 143.049C81.7707 143.049 81.6327 143.085 81.5367 143.157C81.4407 143.223 81.3927 143.316 81.3927 143.436C81.3927 143.58 81.4677 143.688 81.6177 143.76C81.7737 143.832 82.0137 143.904 82.3377 143.976C82.7097 144.072 83.0127 144.168 83.2467 144.264C83.4807 144.354 83.6847 144.504 83.8587 144.714C84.0387 144.918 84.1317 145.194 84.1377 145.542C84.1377 145.836 84.0537 146.1 83.8857 146.334C83.7237 146.562 83.4867 146.742 83.1747 146.874C82.8687 147.006 82.5117 147.072 82.1037 147.072ZM91.7483 145.695V147H90.9653C90.4073 147 89.9723 146.865 89.6603 146.595C89.3483 146.319 89.1923 145.872 89.1923 145.254V143.256H88.5803V141.978H89.1923V140.754H90.7313V141.978H91.7393V143.256H90.7313V145.272C90.7313 145.422 90.7673 145.53 90.8393 145.596C90.9113 145.662 91.0313 145.695 91.1993 145.695H91.7483ZM98.0145 142.815C98.1945 142.539 98.4195 142.323 98.6895 142.167C98.9595 142.005 99.2595 141.924 99.5895 141.924V143.553H99.1665C98.7825 143.553 98.4945 143.637 98.3025 143.805C98.1105 143.967 98.0145 144.255 98.0145 144.669V147H96.4755V141.978H98.0145V142.815ZM104.969 141.456C104.699 141.456 104.477 141.378 104.303 141.222C104.135 141.06 104.051 140.862 104.051 140.628C104.051 140.388 104.135 140.19 104.303 140.034C104.477 139.872 104.699 139.791 104.969 139.791C105.233 139.791 105.449 139.872 105.617 140.034C105.791 140.19 105.878 140.388 105.878 140.628C105.878 140.862 105.791 141.06 105.617 141.222C105.449 141.378 105.233 141.456 104.969 141.456ZM105.734 141.978V147H104.195V141.978H105.734ZM112.258 142.689C112.402 142.455 112.609 142.266 112.879 142.122C113.149 141.978 113.458 141.906 113.806 141.906C114.22 141.906 114.595 142.011 114.931 142.221C115.267 142.431 115.531 142.731 115.723 143.121C115.921 143.511 116.02 143.964 116.02 144.48C116.02 144.996 115.921 145.452 115.723 145.848C115.531 146.238 115.267 146.541 114.931 146.757C114.595 146.967 114.22 147.072 113.806 147.072C113.452 147.072 113.143 147.003 112.879 146.865C112.615 146.721 112.408 146.532 112.258 146.298V147H110.719V140.34H112.258V142.689ZM114.454 144.48C114.454 144.096 114.346 143.796 114.13 143.58C113.92 143.358 113.659 143.247 113.347 143.247C113.041 143.247 112.78 143.358 112.564 143.58C112.354 143.802 112.249 144.105 112.249 144.489C112.249 144.873 112.354 145.176 112.564 145.398C112.78 145.62 113.041 145.731 113.347 145.731C113.653 145.731 113.914 145.62 114.13 145.398C114.346 145.17 114.454 144.864 114.454 144.48ZM125.657 141.978V147H124.118V146.316C123.962 146.538 123.749 146.718 123.479 146.856C123.215 146.988 122.921 147.054 122.597 147.054C122.213 147.054 121.874 146.97 121.58 146.802C121.286 146.628 121.058 146.379 120.896 146.055C120.734 145.731 120.653 145.35 120.653 144.912V141.978H122.183V144.705C122.183 145.041 122.27 145.302 122.444 145.488C122.618 145.674 122.852 145.767 123.146 145.767C123.446 145.767 123.683 145.674 123.857 145.488C124.031 145.302 124.118 145.041 124.118 144.705V141.978H125.657ZM133.431 145.695V147H132.648C132.09 147 131.655 146.865 131.343 146.595C131.031 146.319 130.875 145.872 130.875 145.254V143.256H130.263V141.978H130.875V140.754H132.414V141.978H133.422V143.256H132.414V145.272C132.414 145.422 132.45 145.53 132.522 145.596C132.594 145.662 132.714 145.695 132.882 145.695H133.431ZM138.933 141.456C138.663 141.456 138.441 141.378 138.267 141.222C138.099 141.06 138.015 140.862 138.015 140.628C138.015 140.388 138.099 140.19 138.267 140.034C138.441 139.872 138.663 139.791 138.933 139.791C139.197 139.791 139.413 139.872 139.581 140.034C139.755 140.19 139.842 140.388 139.842 140.628C139.842 140.862 139.755 141.06 139.581 141.222C139.413 141.378 139.197 141.456 138.933 141.456ZM139.698 141.978V147H138.159V141.978H139.698ZM146.969 147.072C146.477 147.072 146.033 146.967 145.637 146.757C145.247 146.547 144.938 146.247 144.71 145.857C144.488 145.467 144.377 145.011 144.377 144.489C144.377 143.973 144.491 143.52 144.719 143.13C144.947 142.734 145.259 142.431 145.655 142.221C146.051 142.011 146.495 141.906 146.987 141.906C147.479 141.906 147.923 142.011 148.319 142.221C148.715 142.431 149.027 142.734 149.255 143.13C149.483 143.52 149.597 143.973 149.597 144.489C149.597 145.005 149.48 145.461 149.246 145.857C149.018 146.247 148.703 146.547 148.301 146.757C147.905 146.967 147.461 147.072 146.969 147.072ZM146.969 145.74C147.263 145.74 147.512 145.632 147.716 145.416C147.926 145.2 148.031 144.891 148.031 144.489C148.031 144.087 147.929 143.778 147.725 143.562C147.527 143.346 147.281 143.238 146.987 143.238C146.687 143.238 146.438 143.346 146.24 143.562C146.042 143.772 145.943 144.081 145.943 144.489C145.943 144.891 146.039 145.2 146.231 145.416C146.429 145.632 146.675 145.74 146.969 145.74ZM157.343 141.924C157.931 141.924 158.399 142.116 158.747 142.5C159.101 142.878 159.278 143.4 159.278 144.066V147H157.748V144.273C157.748 143.937 157.661 143.676 157.487 143.49C157.313 143.304 157.079 143.211 156.785 143.211C156.491 143.211 156.257 143.304 156.083 143.49C155.909 143.676 155.822 143.937 155.822 144.273V147H154.283V141.978H155.822V142.644C155.978 142.422 156.188 142.248 156.452 142.122C156.716 141.99 157.013 141.924 157.343 141.924ZM164.479 145.578L163.48 148.161H162.499L163.021 145.578H164.479ZM172.273 140.34V147H170.734V140.34H172.273ZM177.087 140.34V147H175.548V140.34H177.087ZM180.777 144.489C180.777 143.967 180.882 143.511 181.092 143.121C181.308 142.731 181.605 142.431 181.983 142.221C182.367 142.011 182.805 141.906 183.297 141.906C183.927 141.906 184.452 142.071 184.872 142.401C185.298 142.731 185.577 143.196 185.709 143.796H184.071C183.933 143.412 183.666 143.22 183.27 143.22C182.988 143.22 182.763 143.331 182.595 143.553C182.427 143.769 182.343 144.081 182.343 144.489C182.343 144.897 182.427 145.212 182.595 145.434C182.763 145.65 182.988 145.758 183.27 145.758C183.666 145.758 183.933 145.566 184.071 145.182H185.709C185.577 145.77 185.298 146.232 184.872 146.568C184.446 146.904 183.921 147.072 183.297 147.072C182.805 147.072 182.367 146.967 181.983 146.757C181.605 146.547 181.308 146.247 181.092 145.857C180.882 145.467 180.777 145.011 180.777 144.489Z" fill="#D3EAFF"/>
<g style="mix-blend-mode:hard-light" opacity="0.9" filter="url(#filter0_f)">
<mask id="mask0" mask-type="alpha" maskUnits="userSpaceOnUse" x="26" y="26" width="190" height="190">
<circle cx="120.718" cy="120.718" r="65" transform="rotate(105.752 120.718 120.718)" stroke="#90BFDA" stroke-width="23" stroke-linecap="round"/>
</mask>
<g mask="url(#mask0)">
<rect x="243.294" y="155.811" width="93" height="128" transform="rotate(105.752 243.294 155.811)" fill="url(#paint2_angular)"/>
</g>
</g>
<g style="mix-blend-mode:hard-light" opacity="0.9" filter="url(#filter1_f)">
<mask id="mask1" mask-type="alpha" maskUnits="userSpaceOnUse" x="18" y="18" width="205" height="205">
<circle cx="120.718" cy="120.718" r="74.5" transform="rotate(-25.3821 120.718 120.718)" stroke="#90BFDA" stroke-width="4" stroke-linecap="round"/>
</mask>
<g mask="url(#mask1)">
<rect x="66.5162" y="5.31128" width="93" height="128" transform="rotate(-25.3821 66.5162 5.31128)" fill="url(#paint3_angular)"/>
</g>
</g>
<g style="mix-blend-mode:hard-light" opacity="0.3" filter="url(#filter2_f)">
<mask id="mask2" mask-type="alpha" maskUnits="userSpaceOnUse" x="28" y="28" width="186" height="186">
<circle cx="120.718" cy="120.718" r="80.9357" transform="rotate(-85.2033 120.718 120.718)" stroke="#90BFDA" stroke-width="23" stroke-linecap="round"/>
</mask>
<g mask="url(#mask2)">
<rect x="-32.7516" y="107.234" width="112.373" height="154.664" transform="rotate(-85.2033 -32.7516 107.234)" fill="url(#paint4_angular)"/>
</g>
</g>
<g style="mix-blend-mode:hard-light" opacity="0.9" filter="url(#filter3_f)">
<mask id="mask3" mask-type="alpha" maskUnits="userSpaceOnUse" x="34" y="34" width="173" height="173">
<circle cx="120.718" cy="120.718" r="51.9083" transform="rotate(-28.0607 120.718 120.718)" stroke="#90BFDA" stroke-opacity="0.34" stroke-width="23" stroke-linecap="round"/>
</mask>
<g mask="url(#mask3)">
<rect x="71.3707" y="27.2654" width="77.0846" height="106.095" transform="rotate(-28.0607 71.3707 27.2654)" fill="url(#paint5_angular)"/>
</g>
</g>
<g style="mix-blend-mode:hard-light" opacity="0.9" filter="url(#filter4_f)">
<mask id="mask4" mask-type="alpha" maskUnits="userSpaceOnUse" x="-1" y="-1" width="243" height="243">
<circle cx="120.718" cy="120.718" r="66.6288" transform="rotate(149.375 120.718 120.718)" stroke="#90BFDA" stroke-opacity="0.34" stroke-width="43" stroke-linecap="round"/>
</mask>
<g mask="url(#mask4)">
<rect x="195.045" y="247.406" width="107.137" height="147.457" transform="rotate(149.375 195.045 247.406)" fill="url(#paint6_angular)"/>
</g>
</g>
</g>
<defs>
<filter id="filter0_f" x="91.8546" y="118.063" width="126.258" height="100.049" filterUnits="userSpaceOnUse" color-interpolation-filters="sRGB">
<feFlood flood-opacity="0" result="BackgroundImageFix"/>
<feBlend mode="normal" in="SourceGraphic" in2="BackgroundImageFix" result="shape"/>
<feGaussianBlur stdDeviation="1.5" result="effect1_foregroundBlur"/>
</filter>
<filter id="filter1_f" x="63.5162" y="15.8105" width="144.89" height="108.145" filterUnits="userSpaceOnUse" color-interpolation-filters="sRGB">
<feFlood flood-opacity="0" result="BackgroundImageFix"/>
<feBlend mode="normal" in="SourceGraphic" in2="BackgroundImageFix" result="shape"/>
<feGaussianBlur stdDeviation="1.5" result="effect1_foregroundBlur"/>
</filter>
<filter id="filter2_f" x="25.2769" y="25.2772" width="108.49" height="97.8895" filterUnits="userSpaceOnUse" color-interpolation-filters="sRGB">
<feFlood flood-opacity="0" result="BackgroundImageFix"/>
<feBlend mode="normal" in="SourceGraphic" in2="BackgroundImageFix" result="shape"/>
<feGaussianBlur stdDeviation="1.5" result="effect1_foregroundBlur"/>
</filter>
<filter id="filter3_f" x="68.3707" y="31.9358" width="123.931" height="91.9531" filterUnits="userSpaceOnUse" color-interpolation-filters="sRGB">
<feFlood flood-opacity="0" result="BackgroundImageFix"/>
<feBlend mode="normal" in="SourceGraphic" in2="BackgroundImageFix" result="shape"/>
<feGaussianBlur stdDeviation="1.5" result="effect1_foregroundBlur"/>
</filter>
<filter id="filter4_f" x="24.7347" y="117.516" width="173.31" height="126.933" filterUnits="userSpaceOnUse" color-interpolation-filters="sRGB">
<feFlood flood-opacity="0" result="BackgroundImageFix"/>
<feBlend mode="normal" in="SourceGraphic" in2="BackgroundImageFix" result="shape"/>
<feGaussianBlur stdDeviation="1.5" result="effect1_foregroundBlur"/>
</filter>
<radialGradient id="paint0_radial" cx="0" cy="0" r="1" gradientUnits="userSpaceOnUse" gradientTransform="translate(120.5 120.5) rotate(90) scale(119.973)">
<stop stop-color="#5193C2" stop-opacity="0.65"/>
<stop offset="0.159375" stop-color="#030A11" stop-opacity="0"/>
</radialGradient>
<radialGradient id="paint1_radial" cx="0" cy="0" r="1" gradientUnits="userSpaceOnUse" gradientTransform="translate(121 120.5) rotate(88.2101) scale(32.0155 147.94)">
<stop stop-color="white"/>
<stop offset="0.711458" stop-color="#BBDFFF" stop-opacity="0.72"/>
</radialGradient>
<radialGradient id="paint2_angular" cx="0" cy="0" r="1" gradientUnits="userSpaceOnUse" gradientTransform="translate(289.794 219.811) rotate(90) scale(64 46.5)">
<stop offset="0.440625" stop-color="#09101B" stop-opacity="0"/>
<stop offset="0.820833" stop-color="#7964CC"/>
</radialGradient>
<radialGradient id="paint3_angular" cx="0" cy="0" r="1" gradientUnits="userSpaceOnUse" gradientTransform="translate(113.016 69.3113) rotate(90) scale(64 46.5)">
<stop offset="0.440625" stop-color="#09101B" stop-opacity="0"/>
<stop offset="0.820833" stop-color="#7964CC"/>
</radialGradient>
<radialGradient id="paint4_angular" cx="0" cy="0" r="1" gradientUnits="userSpaceOnUse" gradientTransform="translate(23.4348 184.565) rotate(90) scale(77.3318 56.1864)">
<stop offset="0.440625" stop-color="#09101B" stop-opacity="0"/>
<stop offset="0.820833" stop-color="#7964CC"/>
</radialGradient>
<radialGradient id="paint5_angular" cx="0" cy="0" r="1" gradientUnits="userSpaceOnUse" gradientTransform="translate(109.913 80.3129) rotate(90) scale(53.0475 38.5423)">
<stop offset="0.440625" stop-color="#09101B" stop-opacity="0"/>
<stop offset="0.820833" stop-color="#7964CC"/>
</radialGradient>
<radialGradient id="paint6_angular" cx="0" cy="0" r="1" gradientUnits="userSpaceOnUse" gradientTransform="translate(248.614 321.135) rotate(90) scale(73.7287 53.5685)">
<stop offset="0.440625" stop-color="#09101B" stop-opacity="0"/>
<stop offset="0.820833" stop-color="#7964CC"/>
</radialGradient>
<clipPath id="clip0">
<rect width="241" height="241" fill="white"/>
</clipPath>
</defs>
</svg>
