<svg width="200" height="200" viewBox="0 0 200 200" fill="none" xmlns="http://www.w3.org/2000/svg">
<rect width="199.436" height="199.436" fill="#0E031A"/>
<mask id="mask0" mask-type="alpha" maskUnits="userSpaceOnUse" x="23" y="23" width="154" height="154">
<circle cx="99.7178" cy="99.7178" r="76" stroke="#90BFDA" stroke-linecap="round"/>
</mask>
<g mask="url(#mask0)">
<rect x="100.218" y="-27.7822" width="93" height="128" fill="url(#paint0_linear)"/>
</g>
<mask id="mask1" mask-type="alpha" maskUnits="userSpaceOnUse" x="0" y="0" width="200" height="200">
<circle cx="99.7179" cy="99.7179" r="76" transform="rotate(157.822 99.7179 99.7179)" stroke="#90BFDA" stroke-linecap="round"/>
</mask>
<g mask="url(#mask1)">
<rect x="147.385" y="217.974" width="93" height="128" transform="rotate(157.822 147.385 217.974)" fill="url(#paint1_linear)"/>
</g>
<mask id="mask2" mask-type="alpha" maskUnits="userSpaceOnUse" x="10" y="10" width="180" height="180">
<circle cx="99.7182" cy="99.7179" r="62.9083" transform="rotate(129.772 99.7182 99.7179)" stroke="#90BFDA" stroke-linecap="round"/>
</mask>
<g mask="url(#mask2)">
<rect x="180.679" y="167.644" width="77.0846" height="106.095" transform="rotate(129.772 180.679 167.644)" fill="url(#paint2_linear)"/>
</g>
<mask id="mask3" mask-type="alpha" maskUnits="userSpaceOnUse" x="12" y="12" width="175" height="175">
<circle cx="99.7182" cy="99.7178" r="62.9083" transform="rotate(-59.4215 99.7182 99.7178)" stroke="#90BFDA" stroke-linecap="round"/>
</mask>
<g mask="url(#mask3)">
<rect x="8.94519" y="45.5994" width="77.0846" height="106.095" transform="rotate(-59.4215 8.94519 45.5994)" fill="url(#paint3_linear)"/>
</g>
<path d="M37.0781 78.496V83.92H23.1101V92.512H33.8141V97.84H23.1101V112H16.3901V78.496H37.0781ZM45.2513 82.24C44.0673 82.24 43.0753 81.872 42.2753 81.136C41.5073 80.368 41.1233 79.424 41.1233 78.304C41.1233 77.184 41.5073 76.256 42.2753 75.52C43.0753 74.752 44.0673 74.368 45.2513 74.368C46.4353 74.368 47.4113 74.752 48.1793 75.52C48.9793 76.256 49.3793 77.184 49.3793 78.304C49.3793 79.424 48.9793 80.368 48.1793 81.136C47.4113 81.872 46.4353 82.24 45.2513 82.24ZM48.5633 85.408V112H41.8433V85.408H48.5633ZM53.4746 98.608C53.4746 95.92 54.0026 93.536 55.0586 91.456C56.1466 89.376 57.6186 87.776 59.4746 86.656C61.3306 85.536 63.3946 84.976 65.6666 84.976C67.3946 84.976 69.0426 85.36 70.6106 86.128C72.1786 86.864 73.4266 87.856 74.3546 89.104V76.48H81.1706V112H74.3546V108.064C73.5226 109.376 72.3546 110.432 70.8506 111.232C69.3466 112.032 67.6026 112.432 65.6186 112.432C63.3786 112.432 61.3306 111.856 59.4746 110.704C57.6186 109.552 56.1466 107.936 55.0586 105.856C54.0026 103.744 53.4746 101.328 53.4746 98.608ZM74.4026 98.704C74.4026 97.072 74.0826 95.68 73.4426 94.528C72.8026 93.344 71.9386 92.448 70.8506 91.84C69.7626 91.2 68.5946 90.88 67.3466 90.88C66.0986 90.88 64.9466 91.184 63.8906 91.792C62.8346 92.4 61.9706 93.296 61.2986 94.48C60.6586 95.632 60.3386 97.008 60.3386 98.608C60.3386 100.208 60.6586 101.616 61.2986 102.832C61.9706 104.016 62.8346 104.928 63.8906 105.568C64.9786 106.208 66.1306 106.528 67.3466 106.528C68.5946 106.528 69.7626 106.224 70.8506 105.616C71.9386 104.976 72.8026 104.08 73.4426 102.928C74.0826 101.744 74.4026 100.336 74.4026 98.704ZM112.454 98.128C112.454 99.088 112.39 99.952 112.262 100.72H92.8219C92.9819 102.64 93.6539 104.144 94.8379 105.232C96.0219 106.32 97.4779 106.864 99.2059 106.864C101.702 106.864 103.478 105.792 104.534 103.648H111.782C111.014 106.208 109.542 108.32 107.366 109.984C105.19 111.616 102.518 112.432 99.3499 112.432C96.7899 112.432 94.4859 111.872 92.4379 110.752C90.4219 109.6 88.8379 107.984 87.6859 105.904C86.5659 103.824 86.0059 101.424 86.0059 98.704C86.0059 95.952 86.5659 93.536 87.6859 91.456C88.8059 89.376 90.3739 87.776 92.3899 86.656C94.4059 85.536 96.7259 84.976 99.3499 84.976C101.878 84.976 104.134 85.52 106.118 86.608C108.134 87.696 109.686 89.248 110.774 91.264C111.894 93.248 112.454 95.536 112.454 98.128ZM105.494 96.208C105.462 94.48 104.838 93.104 103.622 92.08C102.406 91.024 100.918 90.496 99.1579 90.496C97.4939 90.496 96.0859 91.008 94.9339 92.032C93.8139 93.024 93.1259 94.416 92.8699 96.208H105.494ZM124.079 76.48V112H117.359V76.48H124.079ZM134.126 82.24C132.942 82.24 131.95 81.872 131.15 81.136C130.382 80.368 129.998 79.424 129.998 78.304C129.998 77.184 130.382 76.256 131.15 75.52C131.95 74.752 132.942 74.368 134.126 74.368C135.31 74.368 136.286 74.752 137.054 75.52C137.854 76.256 138.254 77.184 138.254 78.304C138.254 79.424 137.854 80.368 137.054 81.136C136.286 81.872 135.31 82.24 134.126 82.24ZM137.438 85.408V112H130.718V85.408H137.438ZM154.254 112.432C152.078 112.432 150.126 112.048 148.398 111.28C146.67 110.48 145.294 109.408 144.27 108.064C143.278 106.72 142.734 105.232 142.638 103.6H149.406C149.534 104.624 150.03 105.472 150.894 106.144C151.79 106.816 152.894 107.152 154.206 107.152C155.486 107.152 156.478 106.896 157.182 106.384C157.918 105.872 158.286 105.216 158.286 104.416C158.286 103.552 157.838 102.912 156.942 102.496C156.078 102.048 154.686 101.568 152.766 101.056C150.782 100.576 149.15 100.08 147.87 99.568C146.622 99.056 145.534 98.272 144.606 97.216C143.71 96.16 143.262 94.736 143.262 92.944C143.262 91.472 143.678 90.128 144.51 88.912C145.374 87.696 146.59 86.736 148.158 86.032C149.758 85.328 151.63 84.976 153.774 84.976C156.942 84.976 159.47 85.776 161.358 87.376C163.246 88.944 164.286 91.072 164.478 93.76H158.046C157.95 92.704 157.502 91.872 156.702 91.264C155.934 90.624 154.894 90.304 153.582 90.304C152.366 90.304 151.422 90.528 150.75 90.976C150.11 91.424 149.79 92.048 149.79 92.848C149.79 93.744 150.238 94.432 151.134 94.912C152.03 95.36 153.422 95.824 155.31 96.304C157.23 96.784 158.814 97.28 160.062 97.792C161.31 98.304 162.382 99.104 163.278 100.192C164.206 101.248 164.686 102.656 164.718 104.416C164.718 105.952 164.286 107.328 163.422 108.544C162.59 109.76 161.374 110.72 159.774 111.424C158.206 112.096 156.366 112.432 154.254 112.432Z" fill="#C9AEBC"/>
<path d="M37.0781 78.496V83.92H23.1101V92.512H33.8141V97.84H23.1101V112H16.3901V78.496H37.0781ZM45.2513 82.24C44.0673 82.24 43.0753 81.872 42.2753 81.136C41.5073 80.368 41.1233 79.424 41.1233 78.304C41.1233 77.184 41.5073 76.256 42.2753 75.52C43.0753 74.752 44.0673 74.368 45.2513 74.368C46.4353 74.368 47.4113 74.752 48.1793 75.52C48.9793 76.256 49.3793 77.184 49.3793 78.304C49.3793 79.424 48.9793 80.368 48.1793 81.136C47.4113 81.872 46.4353 82.24 45.2513 82.24ZM48.5633 85.408V112H41.8433V85.408H48.5633ZM53.4746 98.608C53.4746 95.92 54.0026 93.536 55.0586 91.456C56.1466 89.376 57.6186 87.776 59.4746 86.656C61.3306 85.536 63.3946 84.976 65.6666 84.976C67.3946 84.976 69.0426 85.36 70.6106 86.128C72.1786 86.864 73.4266 87.856 74.3546 89.104V76.48H81.1706V112H74.3546V108.064C73.5226 109.376 72.3546 110.432 70.8506 111.232C69.3466 112.032 67.6026 112.432 65.6186 112.432C63.3786 112.432 61.3306 111.856 59.4746 110.704C57.6186 109.552 56.1466 107.936 55.0586 105.856C54.0026 103.744 53.4746 101.328 53.4746 98.608ZM74.4026 98.704C74.4026 97.072 74.0826 95.68 73.4426 94.528C72.8026 93.344 71.9386 92.448 70.8506 91.84C69.7626 91.2 68.5946 90.88 67.3466 90.88C66.0986 90.88 64.9466 91.184 63.8906 91.792C62.8346 92.4 61.9706 93.296 61.2986 94.48C60.6586 95.632 60.3386 97.008 60.3386 98.608C60.3386 100.208 60.6586 101.616 61.2986 102.832C61.9706 104.016 62.8346 104.928 63.8906 105.568C64.9786 106.208 66.1306 106.528 67.3466 106.528C68.5946 106.528 69.7626 106.224 70.8506 105.616C71.9386 104.976 72.8026 104.08 73.4426 102.928C74.0826 101.744 74.4026 100.336 74.4026 98.704ZM112.454 98.128C112.454 99.088 112.39 99.952 112.262 100.72H92.8219C92.9819 102.64 93.6539 104.144 94.8379 105.232C96.0219 106.32 97.4779 106.864 99.2059 106.864C101.702 106.864 103.478 105.792 104.534 103.648H111.782C111.014 106.208 109.542 108.32 107.366 109.984C105.19 111.616 102.518 112.432 99.3499 112.432C96.7899 112.432 94.4859 111.872 92.4379 110.752C90.4219 109.6 88.8379 107.984 87.6859 105.904C86.5659 103.824 86.0059 101.424 86.0059 98.704C86.0059 95.952 86.5659 93.536 87.6859 91.456C88.8059 89.376 90.3739 87.776 92.3899 86.656C94.4059 85.536 96.7259 84.976 99.3499 84.976C101.878 84.976 104.134 85.52 106.118 86.608C108.134 87.696 109.686 89.248 110.774 91.264C111.894 93.248 112.454 95.536 112.454 98.128ZM105.494 96.208C105.462 94.48 104.838 93.104 103.622 92.08C102.406 91.024 100.918 90.496 99.1579 90.496C97.4939 90.496 96.0859 91.008 94.9339 92.032C93.8139 93.024 93.1259 94.416 92.8699 96.208H105.494ZM124.079 76.48V112H117.359V76.48H124.079ZM134.126 82.24C132.942 82.24 131.95 81.872 131.15 81.136C130.382 80.368 129.998 79.424 129.998 78.304C129.998 77.184 130.382 76.256 131.15 75.52C131.95 74.752 132.942 74.368 134.126 74.368C135.31 74.368 136.286 74.752 137.054 75.52C137.854 76.256 138.254 77.184 138.254 78.304C138.254 79.424 137.854 80.368 137.054 81.136C136.286 81.872 135.31 82.24 134.126 82.24ZM137.438 85.408V112H130.718V85.408H137.438ZM154.254 112.432C152.078 112.432 150.126 112.048 148.398 111.28C146.67 110.48 145.294 109.408 144.27 108.064C143.278 106.72 142.734 105.232 142.638 103.6H149.406C149.534 104.624 150.03 105.472 150.894 106.144C151.79 106.816 152.894 107.152 154.206 107.152C155.486 107.152 156.478 106.896 157.182 106.384C157.918 105.872 158.286 105.216 158.286 104.416C158.286 103.552 157.838 102.912 156.942 102.496C156.078 102.048 154.686 101.568 152.766 101.056C150.782 100.576 149.15 100.08 147.87 99.568C146.622 99.056 145.534 98.272 144.606 97.216C143.71 96.16 143.262 94.736 143.262 92.944C143.262 91.472 143.678 90.128 144.51 88.912C145.374 87.696 146.59 86.736 148.158 86.032C149.758 85.328 151.63 84.976 153.774 84.976C156.942 84.976 159.47 85.776 161.358 87.376C163.246 88.944 164.286 91.072 164.478 93.76H158.046C157.95 92.704 157.502 91.872 156.702 91.264C155.934 90.624 154.894 90.304 153.582 90.304C152.366 90.304 151.422 90.528 150.75 90.976C150.11 91.424 149.79 92.048 149.79 92.848C149.79 93.744 150.238 94.432 151.134 94.912C152.03 95.36 153.422 95.824 155.31 96.304C157.23 96.784 158.814 97.28 160.062 97.792C161.31 98.304 162.382 99.104 163.278 100.192C164.206 101.248 164.686 102.656 164.718 104.416C164.718 105.952 164.286 107.328 163.422 108.544C162.59 109.76 161.374 110.72 159.774 111.424C158.206 112.096 156.366 112.432 154.254 112.432Z" fill="url(#paint4_radial)"/>
<path d="M45.3478 120.238C46.0811 120.238 46.7244 120.381 47.2778 120.668C47.8378 120.954 48.2678 121.364 48.5678 121.898C48.8744 122.424 49.0278 123.038 49.0278 123.738C49.0278 124.438 48.8744 125.051 48.5678 125.578C48.2678 126.098 47.8378 126.501 47.2778 126.788C46.7244 127.074 46.0811 127.218 45.3478 127.218H42.9078V120.238H45.3478ZM45.2978 126.028C46.0311 126.028 46.5978 125.828 46.9978 125.428C47.3978 125.028 47.5978 124.464 47.5978 123.738C47.5978 123.011 47.3978 122.444 46.9978 122.038C46.5978 121.624 46.0311 121.418 45.2978 121.418H44.3078V126.028H45.2978ZM55.1007 120.238V127.218H53.7007V120.238H55.1007ZM62.5189 127.288C62.0323 127.288 61.5923 127.204 61.1989 127.038C60.8123 126.871 60.5056 126.631 60.2789 126.318C60.0523 126.004 59.9356 125.634 59.9289 125.208H61.4289C61.4489 125.494 61.5489 125.721 61.7289 125.888C61.9156 126.054 62.1689 126.138 62.4889 126.138C62.8156 126.138 63.0723 126.061 63.2589 125.908C63.4456 125.748 63.5389 125.541 63.5389 125.288C63.5389 125.081 63.4756 124.911 63.3489 124.778C63.2223 124.644 63.0623 124.541 62.8689 124.468C62.6823 124.388 62.4223 124.301 62.0889 124.208C61.6356 124.074 61.2656 123.944 60.9789 123.818C60.6989 123.684 60.4556 123.488 60.2489 123.228C60.0489 122.961 59.9489 122.608 59.9489 122.168C59.9489 121.754 60.0523 121.394 60.2589 121.088C60.4656 120.781 60.7556 120.548 61.1289 120.388C61.5023 120.221 61.9289 120.138 62.4089 120.138C63.1289 120.138 63.7123 120.314 64.1589 120.668C64.6123 121.014 64.8623 121.501 64.9089 122.128H63.3689C63.3556 121.888 63.2523 121.691 63.0589 121.538C62.8723 121.378 62.6223 121.298 62.3089 121.298C62.0356 121.298 61.8156 121.368 61.6489 121.508C61.4889 121.648 61.4089 121.851 61.4089 122.118C61.4089 122.304 61.4689 122.461 61.5889 122.588C61.7156 122.708 61.8689 122.808 62.0489 122.888C62.2356 122.961 62.4956 123.048 62.8289 123.148C63.2823 123.281 63.6523 123.414 63.9389 123.548C64.2256 123.681 64.4723 123.881 64.6789 124.148C64.8856 124.414 64.9889 124.764 64.9889 125.198C64.9889 125.571 64.8923 125.918 64.6989 126.238C64.5056 126.558 64.2223 126.814 63.8489 127.008C63.4756 127.194 63.0323 127.288 62.5189 127.288ZM74.5777 120.238V121.368H72.7177V127.218H71.3177V121.368H69.4577V120.238H74.5777ZM82.8242 127.218L81.2842 124.498H80.6242V127.218H79.2242V120.238H81.8442C82.3842 120.238 82.8442 120.334 83.2242 120.528C83.6042 120.714 83.8875 120.971 84.0742 121.298C84.2675 121.618 84.3642 121.978 84.3642 122.378C84.3642 122.838 84.2308 123.254 83.9642 123.628C83.6975 123.994 83.3008 124.248 82.7742 124.388L84.4442 127.218H82.8242ZM80.6242 123.448H81.7942C82.1742 123.448 82.4575 123.358 82.6442 123.178C82.8308 122.991 82.9242 122.734 82.9242 122.408C82.9242 122.088 82.8308 121.841 82.6442 121.668C82.4575 121.488 82.1742 121.398 81.7942 121.398H80.6242V123.448ZM90.6554 120.238V127.218H89.2554V120.238H90.6554ZM99.6236 123.638C100.017 123.711 100.34 123.908 100.594 124.228C100.847 124.548 100.974 124.914 100.974 125.328C100.974 125.701 100.88 126.031 100.694 126.318C100.514 126.598 100.25 126.818 99.9036 126.978C99.557 127.138 99.147 127.218 98.6736 127.218H95.6636V120.238H98.5436C99.017 120.238 99.4236 120.314 99.7636 120.468C100.11 120.621 100.37 120.834 100.544 121.108C100.724 121.381 100.814 121.691 100.814 122.038C100.814 122.444 100.704 122.784 100.484 123.058C100.27 123.331 99.9836 123.524 99.6236 123.638ZM97.0636 123.118H98.3436C98.677 123.118 98.9336 123.044 99.1136 122.898C99.2936 122.744 99.3836 122.528 99.3836 122.248C99.3836 121.968 99.2936 121.751 99.1136 121.598C98.9336 121.444 98.677 121.368 98.3436 121.368H97.0636V123.118ZM98.4736 126.078C98.8136 126.078 99.077 125.998 99.2636 125.838C99.457 125.678 99.5536 125.451 99.5536 125.158C99.5536 124.858 99.4536 124.624 99.2536 124.458C99.0536 124.284 98.7836 124.198 98.4436 124.198H97.0636V126.078H98.4736ZM107.094 120.238V124.558C107.094 125.031 107.218 125.394 107.464 125.648C107.711 125.894 108.058 126.018 108.504 126.018C108.958 126.018 109.308 125.894 109.554 125.648C109.801 125.394 109.924 125.031 109.924 124.558V120.238H111.334V124.548C111.334 125.141 111.204 125.644 110.944 126.058C110.691 126.464 110.348 126.771 109.914 126.978C109.488 127.184 109.011 127.288 108.484 127.288C107.964 127.288 107.491 127.184 107.064 126.978C106.644 126.771 106.311 126.464 106.064 126.058C105.818 125.644 105.694 125.141 105.694 124.548V120.238H107.094ZM121.062 120.238V121.368H119.202V127.218H117.802V121.368H115.942V120.238H121.062ZM127.109 120.238V127.218H125.709V120.238H127.109ZM135.357 127.288C134.703 127.288 134.103 127.134 133.557 126.828C133.01 126.521 132.577 126.098 132.257 125.558C131.937 125.011 131.777 124.394 131.777 123.708C131.777 123.028 131.937 122.418 132.257 121.878C132.577 121.331 133.01 120.904 133.557 120.598C134.103 120.291 134.703 120.138 135.357 120.138C136.017 120.138 136.617 120.291 137.157 120.598C137.703 120.904 138.133 121.331 138.447 121.878C138.767 122.418 138.927 123.028 138.927 123.708C138.927 124.394 138.767 125.011 138.447 125.558C138.133 126.098 137.703 126.521 137.157 126.828C136.61 127.134 136.01 127.288 135.357 127.288ZM135.357 126.038C135.777 126.038 136.147 125.944 136.467 125.758C136.787 125.564 137.037 125.291 137.217 124.938C137.397 124.584 137.487 124.174 137.487 123.708C137.487 123.241 137.397 122.834 137.217 122.488C137.037 122.134 136.787 121.864 136.467 121.678C136.147 121.491 135.777 121.398 135.357 121.398C134.937 121.398 134.563 121.491 134.237 121.678C133.917 121.864 133.667 122.134 133.487 122.488C133.307 122.834 133.217 123.241 133.217 123.708C133.217 124.174 133.307 124.584 133.487 124.938C133.667 125.291 133.917 125.564 134.237 125.758C134.563 125.944 134.937 126.038 135.357 126.038ZM149.563 127.218H148.163L144.993 122.428V127.218H143.593V120.228H144.993L148.163 125.028V120.228H149.563V127.218ZM154.677 125.748L153.507 128.558H152.607L153.257 125.748H154.677ZM162.769 126.108H165.069V127.218H161.369V120.238H162.769V126.108ZM170.759 126.108H173.059V127.218H169.359V120.238H170.759V126.108ZM176.258 123.718C176.258 123.031 176.412 122.418 176.718 121.878C177.032 121.331 177.455 120.908 177.988 120.608C178.528 120.301 179.132 120.148 179.798 120.148C180.578 120.148 181.262 120.348 181.848 120.748C182.435 121.148 182.845 121.701 183.078 122.408H181.468C181.308 122.074 181.082 121.824 180.788 121.658C180.502 121.491 180.168 121.408 179.788 121.408C179.382 121.408 179.018 121.504 178.698 121.698C178.385 121.884 178.138 122.151 177.958 122.498C177.785 122.844 177.698 123.251 177.698 123.718C177.698 124.178 177.785 124.584 177.958 124.938C178.138 125.284 178.385 125.554 178.698 125.748C179.018 125.934 179.382 126.028 179.788 126.028C180.168 126.028 180.502 125.944 180.788 125.778C181.082 125.604 181.308 125.351 181.468 125.018H183.078C182.845 125.731 182.435 126.288 181.848 126.688C181.268 127.081 180.585 127.278 179.798 127.278C179.132 127.278 178.528 127.128 177.988 126.828C177.455 126.521 177.032 126.098 176.718 125.558C176.412 125.018 176.258 124.404 176.258 123.718Z" fill="#C9AEBC"/>
<path d="M45.3478 120.238C46.0811 120.238 46.7244 120.381 47.2778 120.668C47.8378 120.954 48.2678 121.364 48.5678 121.898C48.8744 122.424 49.0278 123.038 49.0278 123.738C49.0278 124.438 48.8744 125.051 48.5678 125.578C48.2678 126.098 47.8378 126.501 47.2778 126.788C46.7244 127.074 46.0811 127.218 45.3478 127.218H42.9078V120.238H45.3478ZM45.2978 126.028C46.0311 126.028 46.5978 125.828 46.9978 125.428C47.3978 125.028 47.5978 124.464 47.5978 123.738C47.5978 123.011 47.3978 122.444 46.9978 122.038C46.5978 121.624 46.0311 121.418 45.2978 121.418H44.3078V126.028H45.2978ZM55.1007 120.238V127.218H53.7007V120.238H55.1007ZM62.5189 127.288C62.0323 127.288 61.5923 127.204 61.1989 127.038C60.8123 126.871 60.5056 126.631 60.2789 126.318C60.0523 126.004 59.9356 125.634 59.9289 125.208H61.4289C61.4489 125.494 61.5489 125.721 61.7289 125.888C61.9156 126.054 62.1689 126.138 62.4889 126.138C62.8156 126.138 63.0723 126.061 63.2589 125.908C63.4456 125.748 63.5389 125.541 63.5389 125.288C63.5389 125.081 63.4756 124.911 63.3489 124.778C63.2223 124.644 63.0623 124.541 62.8689 124.468C62.6823 124.388 62.4223 124.301 62.0889 124.208C61.6356 124.074 61.2656 123.944 60.9789 123.818C60.6989 123.684 60.4556 123.488 60.2489 123.228C60.0489 122.961 59.9489 122.608 59.9489 122.168C59.9489 121.754 60.0523 121.394 60.2589 121.088C60.4656 120.781 60.7556 120.548 61.1289 120.388C61.5023 120.221 61.9289 120.138 62.4089 120.138C63.1289 120.138 63.7123 120.314 64.1589 120.668C64.6123 121.014 64.8623 121.501 64.9089 122.128H63.3689C63.3556 121.888 63.2523 121.691 63.0589 121.538C62.8723 121.378 62.6223 121.298 62.3089 121.298C62.0356 121.298 61.8156 121.368 61.6489 121.508C61.4889 121.648 61.4089 121.851 61.4089 122.118C61.4089 122.304 61.4689 122.461 61.5889 122.588C61.7156 122.708 61.8689 122.808 62.0489 122.888C62.2356 122.961 62.4956 123.048 62.8289 123.148C63.2823 123.281 63.6523 123.414 63.9389 123.548C64.2256 123.681 64.4723 123.881 64.6789 124.148C64.8856 124.414 64.9889 124.764 64.9889 125.198C64.9889 125.571 64.8923 125.918 64.6989 126.238C64.5056 126.558 64.2223 126.814 63.8489 127.008C63.4756 127.194 63.0323 127.288 62.5189 127.288ZM74.5777 120.238V121.368H72.7177V127.218H71.3177V121.368H69.4577V120.238H74.5777ZM82.8242 127.218L81.2842 124.498H80.6242V127.218H79.2242V120.238H81.8442C82.3842 120.238 82.8442 120.334 83.2242 120.528C83.6042 120.714 83.8875 120.971 84.0742 121.298C84.2675 121.618 84.3642 121.978 84.3642 122.378C84.3642 122.838 84.2308 123.254 83.9642 123.628C83.6975 123.994 83.3008 124.248 82.7742 124.388L84.4442 127.218H82.8242ZM80.6242 123.448H81.7942C82.1742 123.448 82.4575 123.358 82.6442 123.178C82.8308 122.991 82.9242 122.734 82.9242 122.408C82.9242 122.088 82.8308 121.841 82.6442 121.668C82.4575 121.488 82.1742 121.398 81.7942 121.398H80.6242V123.448ZM90.6554 120.238V127.218H89.2554V120.238H90.6554ZM99.6236 123.638C100.017 123.711 100.34 123.908 100.594 124.228C100.847 124.548 100.974 124.914 100.974 125.328C100.974 125.701 100.88 126.031 100.694 126.318C100.514 126.598 100.25 126.818 99.9036 126.978C99.557 127.138 99.147 127.218 98.6736 127.218H95.6636V120.238H98.5436C99.017 120.238 99.4236 120.314 99.7636 120.468C100.11 120.621 100.37 120.834 100.544 121.108C100.724 121.381 100.814 121.691 100.814 122.038C100.814 122.444 100.704 122.784 100.484 123.058C100.27 123.331 99.9836 123.524 99.6236 123.638ZM97.0636 123.118H98.3436C98.677 123.118 98.9336 123.044 99.1136 122.898C99.2936 122.744 99.3836 122.528 99.3836 122.248C99.3836 121.968 99.2936 121.751 99.1136 121.598C98.9336 121.444 98.677 121.368 98.3436 121.368H97.0636V123.118ZM98.4736 126.078C98.8136 126.078 99.077 125.998 99.2636 125.838C99.457 125.678 99.5536 125.451 99.5536 125.158C99.5536 124.858 99.4536 124.624 99.2536 124.458C99.0536 124.284 98.7836 124.198 98.4436 124.198H97.0636V126.078H98.4736ZM107.094 120.238V124.558C107.094 125.031 107.218 125.394 107.464 125.648C107.711 125.894 108.058 126.018 108.504 126.018C108.958 126.018 109.308 125.894 109.554 125.648C109.801 125.394 109.924 125.031 109.924 124.558V120.238H111.334V124.548C111.334 125.141 111.204 125.644 110.944 126.058C110.691 126.464 110.348 126.771 109.914 126.978C109.488 127.184 109.011 127.288 108.484 127.288C107.964 127.288 107.491 127.184 107.064 126.978C106.644 126.771 106.311 126.464 106.064 126.058C105.818 125.644 105.694 125.141 105.694 124.548V120.238H107.094ZM121.062 120.238V121.368H119.202V127.218H117.802V121.368H115.942V120.238H121.062ZM127.109 120.238V127.218H125.709V120.238H127.109ZM135.357 127.288C134.703 127.288 134.103 127.134 133.557 126.828C133.01 126.521 132.577 126.098 132.257 125.558C131.937 125.011 131.777 124.394 131.777 123.708C131.777 123.028 131.937 122.418 132.257 121.878C132.577 121.331 133.01 120.904 133.557 120.598C134.103 120.291 134.703 120.138 135.357 120.138C136.017 120.138 136.617 120.291 137.157 120.598C137.703 120.904 138.133 121.331 138.447 121.878C138.767 122.418 138.927 123.028 138.927 123.708C138.927 124.394 138.767 125.011 138.447 125.558C138.133 126.098 137.703 126.521 137.157 126.828C136.61 127.134 136.01 127.288 135.357 127.288ZM135.357 126.038C135.777 126.038 136.147 125.944 136.467 125.758C136.787 125.564 137.037 125.291 137.217 124.938C137.397 124.584 137.487 124.174 137.487 123.708C137.487 123.241 137.397 122.834 137.217 122.488C137.037 122.134 136.787 121.864 136.467 121.678C136.147 121.491 135.777 121.398 135.357 121.398C134.937 121.398 134.563 121.491 134.237 121.678C133.917 121.864 133.667 122.134 133.487 122.488C133.307 122.834 133.217 123.241 133.217 123.708C133.217 124.174 133.307 124.584 133.487 124.938C133.667 125.291 133.917 125.564 134.237 125.758C134.563 125.944 134.937 126.038 135.357 126.038ZM149.563 127.218H148.163L144.993 122.428V127.218H143.593V120.228H144.993L148.163 125.028V120.228H149.563V127.218ZM154.677 125.748L153.507 128.558H152.607L153.257 125.748H154.677ZM162.769 126.108H165.069V127.218H161.369V120.238H162.769V126.108ZM170.759 126.108H173.059V127.218H169.359V120.238H170.759V126.108ZM176.258 123.718C176.258 123.031 176.412 122.418 176.718 121.878C177.032 121.331 177.455 120.908 177.988 120.608C178.528 120.301 179.132 120.148 179.798 120.148C180.578 120.148 181.262 120.348 181.848 120.748C182.435 121.148 182.845 121.701 183.078 122.408H181.468C181.308 122.074 181.082 121.824 180.788 121.658C180.502 121.491 180.168 121.408 179.788 121.408C179.382 121.408 179.018 121.504 178.698 121.698C178.385 121.884 178.138 122.151 177.958 122.498C177.785 122.844 177.698 123.251 177.698 123.718C177.698 124.178 177.785 124.584 177.958 124.938C178.138 125.284 178.385 125.554 178.698 125.748C179.018 125.934 179.382 126.028 179.788 126.028C180.168 126.028 180.502 125.944 180.788 125.778C181.082 125.604 181.308 125.351 181.468 125.018H183.078C182.845 125.731 182.435 126.288 181.848 126.688C181.268 127.081 180.585 127.278 179.798 127.278C179.132 127.278 178.528 127.128 177.988 126.828C177.455 126.521 177.032 126.098 176.718 125.558C176.412 125.018 176.258 124.404 176.258 123.718Z" fill="url(#paint5_radial)"/>
<defs>
<linearGradient id="paint0_linear" x1="146.718" y1="-27.7822" x2="146.718" y2="100.218" gradientUnits="userSpaceOnUse">
<stop offset="0.26875" stop-color="#4A3942" stop-opacity="0"/>
<stop offset="1" stop-color="#4A3942"/>
</linearGradient>
<linearGradient id="paint1_linear" x1="193.885" y1="217.974" x2="193.885" y2="345.974" gradientUnits="userSpaceOnUse">
<stop offset="0.26875" stop-color="#4A3942" stop-opacity="0"/>
<stop offset="1" stop-color="#4A3942"/>
</linearGradient>
<linearGradient id="paint2_linear" x1="219.221" y1="167.644" x2="219.221" y2="273.739" gradientUnits="userSpaceOnUse">
<stop offset="0.26875" stop-color="#4A3942" stop-opacity="0"/>
<stop offset="1" stop-color="#4A3942"/>
</linearGradient>
<linearGradient id="paint3_linear" x1="47.4875" y1="45.5994" x2="47.4875" y2="151.694" gradientUnits="userSpaceOnUse">
<stop offset="0.26875" stop-color="#4A3942" stop-opacity="0"/>
<stop offset="1" stop-color="#4A3942"/>
</linearGradient>
<radialGradient id="paint4_radial" cx="0" cy="0" r="1" gradientUnits="userSpaceOnUse" gradientTransform="translate(99 99.5001) rotate(86.8779) scale(27.5409 127.263)">
<stop stop-color="#140523" stop-opacity="0"/>
<stop offset="1" stop-color="white" stop-opacity="0.25"/>
<stop offset="1" stop-color="#140523"/>
</radialGradient>
<radialGradient id="paint5_radial" cx="0" cy="0" r="1" gradientUnits="userSpaceOnUse" gradientTransform="translate(100.993 123.218) rotate(87.5524) scale(11.01 104.253)">
<stop stop-color="#140523" stop-opacity="0.28"/>
<stop offset="1" stop-color="#140523" stop-opacity="0.25"/>
</radialGradient>
</defs>
</svg>
