<svg width="255" height="255" viewBox="0 0 255 255" fill="none" xmlns="http://www.w3.org/2000/svg">
<circle cx="127.5" cy="127.5" r="127.5" fill="#344F5E"/>
<circle cx="127.5" cy="127.5" r="59" fill="#344F5E" stroke="#6DAACB"/>
<rect x="41" y="93" width="181" height="74" fill="#344F5E"/>
<path d="M66.0781 106.496V111.92H52.1101V120.512H62.8141V125.84H52.1101V140H45.3901V106.496H66.0781ZM74.2513 110.24C73.0673 110.24 72.0753 109.872 71.2753 109.136C70.5073 108.368 70.1233 107.424 70.1233 106.304C70.1233 105.184 70.5073 104.256 71.2753 103.52C72.0753 102.752 73.0673 102.368 74.2513 102.368C75.4353 102.368 76.4113 102.752 77.1793 103.52C77.9793 104.256 78.3793 105.184 78.3793 106.304C78.3793 107.424 77.9793 108.368 77.1793 109.136C76.4113 109.872 75.4353 110.24 74.2513 110.24ZM77.5633 113.408V140H70.8433V113.408H77.5633ZM82.4746 126.608C82.4746 123.92 83.0026 121.536 84.0586 119.456C85.1466 117.376 86.6186 115.776 88.4746 114.656C90.3306 113.536 92.3946 112.976 94.6666 112.976C96.3946 112.976 98.0426 113.36 99.6106 114.128C101.179 114.864 102.427 115.856 103.355 117.104V104.48H110.171V140H103.355V136.064C102.523 137.376 101.355 138.432 99.8506 139.232C98.3466 140.032 96.6026 140.432 94.6186 140.432C92.3786 140.432 90.3306 139.856 88.4746 138.704C86.6186 137.552 85.1466 135.936 84.0586 133.856C83.0026 131.744 82.4746 129.328 82.4746 126.608ZM103.403 126.704C103.403 125.072 103.083 123.68 102.443 122.528C101.803 121.344 100.939 120.448 99.8506 119.84C98.7626 119.2 97.5946 118.88 96.3466 118.88C95.0986 118.88 93.9466 119.184 92.8906 119.792C91.8346 120.4 90.9706 121.296 90.2986 122.48C89.6586 123.632 89.3386 125.008 89.3386 126.608C89.3386 128.208 89.6586 129.616 90.2986 130.832C90.9706 132.016 91.8346 132.928 92.8906 133.568C93.9786 134.208 95.1306 134.528 96.3466 134.528C97.5946 134.528 98.7626 134.224 99.8506 133.616C100.939 132.976 101.803 132.08 102.443 130.928C103.083 129.744 103.403 128.336 103.403 126.704ZM141.454 126.128C141.454 127.088 141.39 127.952 141.262 128.72H121.822C121.982 130.64 122.654 132.144 123.838 133.232C125.022 134.32 126.478 134.864 128.206 134.864C130.702 134.864 132.478 133.792 133.534 131.648H140.782C140.014 134.208 138.542 136.32 136.366 137.984C134.19 139.616 131.518 140.432 128.35 140.432C125.79 140.432 123.486 139.872 121.438 138.752C119.422 137.6 117.838 135.984 116.686 133.904C115.566 131.824 115.006 129.424 115.006 126.704C115.006 123.952 115.566 121.536 116.686 119.456C117.806 117.376 119.374 115.776 121.39 114.656C123.406 113.536 125.726 112.976 128.35 112.976C130.878 112.976 133.134 113.52 135.118 114.608C137.134 115.696 138.686 117.248 139.774 119.264C140.894 121.248 141.454 123.536 141.454 126.128ZM134.494 124.208C134.462 122.48 133.838 121.104 132.622 120.08C131.406 119.024 129.918 118.496 128.158 118.496C126.494 118.496 125.086 119.008 123.934 120.032C122.814 121.024 122.126 122.416 121.87 124.208H134.494ZM153.079 104.48V140H146.359V104.48H153.079ZM163.126 110.24C161.942 110.24 160.95 109.872 160.15 109.136C159.382 108.368 158.998 107.424 158.998 106.304C158.998 105.184 159.382 104.256 160.15 103.52C160.95 102.752 161.942 102.368 163.126 102.368C164.31 102.368 165.286 102.752 166.054 103.52C166.854 104.256 167.254 105.184 167.254 106.304C167.254 107.424 166.854 108.368 166.054 109.136C165.286 109.872 164.31 110.24 163.126 110.24ZM166.438 113.408V140H159.718V113.408H166.438ZM183.254 140.432C181.078 140.432 179.126 140.048 177.398 139.28C175.67 138.48 174.294 137.408 173.27 136.064C172.278 134.72 171.734 133.232 171.638 131.6H178.406C178.534 132.624 179.03 133.472 179.894 134.144C180.79 134.816 181.894 135.152 183.206 135.152C184.486 135.152 185.478 134.896 186.182 134.384C186.918 133.872 187.286 133.216 187.286 132.416C187.286 131.552 186.838 130.912 185.942 130.496C185.078 130.048 183.686 129.568 181.766 129.056C179.782 128.576 178.15 128.08 176.87 127.568C175.622 127.056 174.534 126.272 173.606 125.216C172.71 124.16 172.262 122.736 172.262 120.944C172.262 119.472 172.678 118.128 173.51 116.912C174.374 115.696 175.59 114.736 177.158 114.032C178.758 113.328 180.63 112.976 182.774 112.976C185.942 112.976 188.47 113.776 190.358 115.376C192.246 116.944 193.286 119.072 193.478 121.76H187.046C186.95 120.704 186.502 119.872 185.702 119.264C184.934 118.624 183.894 118.304 182.582 118.304C181.366 118.304 180.422 118.528 179.75 118.976C179.11 119.424 178.79 120.048 178.79 120.848C178.79 121.744 179.238 122.432 180.134 122.912C181.03 123.36 182.422 123.824 184.31 124.304C186.23 124.784 187.814 125.28 189.062 125.792C190.31 126.304 191.382 127.104 192.278 128.192C193.206 129.248 193.686 130.656 193.718 132.416C193.718 133.952 193.286 135.328 192.422 136.544C191.59 137.76 190.374 138.72 188.774 139.424C187.206 140.096 185.366 140.432 183.254 140.432Z" fill="#83C6EB"/>
<path d="M71.756 150.624C72.636 150.624 73.408 150.796 74.072 151.14C74.744 151.484 75.26 151.976 75.62 152.616C75.988 153.248 76.172 153.984 76.172 154.824C76.172 155.664 75.988 156.4 75.62 157.032C75.26 157.656 74.744 158.14 74.072 158.484C73.408 158.828 72.636 159 71.756 159H68.828V150.624H71.756ZM71.696 157.572C72.576 157.572 73.256 157.332 73.736 156.852C74.216 156.372 74.456 155.696 74.456 154.824C74.456 153.952 74.216 153.272 73.736 152.784C73.256 152.288 72.576 152.04 71.696 152.04H70.508V157.572H71.696ZM81.8696 150.624V159H80.1896V150.624H81.8696ZM89.1814 159.084C88.5974 159.084 88.0694 158.984 87.5974 158.784C87.1334 158.584 86.7654 158.296 86.4934 157.92C86.2214 157.544 86.0814 157.1 86.0734 156.588H87.8734C87.8974 156.932 88.0174 157.204 88.2334 157.404C88.4574 157.604 88.7614 157.704 89.1454 157.704C89.5374 157.704 89.8454 157.612 90.0694 157.428C90.2934 157.236 90.4054 156.988 90.4054 156.684C90.4054 156.436 90.3294 156.232 90.1774 156.072C90.0254 155.912 89.8334 155.788 89.6014 155.7C89.3774 155.604 89.0654 155.5 88.6654 155.388C88.1214 155.228 87.6774 155.072 87.3334 154.92C86.9974 154.76 86.7054 154.524 86.4574 154.212C86.2174 153.892 86.0974 153.468 86.0974 152.94C86.0974 152.444 86.2214 152.012 86.4694 151.644C86.7174 151.276 87.0654 150.996 87.5134 150.804C87.9614 150.604 88.4734 150.504 89.0494 150.504C89.9134 150.504 90.6134 150.716 91.1494 151.14C91.6934 151.556 91.9934 152.14 92.0494 152.892H90.2014C90.1854 152.604 90.0614 152.368 89.8294 152.184C89.6054 151.992 89.3054 151.896 88.9294 151.896C88.6014 151.896 88.3374 151.98 88.1374 152.148C87.9454 152.316 87.8494 152.56 87.8494 152.88C87.8494 153.104 87.9214 153.292 88.0654 153.444C88.2174 153.588 88.4014 153.708 88.6174 153.804C88.8414 153.892 89.1534 153.996 89.5534 154.116C90.0974 154.276 90.5414 154.436 90.8854 154.596C91.2294 154.756 91.5254 154.996 91.7734 155.316C92.0214 155.636 92.1454 156.056 92.1454 156.576C92.1454 157.024 92.0294 157.44 91.7974 157.824C91.5654 158.208 91.2254 158.516 90.7774 158.748C90.3294 158.972 89.7974 159.084 89.1814 159.084ZM102.062 150.624V151.98H99.8299V159H98.1499V151.98H95.9179V150.624H102.062ZM110.368 159L108.52 155.736H107.728V159H106.048V150.624H109.192C109.84 150.624 110.392 150.74 110.848 150.972C111.304 151.196 111.644 151.504 111.868 151.896C112.1 152.28 112.216 152.712 112.216 153.192C112.216 153.744 112.056 154.244 111.736 154.692C111.416 155.132 110.94 155.436 110.308 155.604L112.312 159H110.368ZM107.728 154.476H109.132C109.588 154.476 109.928 154.368 110.152 154.152C110.376 153.928 110.488 153.62 110.488 153.228C110.488 152.844 110.376 152.548 110.152 152.34C109.928 152.124 109.588 152.016 109.132 152.016H107.728V154.476ZM118.175 150.624V159H116.495V150.624H118.175ZM127.347 154.704C127.819 154.792 128.207 155.028 128.511 155.412C128.815 155.796 128.967 156.236 128.967 156.732C128.967 157.18 128.855 157.576 128.631 157.92C128.415 158.256 128.099 158.52 127.683 158.712C127.267 158.904 126.775 159 126.207 159H122.595V150.624H126.051C126.619 150.624 127.107 150.716 127.515 150.9C127.931 151.084 128.243 151.34 128.451 151.668C128.667 151.996 128.775 152.368 128.775 152.784C128.775 153.272 128.643 153.68 128.379 154.008C128.123 154.336 127.779 154.568 127.347 154.704ZM124.275 154.08H125.811C126.211 154.08 126.519 153.992 126.735 153.816C126.951 153.632 127.059 153.372 127.059 153.036C127.059 152.7 126.951 152.44 126.735 152.256C126.519 152.072 126.211 151.98 125.811 151.98H124.275V154.08ZM125.967 157.632C126.375 157.632 126.691 157.536 126.915 157.344C127.147 157.152 127.263 156.88 127.263 156.528C127.263 156.168 127.143 155.888 126.903 155.688C126.663 155.48 126.339 155.376 125.931 155.376H124.275V157.632H125.967ZM134.722 150.624V155.808C134.722 156.376 134.87 156.812 135.166 157.116C135.462 157.412 135.878 157.56 136.414 157.56C136.958 157.56 137.378 157.412 137.674 157.116C137.97 156.812 138.118 156.376 138.118 155.808V150.624H139.81V155.796C139.81 156.508 139.654 157.112 139.342 157.608C139.038 158.096 138.626 158.464 138.106 158.712C137.594 158.96 137.022 159.084 136.39 159.084C135.766 159.084 135.198 158.96 134.686 158.712C134.182 158.464 133.782 158.096 133.486 157.608C133.19 157.112 133.042 156.508 133.042 155.796V150.624H134.722ZM149.893 150.624V151.98H147.661V159H145.981V151.98H143.749V150.624H149.893ZM155.559 150.624V159H153.879V150.624H155.559ZM163.867 159.084C163.083 159.084 162.363 158.9 161.707 158.532C161.051 158.164 160.531 157.656 160.147 157.008C159.763 156.352 159.571 155.612 159.571 154.788C159.571 153.972 159.763 153.24 160.147 152.592C160.531 151.936 161.051 151.424 161.707 151.056C162.363 150.688 163.083 150.504 163.867 150.504C164.659 150.504 165.379 150.688 166.027 151.056C166.683 151.424 167.199 151.936 167.575 152.592C167.959 153.24 168.151 153.972 168.151 154.788C168.151 155.612 167.959 156.352 167.575 157.008C167.199 157.656 166.683 158.164 166.027 158.532C165.371 158.9 164.651 159.084 163.867 159.084ZM163.867 157.584C164.371 157.584 164.815 157.472 165.199 157.248C165.583 157.016 165.883 156.688 166.099 156.264C166.315 155.84 166.423 155.348 166.423 154.788C166.423 154.228 166.315 153.74 166.099 153.324C165.883 152.9 165.583 152.576 165.199 152.352C164.815 152.128 164.371 152.016 163.867 152.016C163.363 152.016 162.915 152.128 162.523 152.352C162.139 152.576 161.839 152.9 161.623 153.324C161.407 153.74 161.299 154.228 161.299 154.788C161.299 155.348 161.407 155.84 161.623 156.264C161.839 156.688 162.139 157.016 162.523 157.248C162.915 157.472 163.363 157.584 163.867 157.584ZM179.325 159H177.645L173.841 153.252V159H172.161V150.612H173.841L177.645 156.372V150.612H179.325V159ZM185.581 157.236L184.177 160.608H183.097L183.877 157.236H185.581ZM196.851 157.668H199.611V159H195.171V150.624H196.851V157.668ZM205.119 157.668H207.879V159H203.439V150.624H205.119V157.668ZM211.299 154.8C211.299 153.976 211.483 153.24 211.851 152.592C212.227 151.936 212.735 151.428 213.375 151.068C214.023 150.7 214.747 150.516 215.547 150.516C216.483 150.516 217.303 150.756 218.007 151.236C218.711 151.716 219.203 152.38 219.483 153.228H217.551C217.359 152.828 217.087 152.528 216.735 152.328C216.391 152.128 215.991 152.028 215.535 152.028C215.047 152.028 214.611 152.144 214.227 152.376C213.851 152.6 213.555 152.92 213.339 153.336C213.131 153.752 213.027 154.24 213.027 154.8C213.027 155.352 213.131 155.84 213.339 156.264C213.555 156.68 213.851 157.004 214.227 157.236C214.611 157.46 215.047 157.572 215.535 157.572C215.991 157.572 216.391 157.472 216.735 157.272C217.087 157.064 217.359 156.76 217.551 156.36H219.483C219.203 157.216 218.711 157.884 218.007 158.364C217.311 158.836 216.491 159.072 215.547 159.072C214.747 159.072 214.023 158.892 213.375 158.532C212.735 158.164 212.227 157.656 211.851 157.008C211.483 156.36 211.299 155.624 211.299 154.8Z" fill="#83C6EB"/>
</svg>
