<svg width="200" height="200" viewBox="0 0 200 200" fill="none" xmlns="http://www.w3.org/2000/svg">
<rect width="199.436" height="199.436" fill="#0E031A"/>
<mask id="mask0" mask-type="alpha" maskUnits="userSpaceOnUse" x="23" y="23" width="154" height="154">
<circle cx="99.7178" cy="99.7178" r="76" stroke="#90BFDA" stroke-linecap="round"/>
</mask>
<g mask="url(#mask0)">
<rect x="100.218" y="-27.7822" width="93" height="128" fill="url(#paint0_linear)"/>
</g>
<mask id="mask1" mask-type="alpha" maskUnits="userSpaceOnUse" x="0" y="0" width="200" height="200">
<circle cx="99.7179" cy="99.7179" r="76" transform="rotate(157.822 99.7179 99.7179)" stroke="#90BFDA" stroke-linecap="round"/>
</mask>
<g mask="url(#mask1)">
<rect x="147.385" y="217.974" width="93" height="128" transform="rotate(157.822 147.385 217.974)" fill="url(#paint1_linear)"/>
</g>
<mask id="mask2" mask-type="alpha" maskUnits="userSpaceOnUse" x="10" y="10" width="180" height="180">
<circle cx="99.7182" cy="99.7179" r="62.9083" transform="rotate(129.772 99.7182 99.7179)" stroke="#90BFDA" stroke-linecap="round"/>
</mask>
<g mask="url(#mask2)">
<rect x="180.679" y="167.644" width="77.0846" height="106.095" transform="rotate(129.772 180.679 167.644)" fill="url(#paint2_linear)"/>
</g>
<mask id="mask3" mask-type="alpha" maskUnits="userSpaceOnUse" x="12" y="12" width="175" height="175">
<circle cx="99.7182" cy="99.7178" r="62.9083" transform="rotate(-59.4215 99.7182 99.7178)" stroke="#90BFDA" stroke-linecap="round"/>
</mask>
<g mask="url(#mask3)">
<rect x="8.94519" y="45.5994" width="77.0846" height="106.095" transform="rotate(-59.4215 8.94519 45.5994)" fill="url(#paint3_linear)"/>
</g>
<path d="M38.4381 78.496V83.92H24.4701V92.512H35.1741V97.84H24.4701V112H17.7501V78.496H38.4381ZM45.8913 82.24C44.7073 82.24 43.7153 81.872 42.9153 81.136C42.1473 80.368 41.7633 79.424 41.7633 78.304C41.7633 77.184 42.1473 76.256 42.9153 75.52C43.7153 74.752 44.7073 74.368 45.8913 74.368C47.0753 74.368 48.0513 74.752 48.8193 75.52C49.6193 76.256 50.0193 77.184 50.0193 78.304C50.0193 79.424 49.6193 80.368 48.8193 81.136C48.0513 81.872 47.0753 82.24 45.8913 82.24ZM49.2033 85.408V112H42.4833V85.408H49.2033ZM54.1146 98.608C54.1146 95.92 54.6426 93.536 55.6986 91.456C56.7866 89.376 58.2586 87.776 60.1146 86.656C61.9706 85.536 64.0346 84.976 66.3066 84.976C68.0346 84.976 69.6826 85.36 71.2506 86.128C72.8186 86.864 74.0666 87.856 74.9946 89.104V76.48H81.8106V112H74.9946V108.064C74.1626 109.376 72.9946 110.432 71.4906 111.232C69.9866 112.032 68.2426 112.432 66.2586 112.432C64.0186 112.432 61.9706 111.856 60.1146 110.704C58.2586 109.552 56.7866 107.936 55.6986 105.856C54.6426 103.744 54.1146 101.328 54.1146 98.608ZM75.0426 98.704C75.0426 97.072 74.7226 95.68 74.0826 94.528C73.4426 93.344 72.5786 92.448 71.4906 91.84C70.4026 91.2 69.2346 90.88 67.9866 90.88C66.7386 90.88 65.5866 91.184 64.5306 91.792C63.4746 92.4 62.6106 93.296 61.9386 94.48C61.2986 95.632 60.9786 97.008 60.9786 98.608C60.9786 100.208 61.2986 101.616 61.9386 102.832C62.6106 104.016 63.4746 104.928 64.5306 105.568C65.6186 106.208 66.7706 106.528 67.9866 106.528C69.2346 106.528 70.4026 106.224 71.4906 105.616C72.5786 104.976 73.4426 104.08 74.0826 102.928C74.7226 101.744 75.0426 100.336 75.0426 98.704ZM113.094 98.128C113.094 99.088 113.03 99.952 112.902 100.72H93.4619C93.6219 102.64 94.2939 104.144 95.4779 105.232C96.6619 106.32 98.1179 106.864 99.8459 106.864C102.342 106.864 104.118 105.792 105.174 103.648H112.422C111.654 106.208 110.182 108.32 108.006 109.984C105.83 111.616 103.158 112.432 99.9899 112.432C97.4299 112.432 95.1259 111.872 93.0779 110.752C91.0619 109.6 89.4779 107.984 88.3259 105.904C87.2059 103.824 86.6459 101.424 86.6459 98.704C86.6459 95.952 87.2059 93.536 88.3259 91.456C89.4459 89.376 91.0139 87.776 93.0299 86.656C95.0459 85.536 97.3659 84.976 99.9899 84.976C102.518 84.976 104.774 85.52 106.758 86.608C108.774 87.696 110.326 89.248 111.414 91.264C112.534 93.248 113.094 95.536 113.094 98.128ZM106.134 96.208C106.102 94.48 105.478 93.104 104.262 92.08C103.046 91.024 101.558 90.496 99.7979 90.496C98.1339 90.496 96.7259 91.008 95.5739 92.032C94.4539 93.024 93.7659 94.416 93.5099 96.208H106.134ZM124.719 76.48V112H117.999V76.48H124.719ZM134.766 82.24C133.582 82.24 132.59 81.872 131.79 81.136C131.022 80.368 130.638 79.424 130.638 78.304C130.638 77.184 131.022 76.256 131.79 75.52C132.59 74.752 133.582 74.368 134.766 74.368C135.95 74.368 136.926 74.752 137.694 75.52C138.494 76.256 138.894 77.184 138.894 78.304C138.894 79.424 138.494 80.368 137.694 81.136C136.926 81.872 135.95 82.24 134.766 82.24ZM138.078 85.408V112H131.358V85.408H138.078ZM154.894 112.432C152.718 112.432 150.766 112.048 149.038 111.28C147.31 110.48 145.934 109.408 144.91 108.064C143.918 106.72 143.374 105.232 143.278 103.6H150.046C150.174 104.624 150.67 105.472 151.534 106.144C152.43 106.816 153.534 107.152 154.846 107.152C156.126 107.152 157.118 106.896 157.822 106.384C158.558 105.872 158.926 105.216 158.926 104.416C158.926 103.552 158.478 102.912 157.582 102.496C156.718 102.048 155.326 101.568 153.406 101.056C151.422 100.576 149.79 100.08 148.51 99.568C147.262 99.056 146.174 98.272 145.246 97.216C144.35 96.16 143.902 94.736 143.902 92.944C143.902 91.472 144.318 90.128 145.15 88.912C146.014 87.696 147.23 86.736 148.798 86.032C150.398 85.328 152.27 84.976 154.414 84.976C157.582 84.976 160.11 85.776 161.998 87.376C163.886 88.944 164.926 91.072 165.118 93.76H158.686C158.59 92.704 158.142 91.872 157.342 91.264C156.574 90.624 155.534 90.304 154.222 90.304C153.006 90.304 152.062 90.528 151.39 90.976C150.75 91.424 150.43 92.048 150.43 92.848C150.43 93.744 150.878 94.432 151.774 94.912C152.67 95.36 154.062 95.824 155.95 96.304C157.87 96.784 159.454 97.28 160.702 97.792C161.95 98.304 163.022 99.104 163.918 100.192C164.846 101.248 165.326 102.656 165.358 104.416C165.358 105.952 164.926 107.328 164.062 108.544C163.23 109.76 162.014 110.72 160.414 111.424C158.846 112.096 157.006 112.432 154.894 112.432Z" fill="#AB95A1"/>
<path d="M38.4381 78.496V83.92H24.4701V92.512H35.1741V97.84H24.4701V112H17.7501V78.496H38.4381ZM45.8913 82.24C44.7073 82.24 43.7153 81.872 42.9153 81.136C42.1473 80.368 41.7633 79.424 41.7633 78.304C41.7633 77.184 42.1473 76.256 42.9153 75.52C43.7153 74.752 44.7073 74.368 45.8913 74.368C47.0753 74.368 48.0513 74.752 48.8193 75.52C49.6193 76.256 50.0193 77.184 50.0193 78.304C50.0193 79.424 49.6193 80.368 48.8193 81.136C48.0513 81.872 47.0753 82.24 45.8913 82.24ZM49.2033 85.408V112H42.4833V85.408H49.2033ZM54.1146 98.608C54.1146 95.92 54.6426 93.536 55.6986 91.456C56.7866 89.376 58.2586 87.776 60.1146 86.656C61.9706 85.536 64.0346 84.976 66.3066 84.976C68.0346 84.976 69.6826 85.36 71.2506 86.128C72.8186 86.864 74.0666 87.856 74.9946 89.104V76.48H81.8106V112H74.9946V108.064C74.1626 109.376 72.9946 110.432 71.4906 111.232C69.9866 112.032 68.2426 112.432 66.2586 112.432C64.0186 112.432 61.9706 111.856 60.1146 110.704C58.2586 109.552 56.7866 107.936 55.6986 105.856C54.6426 103.744 54.1146 101.328 54.1146 98.608ZM75.0426 98.704C75.0426 97.072 74.7226 95.68 74.0826 94.528C73.4426 93.344 72.5786 92.448 71.4906 91.84C70.4026 91.2 69.2346 90.88 67.9866 90.88C66.7386 90.88 65.5866 91.184 64.5306 91.792C63.4746 92.4 62.6106 93.296 61.9386 94.48C61.2986 95.632 60.9786 97.008 60.9786 98.608C60.9786 100.208 61.2986 101.616 61.9386 102.832C62.6106 104.016 63.4746 104.928 64.5306 105.568C65.6186 106.208 66.7706 106.528 67.9866 106.528C69.2346 106.528 70.4026 106.224 71.4906 105.616C72.5786 104.976 73.4426 104.08 74.0826 102.928C74.7226 101.744 75.0426 100.336 75.0426 98.704ZM113.094 98.128C113.094 99.088 113.03 99.952 112.902 100.72H93.4619C93.6219 102.64 94.2939 104.144 95.4779 105.232C96.6619 106.32 98.1179 106.864 99.8459 106.864C102.342 106.864 104.118 105.792 105.174 103.648H112.422C111.654 106.208 110.182 108.32 108.006 109.984C105.83 111.616 103.158 112.432 99.9899 112.432C97.4299 112.432 95.1259 111.872 93.0779 110.752C91.0619 109.6 89.4779 107.984 88.3259 105.904C87.2059 103.824 86.6459 101.424 86.6459 98.704C86.6459 95.952 87.2059 93.536 88.3259 91.456C89.4459 89.376 91.0139 87.776 93.0299 86.656C95.0459 85.536 97.3659 84.976 99.9899 84.976C102.518 84.976 104.774 85.52 106.758 86.608C108.774 87.696 110.326 89.248 111.414 91.264C112.534 93.248 113.094 95.536 113.094 98.128ZM106.134 96.208C106.102 94.48 105.478 93.104 104.262 92.08C103.046 91.024 101.558 90.496 99.7979 90.496C98.1339 90.496 96.7259 91.008 95.5739 92.032C94.4539 93.024 93.7659 94.416 93.5099 96.208H106.134ZM124.719 76.48V112H117.999V76.48H124.719ZM134.766 82.24C133.582 82.24 132.59 81.872 131.79 81.136C131.022 80.368 130.638 79.424 130.638 78.304C130.638 77.184 131.022 76.256 131.79 75.52C132.59 74.752 133.582 74.368 134.766 74.368C135.95 74.368 136.926 74.752 137.694 75.52C138.494 76.256 138.894 77.184 138.894 78.304C138.894 79.424 138.494 80.368 137.694 81.136C136.926 81.872 135.95 82.24 134.766 82.24ZM138.078 85.408V112H131.358V85.408H138.078ZM154.894 112.432C152.718 112.432 150.766 112.048 149.038 111.28C147.31 110.48 145.934 109.408 144.91 108.064C143.918 106.72 143.374 105.232 143.278 103.6H150.046C150.174 104.624 150.67 105.472 151.534 106.144C152.43 106.816 153.534 107.152 154.846 107.152C156.126 107.152 157.118 106.896 157.822 106.384C158.558 105.872 158.926 105.216 158.926 104.416C158.926 103.552 158.478 102.912 157.582 102.496C156.718 102.048 155.326 101.568 153.406 101.056C151.422 100.576 149.79 100.08 148.51 99.568C147.262 99.056 146.174 98.272 145.246 97.216C144.35 96.16 143.902 94.736 143.902 92.944C143.902 91.472 144.318 90.128 145.15 88.912C146.014 87.696 147.23 86.736 148.798 86.032C150.398 85.328 152.27 84.976 154.414 84.976C157.582 84.976 160.11 85.776 161.998 87.376C163.886 88.944 164.926 91.072 165.118 93.76H158.686C158.59 92.704 158.142 91.872 157.342 91.264C156.574 90.624 155.534 90.304 154.222 90.304C153.006 90.304 152.062 90.528 151.39 90.976C150.75 91.424 150.43 92.048 150.43 92.848C150.43 93.744 150.878 94.432 151.774 94.912C152.67 95.36 154.062 95.824 155.95 96.304C157.87 96.784 159.454 97.28 160.702 97.792C161.95 98.304 163.022 99.104 163.918 100.192C164.846 101.248 165.326 102.656 165.358 104.416C165.358 105.952 164.926 107.328 164.062 108.544C163.23 109.76 162.014 110.72 160.414 111.424C158.846 112.096 157.006 112.432 154.894 112.432Z" fill="url(#paint4_radial)"/>
<path d="M45.13 120.02C45.8633 120.02 46.5067 120.163 47.06 120.45C47.62 120.737 48.05 121.147 48.35 121.68C48.6567 122.207 48.81 122.82 48.81 123.52C48.81 124.22 48.6567 124.833 48.35 125.36C48.05 125.88 47.62 126.283 47.06 126.57C46.5067 126.857 45.8633 127 45.13 127H42.69V120.02H45.13ZM45.08 125.81C45.8133 125.81 46.38 125.61 46.78 125.21C47.18 124.81 47.38 124.247 47.38 123.52C47.38 122.793 47.18 122.227 46.78 121.82C46.38 121.407 45.8133 121.2 45.08 121.2H44.09V125.81H45.08ZM54.808 120.02V127H53.408V120.02H54.808ZM62.1512 127.07C61.6645 127.07 61.2245 126.987 60.8312 126.82C60.4445 126.653 60.1378 126.413 59.9112 126.1C59.6845 125.787 59.5678 125.417 59.5612 124.99H61.0612C61.0812 125.277 61.1812 125.503 61.3612 125.67C61.5478 125.837 61.8012 125.92 62.1212 125.92C62.4478 125.92 62.7045 125.843 62.8912 125.69C63.0778 125.53 63.1712 125.323 63.1712 125.07C63.1712 124.863 63.1078 124.693 62.9812 124.56C62.8545 124.427 62.6945 124.323 62.5012 124.25C62.3145 124.17 62.0545 124.083 61.7212 123.99C61.2678 123.857 60.8978 123.727 60.6112 123.6C60.3312 123.467 60.0878 123.27 59.8812 123.01C59.6812 122.743 59.5812 122.39 59.5812 121.95C59.5812 121.537 59.6845 121.177 59.8912 120.87C60.0978 120.563 60.3878 120.33 60.7612 120.17C61.1345 120.003 61.5612 119.92 62.0412 119.92C62.7612 119.92 63.3445 120.097 63.7912 120.45C64.2445 120.797 64.4945 121.283 64.5412 121.91H63.0012C62.9878 121.67 62.8845 121.473 62.6912 121.32C62.5045 121.16 62.2545 121.08 61.9412 121.08C61.6678 121.08 61.4478 121.15 61.2812 121.29C61.1212 121.43 61.0412 121.633 61.0412 121.9C61.0412 122.087 61.1012 122.243 61.2212 122.37C61.3478 122.49 61.5012 122.59 61.6812 122.67C61.8678 122.743 62.1278 122.83 62.4612 122.93C62.9145 123.063 63.2845 123.197 63.5712 123.33C63.8578 123.463 64.1045 123.663 64.3112 123.93C64.5178 124.197 64.6212 124.547 64.6212 124.98C64.6212 125.353 64.5245 125.7 64.3312 126.02C64.1378 126.34 63.8545 126.597 63.4812 126.79C63.1078 126.977 62.6645 127.07 62.1512 127.07ZM74.1349 120.02V121.15H72.2749V127H70.8749V121.15H69.0149V120.02H74.1349ZM82.3064 127L80.7664 124.28H80.1064V127H78.7064V120.02H81.3264C81.8664 120.02 82.3264 120.117 82.7064 120.31C83.0864 120.497 83.3697 120.753 83.5564 121.08C83.7497 121.4 83.8464 121.76 83.8464 122.16C83.8464 122.62 83.7131 123.037 83.4464 123.41C83.1797 123.777 82.7831 124.03 82.2564 124.17L83.9264 127H82.3064ZM80.1064 123.23H81.2764C81.6564 123.23 81.9397 123.14 82.1264 122.96C82.3131 122.773 82.4064 122.517 82.4064 122.19C82.4064 121.87 82.3131 121.623 82.1264 121.45C81.9397 121.27 81.6564 121.18 81.2764 121.18H80.1064V123.23ZM90.0627 120.02V127H88.6627V120.02H90.0627ZM98.9559 123.42C99.3492 123.493 99.6725 123.69 99.9259 124.01C100.179 124.33 100.306 124.697 100.306 125.11C100.306 125.483 100.213 125.813 100.026 126.1C99.8459 126.38 99.5825 126.6 99.2359 126.76C98.8892 126.92 98.4792 127 98.0059 127H94.9959V120.02H97.8759C98.3492 120.02 98.7559 120.097 99.0959 120.25C99.4425 120.403 99.7025 120.617 99.8759 120.89C100.056 121.163 100.146 121.473 100.146 121.82C100.146 122.227 100.036 122.567 99.8159 122.84C99.6025 123.113 99.3159 123.307 98.9559 123.42ZM96.3959 122.9H97.6759C98.0092 122.9 98.2659 122.827 98.4459 122.68C98.6259 122.527 98.7159 122.31 98.7159 122.03C98.7159 121.75 98.6259 121.533 98.4459 121.38C98.2659 121.227 98.0092 121.15 97.6759 121.15H96.3959V122.9ZM97.8059 125.86C98.1459 125.86 98.4092 125.78 98.5959 125.62C98.7892 125.46 98.8859 125.233 98.8859 124.94C98.8859 124.64 98.7859 124.407 98.5859 124.24C98.3859 124.067 98.1159 123.98 97.7759 123.98H96.3959V125.86H97.8059ZM106.352 120.02V124.34C106.352 124.813 106.475 125.177 106.722 125.43C106.968 125.677 107.315 125.8 107.762 125.8C108.215 125.8 108.565 125.677 108.812 125.43C109.058 125.177 109.182 124.813 109.182 124.34V120.02H110.592V124.33C110.592 124.923 110.462 125.427 110.202 125.84C109.948 126.247 109.605 126.553 109.172 126.76C108.745 126.967 108.268 127.07 107.742 127.07C107.222 127.07 106.748 126.967 106.322 126.76C105.902 126.553 105.568 126.247 105.322 125.84C105.075 125.427 104.952 124.923 104.952 124.33V120.02H106.352ZM120.244 120.02V121.15H118.384V127H116.984V121.15H115.124V120.02H120.244ZM126.216 120.02V127H124.816V120.02H126.216ZM134.389 127.07C133.736 127.07 133.136 126.917 132.589 126.61C132.042 126.303 131.609 125.88 131.289 125.34C130.969 124.793 130.809 124.177 130.809 123.49C130.809 122.81 130.969 122.2 131.289 121.66C131.609 121.113 132.042 120.687 132.589 120.38C133.136 120.073 133.736 119.92 134.389 119.92C135.049 119.92 135.649 120.073 136.189 120.38C136.736 120.687 137.166 121.113 137.479 121.66C137.799 122.2 137.959 122.81 137.959 123.49C137.959 124.177 137.799 124.793 137.479 125.34C137.166 125.88 136.736 126.303 136.189 126.61C135.642 126.917 135.042 127.07 134.389 127.07ZM134.389 125.82C134.809 125.82 135.179 125.727 135.499 125.54C135.819 125.347 136.069 125.073 136.249 124.72C136.429 124.367 136.519 123.957 136.519 123.49C136.519 123.023 136.429 122.617 136.249 122.27C136.069 121.917 135.819 121.647 135.499 121.46C135.179 121.273 134.809 121.18 134.389 121.18C133.969 121.18 133.596 121.273 133.269 121.46C132.949 121.647 132.699 121.917 132.519 122.27C132.339 122.617 132.249 123.023 132.249 123.49C132.249 123.957 132.339 124.367 132.519 124.72C132.699 125.073 132.949 125.347 133.269 125.54C133.596 125.727 133.969 125.82 134.389 125.82ZM148.521 127H147.121L143.951 122.21V127H142.551V120.01H143.951L147.121 124.81V120.01H148.521V127ZM153.634 125.53L152.464 128.34H151.564L152.214 125.53H153.634ZM161.126 125.89H163.426V127H159.726V120.02H161.126V125.89ZM168.866 125.89H171.166V127H167.466V120.02H168.866V125.89ZM174.166 123.5C174.166 122.813 174.319 122.2 174.626 121.66C174.939 121.113 175.362 120.69 175.896 120.39C176.436 120.083 177.039 119.93 177.706 119.93C178.486 119.93 179.169 120.13 179.756 120.53C180.342 120.93 180.752 121.483 180.986 122.19H179.376C179.216 121.857 178.989 121.607 178.696 121.44C178.409 121.273 178.076 121.19 177.696 121.19C177.289 121.19 176.926 121.287 176.606 121.48C176.292 121.667 176.046 121.933 175.866 122.28C175.692 122.627 175.606 123.033 175.606 123.5C175.606 123.96 175.692 124.367 175.866 124.72C176.046 125.067 176.292 125.337 176.606 125.53C176.926 125.717 177.289 125.81 177.696 125.81C178.076 125.81 178.409 125.727 178.696 125.56C178.989 125.387 179.216 125.133 179.376 124.8H180.986C180.752 125.513 180.342 126.07 179.756 126.47C179.176 126.863 178.492 127.06 177.706 127.06C177.039 127.06 176.436 126.91 175.896 126.61C175.362 126.303 174.939 125.88 174.626 125.34C174.319 124.8 174.166 124.187 174.166 123.5Z" fill="#5A4B53"/>
<path d="M45.13 120.02C45.8633 120.02 46.5067 120.163 47.06 120.45C47.62 120.737 48.05 121.147 48.35 121.68C48.6567 122.207 48.81 122.82 48.81 123.52C48.81 124.22 48.6567 124.833 48.35 125.36C48.05 125.88 47.62 126.283 47.06 126.57C46.5067 126.857 45.8633 127 45.13 127H42.69V120.02H45.13ZM45.08 125.81C45.8133 125.81 46.38 125.61 46.78 125.21C47.18 124.81 47.38 124.247 47.38 123.52C47.38 122.793 47.18 122.227 46.78 121.82C46.38 121.407 45.8133 121.2 45.08 121.2H44.09V125.81H45.08ZM54.808 120.02V127H53.408V120.02H54.808ZM62.1512 127.07C61.6645 127.07 61.2245 126.987 60.8312 126.82C60.4445 126.653 60.1378 126.413 59.9112 126.1C59.6845 125.787 59.5678 125.417 59.5612 124.99H61.0612C61.0812 125.277 61.1812 125.503 61.3612 125.67C61.5478 125.837 61.8012 125.92 62.1212 125.92C62.4478 125.92 62.7045 125.843 62.8912 125.69C63.0778 125.53 63.1712 125.323 63.1712 125.07C63.1712 124.863 63.1078 124.693 62.9812 124.56C62.8545 124.427 62.6945 124.323 62.5012 124.25C62.3145 124.17 62.0545 124.083 61.7212 123.99C61.2678 123.857 60.8978 123.727 60.6112 123.6C60.3312 123.467 60.0878 123.27 59.8812 123.01C59.6812 122.743 59.5812 122.39 59.5812 121.95C59.5812 121.537 59.6845 121.177 59.8912 120.87C60.0978 120.563 60.3878 120.33 60.7612 120.17C61.1345 120.003 61.5612 119.92 62.0412 119.92C62.7612 119.92 63.3445 120.097 63.7912 120.45C64.2445 120.797 64.4945 121.283 64.5412 121.91H63.0012C62.9878 121.67 62.8845 121.473 62.6912 121.32C62.5045 121.16 62.2545 121.08 61.9412 121.08C61.6678 121.08 61.4478 121.15 61.2812 121.29C61.1212 121.43 61.0412 121.633 61.0412 121.9C61.0412 122.087 61.1012 122.243 61.2212 122.37C61.3478 122.49 61.5012 122.59 61.6812 122.67C61.8678 122.743 62.1278 122.83 62.4612 122.93C62.9145 123.063 63.2845 123.197 63.5712 123.33C63.8578 123.463 64.1045 123.663 64.3112 123.93C64.5178 124.197 64.6212 124.547 64.6212 124.98C64.6212 125.353 64.5245 125.7 64.3312 126.02C64.1378 126.34 63.8545 126.597 63.4812 126.79C63.1078 126.977 62.6645 127.07 62.1512 127.07ZM74.1349 120.02V121.15H72.2749V127H70.8749V121.15H69.0149V120.02H74.1349ZM82.3064 127L80.7664 124.28H80.1064V127H78.7064V120.02H81.3264C81.8664 120.02 82.3264 120.117 82.7064 120.31C83.0864 120.497 83.3697 120.753 83.5564 121.08C83.7497 121.4 83.8464 121.76 83.8464 122.16C83.8464 122.62 83.7131 123.037 83.4464 123.41C83.1797 123.777 82.7831 124.03 82.2564 124.17L83.9264 127H82.3064ZM80.1064 123.23H81.2764C81.6564 123.23 81.9397 123.14 82.1264 122.96C82.3131 122.773 82.4064 122.517 82.4064 122.19C82.4064 121.87 82.3131 121.623 82.1264 121.45C81.9397 121.27 81.6564 121.18 81.2764 121.18H80.1064V123.23ZM90.0627 120.02V127H88.6627V120.02H90.0627ZM98.9559 123.42C99.3492 123.493 99.6725 123.69 99.9259 124.01C100.179 124.33 100.306 124.697 100.306 125.11C100.306 125.483 100.213 125.813 100.026 126.1C99.8459 126.38 99.5825 126.6 99.2359 126.76C98.8892 126.92 98.4792 127 98.0059 127H94.9959V120.02H97.8759C98.3492 120.02 98.7559 120.097 99.0959 120.25C99.4425 120.403 99.7025 120.617 99.8759 120.89C100.056 121.163 100.146 121.473 100.146 121.82C100.146 122.227 100.036 122.567 99.8159 122.84C99.6025 123.113 99.3159 123.307 98.9559 123.42ZM96.3959 122.9H97.6759C98.0092 122.9 98.2659 122.827 98.4459 122.68C98.6259 122.527 98.7159 122.31 98.7159 122.03C98.7159 121.75 98.6259 121.533 98.4459 121.38C98.2659 121.227 98.0092 121.15 97.6759 121.15H96.3959V122.9ZM97.8059 125.86C98.1459 125.86 98.4092 125.78 98.5959 125.62C98.7892 125.46 98.8859 125.233 98.8859 124.94C98.8859 124.64 98.7859 124.407 98.5859 124.24C98.3859 124.067 98.1159 123.98 97.7759 123.98H96.3959V125.86H97.8059ZM106.352 120.02V124.34C106.352 124.813 106.475 125.177 106.722 125.43C106.968 125.677 107.315 125.8 107.762 125.8C108.215 125.8 108.565 125.677 108.812 125.43C109.058 125.177 109.182 124.813 109.182 124.34V120.02H110.592V124.33C110.592 124.923 110.462 125.427 110.202 125.84C109.948 126.247 109.605 126.553 109.172 126.76C108.745 126.967 108.268 127.07 107.742 127.07C107.222 127.07 106.748 126.967 106.322 126.76C105.902 126.553 105.568 126.247 105.322 125.84C105.075 125.427 104.952 124.923 104.952 124.33V120.02H106.352ZM120.244 120.02V121.15H118.384V127H116.984V121.15H115.124V120.02H120.244ZM126.216 120.02V127H124.816V120.02H126.216ZM134.389 127.07C133.736 127.07 133.136 126.917 132.589 126.61C132.042 126.303 131.609 125.88 131.289 125.34C130.969 124.793 130.809 124.177 130.809 123.49C130.809 122.81 130.969 122.2 131.289 121.66C131.609 121.113 132.042 120.687 132.589 120.38C133.136 120.073 133.736 119.92 134.389 119.92C135.049 119.92 135.649 120.073 136.189 120.38C136.736 120.687 137.166 121.113 137.479 121.66C137.799 122.2 137.959 122.81 137.959 123.49C137.959 124.177 137.799 124.793 137.479 125.34C137.166 125.88 136.736 126.303 136.189 126.61C135.642 126.917 135.042 127.07 134.389 127.07ZM134.389 125.82C134.809 125.82 135.179 125.727 135.499 125.54C135.819 125.347 136.069 125.073 136.249 124.72C136.429 124.367 136.519 123.957 136.519 123.49C136.519 123.023 136.429 122.617 136.249 122.27C136.069 121.917 135.819 121.647 135.499 121.46C135.179 121.273 134.809 121.18 134.389 121.18C133.969 121.18 133.596 121.273 133.269 121.46C132.949 121.647 132.699 121.917 132.519 122.27C132.339 122.617 132.249 123.023 132.249 123.49C132.249 123.957 132.339 124.367 132.519 124.72C132.699 125.073 132.949 125.347 133.269 125.54C133.596 125.727 133.969 125.82 134.389 125.82ZM148.521 127H147.121L143.951 122.21V127H142.551V120.01H143.951L147.121 124.81V120.01H148.521V127ZM153.634 125.53L152.464 128.34H151.564L152.214 125.53H153.634ZM161.126 125.89H163.426V127H159.726V120.02H161.126V125.89ZM168.866 125.89H171.166V127H167.466V120.02H168.866V125.89ZM174.166 123.5C174.166 122.813 174.319 122.2 174.626 121.66C174.939 121.113 175.362 120.69 175.896 120.39C176.436 120.083 177.039 119.93 177.706 119.93C178.486 119.93 179.169 120.13 179.756 120.53C180.342 120.93 180.752 121.483 180.986 122.19H179.376C179.216 121.857 178.989 121.607 178.696 121.44C178.409 121.273 178.076 121.19 177.696 121.19C177.289 121.19 176.926 121.287 176.606 121.48C176.292 121.667 176.046 121.933 175.866 122.28C175.692 122.627 175.606 123.033 175.606 123.5C175.606 123.96 175.692 124.367 175.866 124.72C176.046 125.067 176.292 125.337 176.606 125.53C176.926 125.717 177.289 125.81 177.696 125.81C178.076 125.81 178.409 125.727 178.696 125.56C178.989 125.387 179.216 125.133 179.376 124.8H180.986C180.752 125.513 180.342 126.07 179.756 126.47C179.176 126.863 178.492 127.06 177.706 127.06C177.039 127.06 176.436 126.91 175.896 126.61C175.362 126.303 174.939 125.88 174.626 125.34C174.319 124.8 174.166 124.187 174.166 123.5Z" fill="url(#paint5_radial)"/>
<defs>
<linearGradient id="paint0_linear" x1="146.718" y1="-27.7822" x2="146.718" y2="100.218" gradientUnits="userSpaceOnUse">
<stop offset="0.26875" stop-color="#4A3942" stop-opacity="0"/>
<stop offset="1" stop-color="#4A3942"/>
</linearGradient>
<linearGradient id="paint1_linear" x1="193.885" y1="217.974" x2="193.885" y2="345.974" gradientUnits="userSpaceOnUse">
<stop offset="0.26875" stop-color="#4A3942" stop-opacity="0"/>
<stop offset="1" stop-color="#4A3942"/>
</linearGradient>
<linearGradient id="paint2_linear" x1="219.221" y1="167.644" x2="219.221" y2="273.739" gradientUnits="userSpaceOnUse">
<stop offset="0.26875" stop-color="#4A3942" stop-opacity="0"/>
<stop offset="1" stop-color="#4A3942"/>
</linearGradient>
<linearGradient id="paint3_linear" x1="47.4875" y1="45.5994" x2="47.4875" y2="151.694" gradientUnits="userSpaceOnUse">
<stop offset="0.26875" stop-color="#4A3942" stop-opacity="0"/>
<stop offset="1" stop-color="#4A3942"/>
</linearGradient>
<radialGradient id="paint4_radial" cx="0" cy="0" r="1" gradientUnits="userSpaceOnUse" gradientTransform="translate(100 99.5001) rotate(86.8779) scale(27.5409 127.263)">
<stop offset="0.26875" stop-color="white" stop-opacity="0.47"/>
<stop offset="1" stop-color="#0E031A" stop-opacity="0"/>
</radialGradient>
<radialGradient id="paint5_radial" cx="0" cy="0" r="1" gradientUnits="userSpaceOnUse" gradientTransform="translate(99.947 123) rotate(87.5868) scale(11.0098 102.788)">
<stop stop-color="#140523" stop-opacity="0.28"/>
<stop offset="1" stop-color="#140523" stop-opacity="0.25"/>
</radialGradient>
</defs>
</svg>
